<?xml version="1.0" encoding="UTF-8" standalone="no"?>
<!-- Created with Inkscape (http://www.inkscape.org/) -->

<svg
   xmlns:dc="http://purl.org/dc/elements/1.1/"
   xmlns:cc="http://creativecommons.org/ns#"
   xmlns:rdf="http://www.w3.org/1999/02/22-rdf-syntax-ns#"
   xmlns:svg="http://www.w3.org/2000/svg"
   xmlns="http://www.w3.org/2000/svg"
   xmlns:sodipodi="http://sodipodi.sourceforge.net/DTD/sodipodi-0.dtd"
   xmlns:inkscape="http://www.inkscape.org/namespaces/inkscape"
   width="600mm"
   height="600mm"
   viewBox="0 0 600 600"
   version="1.1"
   id="svg8"
   inkscape:version="0.92.2 (5c3e80d, 2017-08-06)"
   sodipodi:docname="center.svg">
  <defs
     id="defs2" />
  <sodipodi:namedview
     id="base"
     pagecolor="#ffffff"
     bordercolor="#666666"
     borderopacity="1.0"
     inkscape:pageopacity="0.0"
     inkscape:pageshadow="2"
     inkscape:zoom="0.24748737"
     inkscape:cx="1007.9881"
     inkscape:cy="1883.609"
     inkscape:document-units="mm"
     inkscape:current-layer="layer1"
     showgrid="true"
     showguides="false"
     inkscape:snap-global="true"
     inkscape:window-width="1366"
     inkscape:window-height="715"
     inkscape:window-x="0"
     inkscape:window-y="0"
     inkscape:window-maximized="1"
     fit-margin-top="0"
     fit-margin-left="0"
     fit-margin-right="0"
     fit-margin-bottom="0">
    <inkscape:grid
       type="xygrid"
       id="grid3699"
       originx="-2.8823514e-08"
       originy="-3.9949063e-06" />
  </sodipodi:namedview>
  <metadata
     id="metadata5">
    <rdf:RDF>
      <cc:Work
         rdf:about="">
        <dc:format>image/svg+xml</dc:format>
        <dc:type
           rdf:resource="http://purl.org/dc/dcmitype/StillImage" />
        <dc:title></dc:title>
      </cc:Work>
    </rdf:RDF>
  </metadata>
  <g
     inkscape:label="Layer 1"
     inkscape:groupmode="layer"
     id="layer1"
     transform="translate(-2.8823514e-8,303)">
    <path
       style="fill:none;fill-opacity:1;fill-rule:nonzero;stroke:#000000;stroke-width:14.63650703;stroke-miterlimit:4;stroke-dasharray:none;stroke-opacity:1"
       d="m 279.31535,-295.14061 c -25.27686,2.49243 -50.50583,6.78708 -74.43656,15.51776 -23.45382,7.68847 -45.59561,19.10847 -66.30158,32.45919 -21.37211,14.36934 -41.053975,31.21677 -58.029771,50.60934 -15.510521,17.46218 -28.75696,36.95182 -39.703218,57.57061 -11.890402,22.84776 -20.856144,47.149703 -26.46928,72.292591 -6.2506908,28.25126 -8.3670191,57.4572653 -6.2756912,86.325628 2.4273312,25.627844 7.3111142,51.077382 16.2105192,75.283255 7.704211,22.404236 18.686839,43.631326 31.529307,63.504316 14.36927,21.37217 31.216538,41.05387 50.609004,58.03008 17.46212,15.5105 36.95168,28.75712 57.57054,39.70344 22.84745,11.89046 47.14927,20.85624 72.29226,26.46942 28.2509,6.25073 57.45673,8.36706 86.32492,6.27572 25.62784,-2.42733 51.07716,-7.31115 75.28291,-16.2106 22.40414,-7.70426 43.63125,-18.68695 63.50382,-31.52945 21.37234,-14.36935 41.0539,-31.21675 58.03004,-50.60932 15.51022,-17.46221 28.75616,-36.95183 39.70318,-57.57061 11.89103,-22.84777 20.85606,-47.149704 26.46945,-72.292594 6.25058,-28.251259 8.36684,-57.457264 6.27559,-86.325627 -2.42799,-25.627844 -7.31111,-51.077381 -16.20988,-75.283249 -7.70507,-22.40426 -18.68861,-43.63136 -31.5297,-63.50433 -14.36947,-21.37218 -31.2169,-41.05389 -50.6095,-58.03008 -17.46202,-15.51051 -36.95156,-28.75713 -57.57061,-39.70344 -22.84725,-11.89045 -47.14908,-20.85625 -72.29205,-26.46941 -27.61295,-6.18377 -56.13025,-8.12503 -84.3737,-6.51264 z"
       id="path3701"
       inkscape:connector-curvature="0" />
  </g>
</svg>
