<?xml version="1.0" encoding="UTF-8" standalone="no"?>
<!-- Created with Inkscape (http://www.inkscape.org/) -->

<svg
   xmlns:dc="http://purl.org/dc/elements/1.1/"
   xmlns:cc="http://creativecommons.org/ns#"
   xmlns:rdf="http://www.w3.org/1999/02/22-rdf-syntax-ns#"
   xmlns:svg="http://www.w3.org/2000/svg"
   xmlns="http://www.w3.org/2000/svg"
   xmlns:xlink="http://www.w3.org/1999/xlink"
   xmlns:sodipodi="http://sodipodi.sourceforge.net/DTD/sodipodi-0.dtd"
   xmlns:inkscape="http://www.inkscape.org/namespaces/inkscape"
   width="200mm"
   height="620mm"
   viewBox="0 0 200 620"
   version="1.1"
   id="svg8"
   inkscape:version="0.92.2 (5c3e80d, 2017-08-06)"
   sodipodi:docname="left.svg">
  <defs
     id="defs2" />
  <sodipodi:namedview
     id="base"
     pagecolor="#ffffff"
     bordercolor="#666666"
     borderopacity="1.0"
     inkscape:pageopacity="0.0"
     inkscape:pageshadow="2"
     inkscape:zoom="0.25"
     inkscape:cx="785.96327"
     inkscape:cy="1786.9431"
     inkscape:document-units="mm"
     inkscape:current-layer="layer1"
     showgrid="true"
     inkscape:window-width="1366"
     inkscape:window-height="715"
     inkscape:window-x="0"
     inkscape:window-y="0"
     inkscape:window-maximized="1">
    <inkscape:grid
       type="xygrid"
       id="grid29"
       units="mm"
       spacingx="0.99999999"
       snapvisiblegridlinesonly="false"
       spacingy="0.99999999" />
  </sodipodi:namedview>
  <metadata
     id="metadata5">
    <rdf:RDF>
      <cc:Work
         rdf:about="">
        <dc:format>image/svg+xml</dc:format>
        <dc:type
           rdf:resource="http://purl.org/dc/dcmitype/StillImage" />
        <dc:title />
      </cc:Work>
    </rdf:RDF>
  </metadata>
  <g
     inkscape:label="Layer 1"
     inkscape:groupmode="layer"
     id="layer1"
     transform="translate(0,323)">
    <path
       style="fill:none;stroke:#000000;stroke-width:1.5;stroke-linecap:butt;stroke-linejoin:miter;stroke-miterlimit:4;stroke-dasharray:none;stroke-opacity:1"
       d="M 10,287 H 199.99999"
       id="path41"
       inkscape:connector-curvature="0" />
    <use
       x="0"
       y="0"
       xlink:href="#path41"
       id="use848"
       transform="translate(0,-100)"
       width="100%"
       height="100%" />
    <use
       x="0"
       y="0"
       xlink:href="#path41"
       id="use852"
       transform="translate(0,-200)"
       width="100%"
       height="100%" />
    <use
       x="0"
       y="0"
       xlink:href="#path41"
       id="use854"
       transform="translate(0,-300)"
       width="100%"
       height="100%" />
    <use
       x="0"
       y="0"
       xlink:href="#path41"
       id="use856"
       transform="translate(0,-400)"
       width="100%"
       height="100%" />
    <use
       x="0"
       y="0"
       xlink:href="#path41"
       id="use858"
       transform="translate(0,-500)"
       width="100%"
       height="100%" />
    <use
       x="0"
       y="0"
       xlink:href="#path41"
       id="use860"
       transform="translate(0,-600)"
       width="100%"
       height="100%" />
    <path
       style="fill:none;stroke:#000000;stroke-width:1.5;stroke-linecap:butt;stroke-linejoin:miter;stroke-miterlimit:4;stroke-dasharray:none;stroke-opacity:1"
       d="m 10,-313.75 v 601.5"
       id="path862"
       inkscape:connector-curvature="0" />
    <use
       x="0"
       y="0"
       xlink:href="#path862"
       id="use864"
       transform="translate(100)"
       width="100%"
       height="100%" />
    <circle
       style="opacity:1;fill:#ffffff;fill-opacity:1;fill-rule:nonzero;stroke:none;stroke-width:2;stroke-linecap:round;stroke-linejoin:round;stroke-miterlimit:4;stroke-dasharray:none;stroke-dashoffset:0;stroke-opacity:1;paint-order:markers stroke fill"
       id="path17"
       cx="95"
       cy="-228"
       r="95" />
    <path
       id="path354"
       style="fill:#000000;stroke:none;stroke-width:0.03527778"
       d="m -162.90278,-126.20557 v 14.46388 h 1.41111 1.41111 v -14.46388 -14.46389 h -1.41111 -1.41111 z m 0,-33.3375 v 15.69861 h 1.41111 1.41111 v -15.69861 -15.69861 h -1.41111 -1.41111 z m 0,-34.21945 v 15.34583 h 1.41111 1.41111 v -15.34583 -15.34583 h -1.41111 -1.41111 z m 112.183332,-58.38472 v 1.41111 h 14.46389 14.46387 v -1.41111 -1.41111 h -14.46387 -14.46389 z m -34.57222,0 v 1.41111 h 15.69861 15.69861 v -1.41111 -1.41111 h -15.69861 -15.69861 z m -33.725562,-0.91722 c -0.10583,0.28222 -0.14111,0.88194 -0.0705,1.34055 l 0.10583,0.81139 15.27528,0.10584 15.240002,0.0705 v -1.41111 -1.41111 h -15.169452 c -12.84111,0 -15.20472,0.0705 -15.38111,0.49389 z m -116.91055,0.91722 v 1.83444 l 15.45167,-0.24694 c 8.46667,-0.14111 15.52222,-0.3175 15.69861,-0.42333 0.14111,-0.0706 0.24694,-0.59973 0.24694,-1.16417 v -0.98778 l -3.59833,-0.21166 c -2.01083,-0.10584 -9.06639,-0.28223 -15.69861,-0.42334 l -12.10028,-0.21166 z m -34.57222,0.0353 v 2.54 l 10.33639,-0.21167 c 5.64445,-0.14111 12.73528,-0.24694 15.69861,-0.24694 h 5.36222 v -1.905 -1.905 l -3.59833,-0.21167 c -2.01083,-0.10583 -9.06639,-0.28222 -15.69861,-0.42333 L -270.5,-254.68724 Z m -31.04444,-0.0353 v 3.21028 l 13.51139,-0.21167 c 7.40833,-0.14111 13.68778,-0.28222 13.93472,-0.38805 0.28222,-0.0706 0.42333,-0.91723 0.42333,-2.57528 v -2.43417 l -3.95111,-0.21167 c -2.18722,-0.10583 -8.46667,-0.28222 -13.93472,-0.38805 l -9.98361,-0.17639 z m 135.81944,-24.09472 c -1.83445,0.28222 -5.53861,1.62278 -7.58473,2.68111 -2.82222,1.48167 -8.11388,6.77333 -9.59555,9.59555 -1.94028,3.73945 -2.61056,6.31473 -2.82222,10.75973 -0.21167,4.90361 0.35278,7.69055 2.36361,11.81805 2.54,5.18583 6.24416,8.85472 11.46528,11.32417 3.59833,1.72861 6.17361,2.25778 10.40694,2.29305 4.33917,0 6.80861,-0.56444 10.75972,-2.46944 6.42056,-3.06917 11.18306,-8.92528 13.05278,-16.08667 0.70555,-2.78694 0.70555,-8.85472 0,-11.64166 -1.27,-4.86834 -4.58611,-10.12473 -8.21972,-13.05278 -2.50473,-2.01083 -6.94972,-4.19806 -9.94834,-4.90361 -2.11666,-0.49389 -7.69055,-0.67028 -9.87777,-0.3175 z m 9.34861,3.81 c 3.84528,0.98778 6.49111,2.54 9.56027,5.60916 4.37445,4.37445 6.17362,8.60778 6.17362,14.67556 0,5.82083 -2.01084,10.75972 -6.0325,14.81667 -4.09223,4.05694 -8.85473,5.99722 -14.85195,5.99722 -6.10305,0 -10.23055,-1.72861 -14.64028,-6.13834 -4.30388,-4.30388 -6.13833,-8.67833 -6.13833,-14.60499 0,-5.96195 1.86972,-10.44223 6.17361,-14.71084 2.99861,-2.99861 5.715,-4.62139 9.38389,-5.60916 2.54,-0.67028 7.76111,-0.70556 10.37167,-0.0353 z m -9.48972,-11.43 c -9.66612,1.30528 -18.80306,7.62 -23.67139,16.33361 -4.90361,8.78417 -5.18584,20.14361 -0.74084,29.31583 8.32556,17.07445 29.10417,23.28333 45.43778,13.54667 3.28083,-1.94028 8.00806,-6.49111 10.19528,-9.80722 10.795,-16.47473 4.40972,-38.48806 -13.61722,-46.81361 -4.93889,-2.29306 -12.10028,-3.35139 -17.60361,-2.57528 z m 11.60638,4.19805 c 7.90223,2.01084 14.81667,7.65528 18.34445,14.99306 2.32833,4.7625 2.78694,6.94972 2.82222,12.52361 0,5.75028 -0.49389,7.83167 -3.03389,13.05278 -1.5875,3.175 -2.25778,4.09222 -5.04472,6.91444 -6.17361,6.17361 -13.22917,8.96056 -21.73111,8.50195 -4.55083,-0.24695 -6.985,-0.88195 -11.1125,-2.89278 -7.40833,-3.56306 -12.87639,-10.26584 -15.02833,-18.34445 -0.98778,-3.73944 -1.09361,-10.19527 -0.17639,-13.75833 2.89278,-11.32417 12.24139,-19.89667 23.67139,-21.66055 2.92805,-0.45861 8.04333,-0.17639 11.28888,0.67027 z m -8.85472,-34.32527 c 0.14111,6.56166 0.3175,13.54666 0.42334,15.52222 l 0.21166,3.63361 h 0.98778 c 0.56444,0 1.09361,-0.10583 1.16417,-0.28222 0.10583,-0.14111 0.28222,-7.12611 0.42333,-15.52222 l 0.24694,-15.24 h -1.83444 -1.83444 z m -0.70555,-34.74861 c 0.14111,6.45583 0.3175,13.54666 0.42333,15.69861 l 0.21167,3.98639 h 1.69333 c 0.9525,0 1.79917,-0.10584 1.86972,-0.28223 0.10584,-0.14111 0.28222,-7.19666 0.42334,-15.69861 l 0.24694,-15.41638 h -2.54 -2.54 z m -0.67028,-32.98472 c 0.10583,5.60916 0.28222,11.95916 0.38805,14.11111 l 0.21167,3.98639 h 2.43417 c 1.65805,0 2.50472,-0.14112 2.61055,-0.45862 0.0706,-0.21166 0.21167,-6.56166 0.35278,-14.11111 l 0.21167,-13.6525 h -3.21028 -3.175 z m -4.7625,-18.34445 c -21.30778,1.44639 -38.59389,5.89139 -56.26805,14.35806 -29.49222,14.14639 -53.83389,38.06472 -68.40361,67.20416 -22.08389,44.09722 -20.74333,96.62583 3.59833,139.55889 2.8575,5.04472 9.41917,14.71083 13.335,19.57917 4.83306,6.0325 16.61584,17.85055 22.36611,22.43666 14.18167,11.28889 28.78667,19.36749 45.19083,25.01195 21.73111,7.44361 45.61417,9.70138 68.72111,6.49111 40.14611,-5.60917 76.200002,-27.55194 99.941942,-60.81889 22.96583,-32.13806 31.9264002,-71.61389 25.29417,-111.30139 -1.05834,-6.24417 -3.56307,-16.01611 -5.78557,-22.5425 -5.64443,-16.40416 -13.72304,-31.00916 -25.01193,-45.19083 -4.58611,-5.78556 -16.43945,-17.56833 -22.43667,-22.36611 -4.90361,-3.91583 -14.605,-10.54806 -19.57916,-13.335 -19.508612,-11.04195 -40.992782,-17.42722 -63.676392,-18.97945 -4.72722,-0.3175 -13.54667,-0.38805 -17.28611,-0.10583 z m 18.94417,5.15056 c 0.0705,0.10583 -0.17639,2.99861 -0.56445,6.49111 -3.21028,27.51666 -4.90361,53.41055 -5.22111,79.12805 l -0.21167,17.4625 h -5.22111 -5.25639 v -13.40555 c 0,-17.10973 -0.56444,-30.33889 -2.11666,-50.62361 -0.91723,-11.85334 -3.03389,-33.16111 -3.73945,-37.81778 l -0.21166,-1.30528 2.61055,-0.14111 c 3.24556,-0.21167 19.685,0 19.93195,0.21167 z m -30.09195,2.78694 c 3.42195,12.02972 6.06778,28.78667 7.97278,51.08222 1.16417,13.89945 1.72861,23.8125 2.61055,46.42556 l 0.14112,3.56305 -1.83445,0.45861 c -0.98778,0.24695 -1.97555,0.52917 -2.18722,0.59973 -0.24695,0.10583 -0.45861,-1.97556 -0.59972,-6.59695 -1.19945,-34.11361 -6.63223,-73.76583 -12.91167,-93.83889 -0.38805,-1.23472 -0.67028,-2.32833 -0.59972,-2.39888 0.17639,-0.14112 5.11528,-1.05834 6.10305,-1.09362 0.635,-0.0353 0.84667,0.28223 1.30528,1.79917 z m 42.15694,-1.30528 c 1.62278,0.28223 3.03389,0.56445 3.10445,0.635 0.0705,0.0706 -0.59972,2.57528 -1.44639,5.60917 -4.58611,15.94556 -8.46667,40.53417 -10.61861,67.31 -0.67028,8.71361 -1.5875,24.05944 -1.5875,27.48139 0,2.2225 -0.0706,2.54 -0.56445,2.36361 -0.31749,-0.14111 -1.30527,-0.38806 -2.18722,-0.635 l -1.5875,-0.38806 0.21167,-8.14916 c 0.67028,-22.96584 2.78694,-50.09445 5.3975,-68.12139 1.69333,-11.78278 4.97417,-26.63472 5.92667,-26.63472 0.21166,0 1.72861,0.24694 3.35138,0.52916 z m -55.95055,6.56167 c 9.8425,23.21278 16.29833,59.01972 16.51,91.86333 l 0.0353,6.35 -1.16417,0.67028 c -8.50194,4.79778 -13.44083,9.525 -17.4625,16.68639 l -1.69333,3.03389 -10.61861,-0.21167 c -26.10555,-0.52917 -52.31694,-4.48028 -73.51889,-11.04195 -8.11389,-2.53999 -18.37972,-6.52638 -18.37972,-7.19666 0,-0.14111 0.635,-2.36361 1.37584,-4.97417 7.54944,-25.75277 20.46111,-46.6725 40.25194,-65.33444 14.39333,-13.61722 33.23167,-24.765 52.42277,-31.07972 5.04472,-1.65806 9.73667,-2.99861 10.19528,-2.89278 0.21167,0.0706 1.12889,1.905 2.04611,4.1275 z m 75.91778,-1.76389 c 12.73527,3.88056 28.363332,11.71222 40.040272,20.07306 9.41917,6.70277 21.20195,17.88583 28.36334,26.81111 14.53443,18.16805 24.27109,39.0525 28.75139,61.55972 0.88194,4.445 1.44637,8.43139 2.29304,15.83972 l 0.10583,1.02305 -17.145,-0.21166 c -21.37832,-0.28222 -33.72554,-0.84667 -52.59915,-2.39889 -16.968612,-1.37583 -37.747222,-4.09222 -37.747222,-4.90361 0,-0.14111 -0.77611,-1.48167 -1.76389,-2.92806 -3.42195,-5.29166 -9.56028,-10.86555 -14.95778,-13.6525 l -2.39889,-1.23472 0.21167,-8.5725 c 0.88194,-34.88972 6.77333,-66.675 16.58055,-89.92305 l 1.65806,-3.91584 2.54,0.67028 c 1.41111,0.38806 4.1275,1.16417 6.06778,1.76389 z m -35.84222,101.03555 c 17.63888,3.70417 29.77444,19.43806 28.85722,37.35917 -0.49389,9.38389 -4.16278,17.53305 -10.90084,24.05944 -6.56166,6.42056 -14.2875,9.80723 -23.42444,10.26584 -24.90611,1.30527 -43.60333,-22.29556 -36.61833,-46.31972 4.58611,-15.94556 19.685,-26.81111 36.195,-26.035 1.86972,0.0705 4.51555,0.38805 5.89139,0.67027 z m -144.4625,10.23056 c 19.64972,5.96194 59.54889,11.35944 91.7575,12.3825 3.70416,0.10583 6.87916,0.24694 7.12611,0.3175 0.28222,0.10583 0.24694,0.70555 -0.17639,2.25778 l -0.56445,2.11666 -3.73944,-0.14111 c -2.04611,-0.10583 -7.83166,-0.35278 -12.87639,-0.56444 -27.62249,-1.09361 -53.51638,-3.56306 -71.08472,-6.80861 -5.64444,-1.05834 -14.42861,-3.21028 -14.9225,-3.70417 -0.28222,-0.28222 0.14111,-4.19806 0.67028,-6.13833 0.24695,-0.77611 0.38806,-0.77611 3.81,0.28222 z m 189.82972,12.34722 c 26.352502,2.18722 52.740272,3.35139 76.482202,3.35139 10.68917,0 13.6525,0.10583 13.6525,0.42333 0,0.24695 0.10584,1.05834 0.21167,1.76389 l 0.24696,1.34056 h -12.31196 c -23.77721,0 -57.71443,-1.48167 -82.161932,-3.52778 -11.00667,-0.9525 -10.23055,-0.74083 -10.90083,-2.71639 -0.3175,-0.91722 -0.56445,-1.72861 -0.56445,-1.79917 0,-0.10583 1.16417,-0.0705 2.57528,0.0706 1.37583,0.14111 7.16139,0.635 12.77056,1.09361 z M -295.9,-262.3778 c 31.64417,3.42195 56.55028,4.93889 81.13889,4.93889 h 13.58194 v 5.25639 5.22111 l -17.81527,0.21167 c -17.32139,0.21167 -21.69584,0.38806 -38.62917,1.48167 -10.16,0.67027 -29.03361,2.39888 -38.94666,3.52777 -4.16278,0.49389 -7.62,0.84667 -7.65528,0.77611 -0.3175,-0.3175 -0.56445,-12.84111 -0.3175,-17.28611 l 0.24694,-5.22111 0.9525,0.17639 c 0.49389,0.10584 3.84528,0.49389 7.44361,0.91722 z m 188.20694,4.05695 c 18.344442,1.09361 51.082222,1.905 77.187772,1.94028 h 12.2414 v 4.33916 4.33917 l -22.29556,0.0706 c -22.11917,0.0705 -40.85167,0.45861 -55.84472,1.12888 -6.808612,0.3175 -23.071672,1.30528 -25.047222,1.51695 -0.45861,0.0353 -0.67028,-0.10583 -0.56445,-0.45861 0.3175,-1.41111 0.42334,-9.94834 0.10584,-11.78278 l -0.3175,-2.08139 3.03388,0.24695 c 1.65806,0.10583 6.84389,0.45861 11.50056,0.74083 z m 89.429172,12.59417 c 0,0.24694 -0.10583,1.05833 -0.21167,1.76388 l -0.24696,1.34056 h -12.0297 c -26.5289,0 -66.74556,2.01083 -90.769732,4.55083 -1.41111,0.14111 -2.57528,0.14111 -2.57528,0.0353 0,-0.14111 0.24695,-0.9525 0.56445,-1.83444 0.635,-1.905 0,-1.72862 9.66611,-2.57528 15.098892,-1.30528 34.078332,-2.39889 52.034722,-2.99861 15.5575,-0.52917 16.68639,-0.56445 30.97389,-0.635 9.87777,-0.0706 12.59417,0.0353 12.59417,0.35278 z m -181.715832,3.59833 c 0.21166,0.84666 0.45861,1.76389 0.56444,2.04611 0.17639,0.45861 -0.74083,0.56444 -6.06778,0.77611 -35.59527,1.34056 -73.8011,6.52639 -93.97999,12.7 l -2.75167,0.84667 -0.17639,-0.91723 c -0.67028,-3.38666 -0.9525,-5.82083 -0.70555,-6.06777 0.52916,-0.52917 11.67694,-3.10445 18.13277,-4.23334 15.38112,-2.64583 38.4175,-4.86833 61.73611,-5.99722 4.37445,-0.21167 8.81945,-0.42333 9.87778,-0.45861 1.05833,-0.0706 4.40972,-0.14111 7.44361,-0.17639 l 5.53861,-0.0705 z m 181.186662,3.10444 c -1.12889,9.80722 -2.11666,15.48695 -3.88056,22.33084 -5.78557,22.57777 -16.86277,43.10944 -32.84361,60.92472 -18.02694,20.07305 -43.00361,35.20722 -69.638332,42.22749 -7.16139,1.86973 -17.70944,3.70417 -23.21278,3.9864 l -1.86972,0.10583 0.0353,-10.9361 c 0.0353,-32.73779 2.89278,-72.46057 6.73805,-93.94473 l 0.38806,-2.2225 3.42194,-2.2225 c 4.26861,-2.82223 8.64306,-7.19667 11.35945,-11.28889 1.12889,-1.72861 2.08139,-3.28084 2.08139,-3.42195 0,-0.59972 14.46388,-2.68111 27.869442,-3.98639 21.83694,-2.18722 42.8625,-3.24555 66.42806,-3.31611 l 13.335,-0.0705 z m -178.329162,4.69195 c 2.64583,5.43277 8.64305,12.17083 13.93472,15.62805 1.55222,0.98778 2.92805,1.86972 3.06916,1.905 0.3175,0.14111 1.86973,9.8425 2.92806,18.27389 1.5875,13.0175 2.8575,29.24528 3.70417,46.39028 0.52916,10.83028 1.09361,42.26278 0.81138,42.54501 -0.17638,0.1411 -2.32833,0.0353 -4.86833,-0.24696 -57.50277,-6.45584 -105.48055,-47.02527 -121.56721,-102.79944 -0.74084,-2.61056 -1.37584,-4.86833 -1.37584,-4.97417 0,-0.42333 8.78417,-3.88055 15.16945,-5.99722 22.82472,-7.54944 51.89361,-11.95917 80.85666,-12.24139 l 6.56166,-0.0705 z m 23.38916,20.14361 c 1.905,0.635 1.69333,-0.0706 2.54,9.48972 1.19945,13.93472 2.25778,30.97389 3.03389,50.27083 0.49389,12.55889 0.91722,45.19084 0.56444,45.4025 -0.14111,0.0706 -0.9525,0.0353 -1.83444,-0.10583 l -1.5875,-0.21167 v -13.4761 c 0,-24.69445 -1.37583,-53.69278 -3.88056,-82.76168 -0.42333,-4.55083 -0.81138,-8.50194 -0.88194,-8.74888 -0.21167,-0.56445 0.0706,-0.52917 2.04611,0.14111 z m 26.52889,0.21166 c -0.21167,1.02306 -1.76389,19.54389 -2.46944,29.73917 -1.37584,20.14361 -2.29306,45.22611 -2.29306,63.18249 v 11.67696 l -1.30528,0.24694 c -0.74083,0.10583 -1.55222,0.21167 -1.83444,0.21167 -0.91722,0 -0.21167,-36.5125 1.19944,-63.67639 0.77611,-14.99306 2.75167,-40.60472 3.13972,-40.99278 0.17639,-0.17639 2.8575,-1.12889 3.31611,-1.12889 0.28223,-0.0353 0.38806,0.24695 0.24695,0.74083 z m -12.7,1.5875 c 2.54,-0.10583 4.86833,-0.28222 5.22111,-0.42333 0.56445,-0.24694 0.635,-0.14111 0.45861,0.91722 -0.28222,1.62278 -1.16416,15.59278 -1.62278,25.36472 -0.67027,15.20473 -1.05833,33.8314 -1.12888,55.66835 l -0.0706,21.97804 -4.30389,-0.10584 -4.26861,-0.10583 -0.24694,-24.34167 c -0.28223,-31.96165 -0.91723,-52.63443 -2.18723,-69.9911 -0.24694,-3.95111 -0.49389,-7.69056 -0.49389,-8.32556 v -1.12888 l 2.04612,0.3175 c 1.09361,0.21166 4.09222,0.28222 6.59694,0.17638 z" />
  </g>
</svg>
