<?xml version="1.0" encoding="UTF-8" standalone="no"?>
<!-- Created with Inkscape (http://www.inkscape.org/) -->

<svg
   xmlns:dc="http://purl.org/dc/elements/1.1/"
   xmlns:cc="http://creativecommons.org/ns#"
   xmlns:rdf="http://www.w3.org/1999/02/22-rdf-syntax-ns#"
   xmlns:svg="http://www.w3.org/2000/svg"
   xmlns="http://www.w3.org/2000/svg"
   xmlns:xlink="http://www.w3.org/1999/xlink"
   xmlns:sodipodi="http://sodipodi.sourceforge.net/DTD/sodipodi-0.dtd"
   xmlns:inkscape="http://www.inkscape.org/namespaces/inkscape"
   width="620mm"
   height="1020mm"
   viewBox="0 0 620 1020"
   version="1.1"
   id="svg8"
   inkscape:version="0.92.2 (5c3e80d, 2017-08-06)"
   sodipodi:docname="portrait.svg">
  <defs
     id="defs2" />
  <sodipodi:namedview
     id="base"
     pagecolor="#ffffff"
     bordercolor="#666666"
     borderopacity="1.0"
     inkscape:pageopacity="0.0"
     inkscape:pageshadow="2"
     inkscape:zoom="0.35"
     inkscape:cx="1091.1914"
     inkscape:cy="3191.2623"
     inkscape:document-units="mm"
     inkscape:current-layer="layer1"
     showgrid="true"
     inkscape:window-width="1366"
     inkscape:window-height="715"
     inkscape:window-x="0"
     inkscape:window-y="0"
     inkscape:window-maximized="1">
    <inkscape:grid
       type="xygrid"
       id="grid29"
       units="mm"
       spacingx="0.99999998"
       spacingy="0.99999998" />
  </sodipodi:namedview>
  <metadata
     id="metadata5">
    <rdf:RDF>
      <cc:Work
         rdf:about="">
        <dc:format>image/svg+xml</dc:format>
        <dc:type
           rdf:resource="http://purl.org/dc/dcmitype/StillImage" />
        <dc:title></dc:title>
      </cc:Work>
    </rdf:RDF>
  </metadata>
  <g
     inkscape:label="Layer 1"
     inkscape:groupmode="layer"
     id="layer1"
     transform="translate(0,723)">
    <path
       style="fill:none;stroke:#000000;stroke-width:1.5;stroke-linecap:butt;stroke-linejoin:miter;stroke-miterlimit:4;stroke-dasharray:none;stroke-opacity:1"
       d="M 10.00001,-712.99999 V -523"
       id="path41"
       inkscape:connector-curvature="0" />
    <use
       x="0"
       y="0"
       xlink:href="#path41"
       id="use848"
       transform="translate(100)"
       width="100%"
       height="100%" />
    <use
       x="0"
       y="0"
       xlink:href="#path41"
       id="use852"
       transform="translate(200)"
       width="100%"
       height="100%" />
    <use
       x="0"
       y="0"
       xlink:href="#path41"
       id="use854"
       transform="translate(300.00001)"
       width="100%"
       height="100%" />
    <use
       x="0"
       y="0"
       xlink:href="#path41"
       id="use856"
       transform="translate(399.99999)"
       width="100%"
       height="100%" />
    <use
       x="0"
       y="0"
       xlink:href="#path41"
       id="use858"
       transform="translate(500.00001)"
       width="100%"
       height="100%" />
    <use
       x="0"
       y="0"
       xlink:href="#path41"
       id="use860"
       transform="translate(599.99999)"
       width="100%"
       height="100%" />
    <path
       style="fill:none;stroke:#000000;stroke-width:1.5;stroke-linecap:butt;stroke-linejoin:miter;stroke-miterlimit:4;stroke-dasharray:none;stroke-opacity:1"
       d="M 610.75001,-712.99999 H 9.25"
       id="path862"
       inkscape:connector-curvature="0" />
    <use
       x="0"
       y="0"
       xlink:href="#path862"
       id="use864"
       transform="translate(0,100)"
       width="100%"
       height="100%" />
    <circle
       style="opacity:1;fill:#ffffff;fill-opacity:1;fill-rule:nonzero;stroke:none;stroke-width:2;stroke-linecap:round;stroke-linejoin:round;stroke-miterlimit:4;stroke-dasharray:none;stroke-dashoffset:0;stroke-opacity:1;paint-order:markers stroke fill"
       id="path17"
       cx="-628"
       cy="-525"
       r="95"
       transform="rotate(90)" />
    <path
       id="path354"
       style="fill:#000000;stroke:none;stroke-width:0.03527778"
       d="m 452.73963,-628.82513 h -8.30027 v 0.80978 0.80979 h 8.30027 8.30028 v -0.80979 -0.80978 z m 19.13113,0 h -9.00884 v 0.80978 0.80979 h 9.00884 9.00884 v -0.80979 -0.80978 z m 19.63725,0 h -8.80639 v 0.80978 0.80979 h 8.80639 8.80639 v -0.80979 -0.80978 z m 33.50478,64.37777 h -0.80978 v 8.30028 8.30027 h 0.80978 0.80978 v -8.30027 -8.30028 z m 0,-19.83969 h -0.80978 v 9.00884 9.00884 h 0.80978 0.80978 v -9.00884 -9.00884 z m 0.52636,-19.35382 c -0.16196,-0.0607 -0.50611,-0.081 -0.76929,-0.0405 l -0.46563,0.0607 -0.0607,8.76591 -0.0404,8.74566 h 0.80978 0.80978 v -8.70518 c 0,-7.36902 -0.0405,-8.72541 -0.28342,-8.82663 z m -0.52636,-67.09054 h -1.05272 l 0.14171,8.86713 c 0.081,4.8587 0.1822,8.90761 0.24294,9.00883 0.0405,0.081 0.34416,0.14171 0.66807,0.14171 h 0.56685 l 0.12146,-2.06494 c 0.0607,-1.15394 0.16196,-5.20286 0.24294,-9.00884 l 0.12146,-6.94389 z m -0.0203,-19.83969 h -1.45762 l 0.12147,5.93166 c 0.081,3.23914 0.14171,7.30831 0.14171,9.00884 v 3.07717 h 1.09321 1.09321 l 0.12147,-2.06494 c 0.0607,-1.15394 0.16195,-5.20286 0.24293,-9.00884 l 0.12149,-6.94389 z m 0.0203,-17.81523 h -1.84226 l 0.12147,7.75367 c 0.081,4.25136 0.16196,7.8549 0.22269,7.99662 0.0405,0.16195 0.52636,0.24293 1.47785,0.24293 h 1.39688 l 0.12147,-2.2674 c 0.0607,-1.25516 0.16196,-4.8587 0.22269,-7.9966 l 0.10122,-5.72922 z m 13.82705,77.94165 c -0.16196,-1.05273 -0.93125,-3.1784 -1.53859,-4.3526 -0.85027,-1.61957 -3.88696,-4.65624 -5.50652,-5.50653 -2.14593,-1.11344 -3.62379,-1.4981 -6.17461,-1.61956 -2.81399,-0.12147 -4.41331,0.20245 -6.78193,1.35638 -2.97595,1.45761 -5.08139,3.58329 -6.49851,6.57949 -0.99198,2.06495 -1.29565,3.54282 -1.31589,5.97215 0,2.49009 0.32391,3.90721 1.41711,6.1746 1.76128,3.68452 5.12188,6.41753 9.23154,7.4905 1.59931,0.40488 5.08138,0.40488 6.6807,0 2.79376,-0.72881 5.8102,-2.6318 7.4905,-4.71699 1.15394,-1.43737 2.40911,-3.98817 2.814,-5.70897 0.28342,-1.21467 0.38464,-4.41332 0.1822,-5.66847 z m -2.18642,5.3648 c -0.56685,2.20666 -1.45761,3.725 -3.21888,5.48628 -2.51033,2.51033 -4.93968,3.5428 -8.42175,3.5428 -3.34035,0 -6.1746,-1.15394 -8.50273,-3.46182 -2.32812,-2.34838 -3.44157,-5.08139 -3.44157,-8.52296 0,-3.50232 0.99198,-5.87093 3.52256,-8.40152 2.46983,-2.46982 4.98016,-3.52255 8.38125,-3.52255 3.42133,0 5.9924,1.07297 8.44199,3.5428 1.72079,1.7208 2.65204,3.27963 3.21889,5.38507 0.38464,1.4576 0.40489,4.4538 0.0203,5.9519 z m 6.55925,-5.44579 c -0.74905,-5.54701 -4.37283,-10.79037 -9.37324,-13.58412 -5.04091,-2.81399 -11.55966,-2.97595 -16.82325,-0.42513 -9.79838,4.77772 -13.36142,16.70177 -7.77392,26.07501 1.11345,1.88275 3.725,4.59553 5.62799,5.85069 9.45423,6.19484 22.08684,2.53057 26.86456,-7.81441 1.3159,-2.83424 1.92324,-6.94388 1.47786,-10.10204 z m -2.40911,6.66046 c -1.15394,4.53479 -4.39307,8.50273 -8.60394,10.52719 -2.73302,1.33614 -3.98819,1.59931 -7.18683,1.61956 -3.29987,0 -4.4943,-0.28342 -7.4905,-1.74103 -1.82201,-0.91101 -2.34837,-1.29566 -3.96793,-2.89498 -3.5428,-3.5428 -5.14213,-7.59171 -4.87895,-12.47066 0.14172,-2.61155 0.50612,-4.00842 1.66006,-6.37704 2.0447,-4.25135 5.89117,-7.38928 10.52718,-8.62418 2.14593,-0.56686 5.85068,-0.62759 7.89539,-0.10124 6.49851,1.66007 11.41794,7.02487 12.43017,13.58412 0.26318,1.6803 0.10122,4.61576 -0.38465,6.47826 z m 19.69798,-5.08139 c -3.76549,0.081 -7.77392,0.1822 -8.90762,0.24295 l -2.08519,0.12145 v 0.56685 c 0,0.32391 0.0607,0.62758 0.16196,0.66808 0.081,0.0607 4.0894,0.16196 8.90761,0.24293 l 8.74566,0.14171 v -1.05272 -1.05271 z m 19.94091,-0.40488 c -3.70476,0.081 -7.77392,0.1822 -9.00884,0.24294 l -2.28764,0.12146 v 0.97173 c 0,0.54661 0.0607,1.03248 0.16196,1.07297 0.081,0.0607 4.1299,0.16195 9.00884,0.24294 l 8.84688,0.1417 v -1.45761 -1.4576 z m 18.92868,-0.38466 c -3.21888,0.0607 -6.86291,0.16196 -8.09783,0.22269 l -2.28764,0.12147 v 1.39688 c 0,0.95149 0.081,1.43736 0.26319,1.49809 0.12146,0.0405 3.76549,0.12147 8.09783,0.20246 l 7.83465,0.12147 v -1.84227 -1.822 z m 10.52719,-2.73301 c -0.83003,-12.22773 -3.38085,-22.14758 -8.23955,-32.29011 -8.11808,-16.92447 -21.8439,-30.89323 -38.56592,-39.25424 -25.30573,-12.67311 -55.44991,-11.90381 -80.08757,2.06494 -2.89497,1.63982 -8.44199,5.40531 -11.23574,7.65246 -3.46183,2.77351 -10.24376,9.5352 -12.87555,12.83506 -6.47827,8.13832 -11.11427,16.51958 -14.35341,25.93332 -4.27161,12.47065 -5.56726,26.17624 -3.72501,39.43643 3.21889,23.03833 15.81102,43.7283 34.90166,57.3529 18.44282,13.17922 41.0965,18.32135 63.87166,14.51537 3.58329,-0.60735 9.19104,-2.04472 12.93629,-3.32012 9.41372,-3.23913 17.79498,-7.87514 25.9333,-14.3534 3.32012,-2.6318 10.0818,-9.43398 12.83507,-12.87556 2.24714,-2.814 6.05313,-8.38126 7.65245,-11.23574 6.33656,-11.19525 10.00082,-23.5242 10.89159,-36.54147 0.1822,-2.71277 0.22268,-7.77392 0.0607,-9.91984 z m -2.95571,10.87134 c -0.0607,0.0405 -1.72079,-0.10123 -3.72501,-0.32392 -15.79077,-1.84225 -30.65029,-2.81398 -45.40859,-2.9962 l -10.02107,-0.12147 v -2.99618 -3.01646 h 7.69294 c 9.81863,0 17.41034,-0.32391 29.05097,-1.21467 6.80219,-0.52636 19.02991,-1.74103 21.7022,-2.14593 l 0.74905,-0.12146 0.081,1.4981 c 0.12147,1.8625 0,11.29647 -0.12147,11.43819 z m -1.59932,-17.26863 c -6.9034,1.96372 -16.51958,3.48207 -29.31416,4.57527 -7.97636,0.66809 -13.66509,0.99199 -26.64187,1.4981 l -2.0447,0.081 -0.26318,-1.05271 c -0.14171,-0.56686 -0.30367,-1.1337 -0.34416,-1.25516 -0.0607,-0.14172 1.1337,-0.26318 3.78574,-0.34417 19.57651,-0.68831 42.33142,-3.80597 53.85059,-7.40951 0.70856,-0.22269 1.33614,-0.38466 1.37663,-0.34416 0.081,0.10123 0.60734,2.93547 0.62758,3.50232 0.0203,0.3644 -0.16196,0.48587 -1.03247,0.74905 z m 0.74905,24.19227 c -0.16196,0.93125 -0.32392,1.74103 -0.3644,1.78153 -0.0405,0.0405 -1.47786,-0.34416 -3.2189,-0.83003 -9.15055,-2.6318 -23.26102,-4.8587 -38.62666,-6.09362 -5.00041,-0.38465 -13.8068,-0.91101 -15.77053,-0.91101 -1.2754,0 -1.45761,-0.0405 -1.35638,-0.32391 0.081,-0.1822 0.22269,-0.74905 0.3644,-1.25517 l 0.22269,-0.911 4.6765,0.12147 c 13.17922,0.38464 28.74731,1.59932 39.09228,3.09742 6.7617,0.97174 15.28466,2.85449 15.28466,3.40109 0,0.12146 -0.14171,0.99198 -0.30366,1.92323 z m -3.7655,-32.1079 c -13.32093,5.64823 -33.86918,9.35299 -52.71688,9.47446 l -3.64403,0.0203 -0.38465,-0.66808 c -2.75326,-4.87894 -5.46603,-7.71318 -9.57568,-10.02106 l -1.74104,-0.97174 0.12147,-6.09362 c 0.30367,-14.98098 2.57106,-30.0227 6.33656,-42.1897 1.4576,-4.65625 3.74524,-10.54742 4.12989,-10.54742 0.081,0 1.35638,0.3644 2.85449,0.78954 14.77854,4.33234 26.78358,11.74186 37.49296,23.09906 7.81441,8.25979 14.21169,19.0704 17.83547,30.08345 0.9515,2.89497 1.72079,5.5875 1.66006,5.85068 -0.0405,0.12147 -1.09321,0.64783 -2.36862,1.17419 z m 1.01223,43.56634 c -2.2269,7.30829 -6.7212,16.27664 -11.51917,22.97759 -3.84646,5.40531 -10.264,12.167 -15.38588,16.27665 -10.42595,8.34076 -22.41075,13.92826 -35.32679,16.49933 -2.55082,0.50612 -4.83846,0.83002 -9.08982,1.31589 l -0.58709,0.0607 0.12147,-9.83887 c 0.16195,-12.26821 0.48587,-19.35381 1.37663,-30.18466 0.78954,-9.73765 2.34837,-21.6617 2.814,-21.6617 0.081,0 0.85027,-0.44538 1.6803,-1.01223 3.03668,-1.96373 6.23533,-5.48629 7.83465,-8.58371 l 0.70856,-1.37663 4.91943,0.12147 c 20.02189,0.50611 38.26226,3.88696 51.60344,9.51495 l 2.24715,0.9515 -0.38465,1.45761 c -0.22269,0.80978 -0.66807,2.36861 -1.01223,3.48207 z m -57.98047,-20.5685 c -2.12569,10.12229 -11.15477,17.08643 -21.43902,16.56007 -5.38506,-0.28343 -10.06155,-2.38886 -13.8068,-6.25558 -3.68452,-3.76549 -5.628,-8.19906 -5.89118,-13.4424 -0.74904,-14.29267 12.79458,-25.0223 26.58114,-21.01387 9.15055,2.63179 15.38588,11.29647 14.9405,20.77094 -0.0405,1.07296 -0.22269,2.5913 -0.38464,3.38084 z m -5.87094,-82.90156 c -3.42133,11.27623 -6.51875,34.17286 -7.10584,52.65617 -0.0607,2.12567 -0.14171,3.94768 -0.1822,4.0894 -0.0607,0.16195 -0.40489,0.1417 -1.29566,-0.10123 l -1.21467,-0.32391 0.081,-2.14593 c 0.0607,-1.17418 0.20244,-4.49429 0.32391,-7.38927 0.62758,-15.8515 2.0447,-30.71103 3.9072,-40.79283 0.60734,-3.23913 1.84226,-8.28004 2.12568,-8.56346 0.16196,-0.16196 2.40911,0.081 3.52256,0.38465 0.44538,0.14171 0.44538,0.22269 -0.16196,2.18641 z m -7.0856,108.93609 c -1.25516,15.12271 -1.92323,30.26565 -1.92323,43.89024 0,6.13411 -0.0607,7.83466 -0.24294,7.83466 -0.14171,0 -0.60734,0.0607 -1.01223,0.12147 l -0.76929,0.14172 v -7.06537 c 0,-13.64484 0.85027,-33.12013 2.02446,-47.14962 0.5466,-6.31631 0.42513,-5.87093 1.55883,-6.25558 0.52636,-0.1822 0.99198,-0.32391 1.03248,-0.32391 0.0607,0 0.0405,0.66807 -0.0405,1.47785 -0.081,0.78954 -0.3644,4.10965 -0.62758,7.32854 z m -1.51834,-107.3975 c -1.96373,18.15939 -2.83424,32.45207 -2.83424,46.56254 v 7.79417 h -3.01644 -2.9962 l -0.12147,-10.22352 c -0.12147,-9.94009 -0.22269,-12.45042 -0.85028,-22.16782 -0.38464,-5.83044 -1.37662,-16.66129 -2.02445,-22.35001 -0.28342,-2.38886 -0.48587,-4.37283 -0.44538,-4.39308 0.1822,-0.1822 7.36903,-0.32391 9.91984,-0.1822 l 2.9962,0.14171 -0.10122,0.5466 c -0.0607,0.28343 -0.28343,2.20666 -0.52636,4.27161 z m -2.32813,108.00484 c -0.62758,10.52718 -1.09321,29.31415 -1.11345,44.29514 v 7.02488 h -2.49008 -2.49009 l -0.0405,-12.79458 c -0.0405,-12.69336 -0.26318,-23.44323 -0.64782,-32.04717 -0.18221,-3.90721 -0.74905,-13.23996 -0.87052,-14.37366 -0.0203,-0.26317 0.0607,-0.38464 0.26317,-0.32391 0.80979,0.1822 5.70898,0.24294 6.7617,0.0607 l 1.19443,-0.18221 -0.14172,1.74103 c -0.0607,0.9515 -0.26318,3.92745 -0.42513,6.59974 z m -7.22732,51.32002 c -0.14171,0 -0.60733,-0.0607 -1.01222,-0.12147 l -0.7693,-0.14172 v -6.90339 c 0,-15.22394 -1.15394,-38.30275 -2.61155,-52.08932 -0.081,-0.80978 -0.081,-1.47785 -0.0202,-1.47785 0.081,0 0.5466,0.14171 1.05271,0.32391 1.09321,0.36441 0.99199,0 1.47786,5.54702 0.74905,8.66468 1.37663,19.55626 1.72079,29.86076 0.30367,8.92786 0.32391,9.57568 0.3644,17.77474 0.0405,5.66848 -0.0203,7.22732 -0.20245,7.22732 z m -2.06494,-104.27984 c -0.48587,0.12146 -1.01223,0.26319 -1.17419,0.32391 -0.26318,0.10122 -0.32391,-0.42514 -0.44538,-3.48207 -0.76929,-20.42678 -3.74525,-42.35166 -7.28805,-53.93156 l -0.48587,-1.57908 0.52636,-0.10122 c 1.94348,-0.38465 3.34036,-0.54661 3.48207,-0.40489 0.30367,0.30366 1.78152,6.70095 2.42935,10.40571 1.51834,8.82664 2.79375,22.04635 3.44158,35.42802 0.12147,2.51033 0.24293,5.06114 0.26318,5.66848 0.0405,0.60734 0.081,2.53057 0.10122,4.27161 l 0.0405,3.17839 z m -1.78152,103.97617 c -5.628,-0.64783 -8.88738,-1.21468 -12.81483,-2.22691 -12.95652,-3.32012 -24.73887,-9.67691 -34.96239,-18.84771 -11.51916,-10.34497 -20.20409,-24.67814 -24.23276,-39.9628 -1.07296,-4.10965 -2.12568,-10.16278 -2.28764,-13.32093 l -0.0607,-1.07297 6.27581,0.0203 c 18.78698,0.0203 41.58238,1.66006 53.91133,3.86671 l 1.27541,0.2227 1.2754,1.96372 c 1.61957,2.44959 4.1299,4.95992 6.47827,6.51876 0.99198,0.64782 1.88275,1.19443 1.96373,1.19443 0.34415,0 1.53859,8.30027 2.28764,15.99322 1.25516,12.53139 1.86249,24.59716 1.90299,38.12054 l 0.0404,7.65246 z m -2.69254,-102.33636 c -3.11766,1.51835 -6.98437,4.95992 -8.96834,7.99662 -0.56685,0.89075 -1.07296,1.68028 -1.09321,1.76127 -0.081,0.18219 -5.64824,1.07296 -10.48669,1.6803 -7.47025,0.911 -16.78276,1.63981 -26.62163,2.12568 -6.21509,0.30366 -24.25301,0.62759 -24.41497,0.46562 -0.081,-0.10122 -0.0203,-1.33614 0.14172,-2.79374 3.70476,-32.99868 26.98602,-60.53131 58.99271,-69.76283 1.4981,-0.42514 2.79375,-0.78955 2.85449,-0.78955 0.24293,0 2.2269,5.04091 3.44157,8.70518 4.33234,13.09825 6.86292,29.77978 7.02487,46.40057 l 0.0405,3.76549 z m -11.55965,13.42215 c -0.3644,1.09321 0.0405,0.97174 -5.44579,1.45761 -7.99661,0.68833 -17.77475,1.29566 -28.84853,1.74104 -7.20707,0.28342 -25.93331,0.52636 -26.05477,0.32392 -0.0405,-0.081 -0.0203,-0.54662 0.0607,-1.05273 l 0.12147,-0.911 h 7.73342 c 14.17121,0 30.81225,-0.78953 47.4938,-2.2269 2.61154,-0.24294 4.87894,-0.46563 5.02065,-0.50612 0.32391,-0.12147 0.30367,0.0405 -0.081,1.17418 z m -0.12146,15.22393 c -0.5871,-0.12147 -11.2155,-1.01223 -17.06619,-1.41712 -11.55965,-0.78954 -25.95355,-1.3159 -36.25804,-1.3159 h -6.70096 l -0.14171,-0.74905 c -0.0607,-0.42514 -0.12147,-0.89075 -0.12147,-1.05272 0,-0.52635 20.95314,-0.12146 36.54147,0.68832 8.60395,0.44538 23.30151,1.57908 23.5242,1.80176 0.10123,0.10123 0.64783,1.63981 0.64783,1.90299 0.0203,0.16196 -0.14172,0.2227 -0.42513,0.14172 z m -0.91101,-7.28805 c 0.0607,1.45761 0.16195,2.79376 0.24293,2.9962 0.14171,0.32391 0.081,0.3644 -0.52636,0.26318 -0.93125,-0.16195 -8.9481,-0.66807 -14.55585,-0.93125 -8.72542,-0.38465 -19.41456,-0.60733 -31.94596,-0.64783 l -12.61236,-0.0405 0.0607,-2.46984 0.0607,-2.4496 13.96876,-0.14171 c 18.34158,-0.16196 30.20491,-0.52636 40.16524,-1.25516 2.2674,-0.14171 4.41332,-0.28343 4.77773,-0.28343 h 0.64782 l -0.1822,1.17419 c -0.12147,0.62758 -0.16196,2.34837 -0.10122,3.78574 z"
       inkscape:connector-curvature="0" />
    <path
       style="opacity:1;fill:none;fill-opacity:1;fill-rule:nonzero;stroke:#000000;stroke-width:1.5;stroke-linecap:round;stroke-linejoin:round;stroke-miterlimit:4;stroke-dasharray:none;stroke-dashoffset:0;stroke-opacity:1;paint-order:markers stroke fill"
       id="path972"
       sodipodi:type="arc"
       sodipodi:cx="-628"
       sodipodi:cy="-525"
       sodipodi:rx="43.25"
       sodipodi:ry="43.25"
       sodipodi:start="5.2708943"
       sodipodi:end="5.7246799"
       d="m -605.08099,-561.67808 a 43.25,43.25 0 0 1 13.75907,13.75907"
       sodipodi:open="true"
       transform="rotate(90)" />
    <path
       id="circle974"
       style="opacity:1;fill:none;fill-opacity:1;fill-rule:nonzero;stroke:#000000;stroke-width:1.5;stroke-linecap:round;stroke-linejoin:round;stroke-miterlimit:4;stroke-dasharray:none;stroke-dashoffset:0;stroke-opacity:1;paint-order:markers stroke fill"
       sodipodi:type="arc"
       sodipodi:cx="-628"
       sodipodi:cy="-525"
       sodipodi:rx="64.25"
       sodipodi:ry="64.25"
       sodipodi:start="5.2708943"
       sodipodi:end="5.7246799"
       d="m -593.95269,-579.48709 a 64.25,64.25 0 0 1 20.43978,20.43977"
       sodipodi:open="true"
       transform="rotate(90)" />
    <path
       sodipodi:open="true"
       d="m -664.67808,-547.91901 a 43.25,43.25 0 0 1 13.75907,-13.75907"
       sodipodi:end="4.1538836"
       sodipodi:start="3.700098"
       sodipodi:ry="43.25"
       sodipodi:rx="43.25"
       sodipodi:cy="-525"
       sodipodi:cx="-628"
       sodipodi:type="arc"
       id="path1019"
       style="opacity:1;fill:none;fill-opacity:1;fill-rule:nonzero;stroke:#000000;stroke-width:1.5;stroke-linecap:round;stroke-linejoin:round;stroke-miterlimit:4;stroke-dasharray:none;stroke-dashoffset:0;stroke-opacity:1;paint-order:markers stroke fill"
       transform="rotate(90)" />
    <path
       sodipodi:open="true"
       d="m -682.48709,-559.04731 a 64.25,64.25 0 0 1 20.43978,-20.43978"
       sodipodi:end="4.1538836"
       sodipodi:start="3.700098"
       sodipodi:ry="64.25"
       sodipodi:rx="64.25"
       sodipodi:cy="-525"
       sodipodi:cx="-628"
       sodipodi:type="arc"
       style="opacity:1;fill:none;fill-opacity:1;fill-rule:nonzero;stroke:#000000;stroke-width:1.5;stroke-linecap:round;stroke-linejoin:round;stroke-miterlimit:4;stroke-dasharray:none;stroke-dashoffset:0;stroke-opacity:1;paint-order:markers stroke fill"
       id="path1021"
       transform="rotate(90)" />
    <path
       style="opacity:1;fill:none;fill-opacity:1;fill-rule:nonzero;stroke:#000000;stroke-width:1.5;stroke-linecap:round;stroke-linejoin:round;stroke-miterlimit:4;stroke-dasharray:none;stroke-dashoffset:0;stroke-opacity:1;paint-order:markers stroke fill"
       id="path1023"
       sodipodi:type="arc"
       sodipodi:cx="-628"
       sodipodi:cy="-525"
       sodipodi:rx="43.25"
       sodipodi:ry="43.25"
       sodipodi:start="2.1293017"
       sodipodi:end="2.5830873"
       d="m -650.91901,-488.32192 a 43.25,43.25 0 0 1 -13.75907,-13.75907"
       sodipodi:open="true"
       transform="rotate(90)" />
    <path
       id="path1025"
       style="opacity:1;fill:none;fill-opacity:1;fill-rule:nonzero;stroke:#000000;stroke-width:1.5;stroke-linecap:round;stroke-linejoin:round;stroke-miterlimit:4;stroke-dasharray:none;stroke-dashoffset:0;stroke-opacity:1;paint-order:markers stroke fill"
       sodipodi:type="arc"
       sodipodi:cx="-628"
       sodipodi:cy="-525"
       sodipodi:rx="64.25"
       sodipodi:ry="64.25"
       sodipodi:start="2.1293017"
       sodipodi:end="2.5830873"
       d="m -662.04731,-470.51291 a 64.25,64.25 0 0 1 -20.43978,-20.43978"
       sodipodi:open="true"
       transform="rotate(90)" />
    <path
       sodipodi:open="true"
       d="m -591.32192,-502.08099 a 43.25,43.25 0 0 1 -13.75907,13.75907"
       sodipodi:end="1.012291"
       sodipodi:start="0.55850536"
       sodipodi:ry="43.25"
       sodipodi:rx="43.25"
       sodipodi:cy="-525"
       sodipodi:cx="-628"
       sodipodi:type="arc"
       id="path1027"
       style="opacity:1;fill:none;fill-opacity:1;fill-rule:nonzero;stroke:#000000;stroke-width:1.5;stroke-linecap:round;stroke-linejoin:round;stroke-miterlimit:4;stroke-dasharray:none;stroke-dashoffset:0;stroke-opacity:1;paint-order:markers stroke fill"
       transform="rotate(90)" />
    <path
       sodipodi:open="true"
       d="m -573.51291,-490.95269 a 64.25,64.25 0 0 1 -20.43978,20.43978"
       sodipodi:end="1.012291"
       sodipodi:start="0.55850536"
       sodipodi:ry="64.25"
       sodipodi:rx="64.25"
       sodipodi:cy="-525"
       sodipodi:cx="-628"
       sodipodi:type="arc"
       style="opacity:1;fill:none;fill-opacity:1;fill-rule:nonzero;stroke:#000000;stroke-width:1.5;stroke-linecap:round;stroke-linejoin:round;stroke-miterlimit:4;stroke-dasharray:none;stroke-dashoffset:0;stroke-opacity:1;paint-order:markers stroke fill"
       id="path1029"
       transform="rotate(90)" />
    <g
       aria-label="30"
       transform="matrix(0.91034354,0,0,1.0984864,429.99996,-400.00001)"
       style="font-style:normal;font-variant:normal;font-weight:bold;font-stretch:normal;font-size:16.7291317px;line-height:1000;font-family:'Tlwg Typewriter';-inkscape-font-specification:'Tlwg Typewriter Bold';letter-spacing:0px;word-spacing:0px;fill:#000000;fill-opacity:1;stroke:none;stroke-width:0.26458332"
       id="text1083">
      <path
         inkscape:connector-curvature="0"
         d="m 96.404775,-204.35469 q 0.200749,0 0.36804,0.10037 0.167292,0.0837 0.301125,0.20075 0.150562,0.10037 0.635707,0.20075 0.485145,0.0837 1.237956,0.0837 1.288147,0 1.990767,-0.36805 0.70262,-0.36804 0.70262,-1.27141 0,-0.75281 -0.75281,-1.23796 -0.75281,-0.50187 -1.806744,-0.50187 -0.4015,0 -0.635707,-0.20075 -0.234208,-0.21748 -0.234208,-0.56879 0,-0.36804 0.234208,-0.60225 0.250937,-0.23421 0.635707,-0.23421 2.191514,0 2.191514,-1.3216 0,-0.58552 -0.50187,-0.9201 -0.50188,-0.35131 -1.371791,-0.35131 -0.652436,0 -1.087393,0.16729 -0.418229,0.15056 -0.58552,0.35131 -0.150562,0.18402 -0.368041,0.35131 -0.20075,0.15057 -0.485145,0.15057 -0.334582,0 -0.585519,-0.25094 -0.234208,-0.25094 -0.234208,-0.58552 0,-0.71935 1.053935,-1.28814 1.053935,-0.56879 2.392266,-0.56879 0.903376,0 1.589266,0.28439 0.70262,0.2844 1.08739,0.73608 0.38477,0.45169 0.5688,0.93683 0.20075,0.48515 0.20075,0.95356 0,0.6859 -0.35132,1.2045 -0.35131,0.50188 -1.17104,0.98702 1.8904,0.9201 1.8904,2.5261 0,1.606 -1.18777,2.45918 -1.17104,0.83646 -3.12835,0.83646 -1.53908,0 -2.492641,-0.38477 -0.936831,-0.4015 -0.936831,-1.03721 0,-0.35131 0.234208,-0.58552 0.250937,-0.25093 0.602249,-0.25093 z"
         style="font-style:normal;font-variant:normal;font-weight:bold;font-stretch:normal;font-family:'Tlwg Typewriter';-inkscape-font-specification:'Tlwg Typewriter Bold';letter-spacing:0px;stroke-width:0.26458332"
         id="path106" />
      <path
         inkscape:connector-curvature="0"
         d="m 109.51388,-213.02038 q 1.77329,0 2.69339,1.37178 0.93683,1.35506 0.93683,3.29564 v 1.58927 q 0,1.25469 -0.38477,2.29189 -0.36804,1.02048 -1.22123,1.70637 -0.83645,0.66917 -2.02422,0.66917 -1.77329,0 -2.71012,-1.35506 -0.9201,-1.37179 -0.9201,-3.31237 v -1.58927 q 0,-1.25468 0.36804,-2.27516 0.38477,-1.0372 1.22122,-1.70637 0.85319,-0.68589 2.04096,-0.68589 z m -1.95731,4.55032 v 1.82347 q 0,1.30488 0.53533,2.09115 0.53533,0.78627 1.42198,0.78627 0.88664,0 1.42197,-0.78627 0.53534,-0.78627 0.53534,-2.09115 v -1.82347 q 0,-1.30487 -0.53534,-2.09114 -0.53533,-0.78627 -1.42197,-0.78627 -0.88665,0 -1.42198,0.78627 -0.53533,0.78627 -0.53533,2.09114 z"
         style="font-style:normal;font-variant:normal;font-weight:bold;font-stretch:normal;font-family:'Tlwg Typewriter';-inkscape-font-specification:'Tlwg Typewriter Bold';letter-spacing:0px;stroke-width:0.26458332"
         id="path108" />
    </g>
    <rect
       style="opacity:1;fill:#ffffff;fill-opacity:1;fill-rule:nonzero;stroke:none;stroke-width:1.5;stroke-linecap:round;stroke-linejoin:round;stroke-miterlimit:4;stroke-dasharray:none;stroke-dashoffset:0;stroke-opacity:1;paint-order:markers stroke fill"
       id="rect1139"
       width="18"
       height="12"
       x="-81.831955"
       y="-779.15497"
       transform="rotate(45)" />
    <g
       aria-label="30"
       transform="matrix(0.64371011,0.64371011,-0.77674719,0.77674719,297.00001,-722.99999)"
       style="font-style:normal;font-variant:normal;font-weight:bold;font-stretch:normal;font-size:16.7291317px;line-height:1000;font-family:'Tlwg Typewriter';-inkscape-font-specification:'Tlwg Typewriter Bold';letter-spacing:0px;word-spacing:0px;fill:#000000;fill-opacity:1;stroke:none;stroke-width:0.26458332"
       id="text1143">
      <path
         inkscape:connector-curvature="0"
         d="m 242.93791,-44.04874 q 0.20075,0 0.36804,0.100374 0.16729,0.08365 0.30112,0.20075 0.15057,0.100375 0.63571,0.20075 0.48515,0.08365 1.23796,0.08365 1.28814,0 1.99076,-0.368041 0.70263,-0.36804 0.70263,-1.271414 0,-0.752811 -0.75281,-1.237955 -0.75281,-0.501874 -1.80675,-0.501874 -0.4015,0 -0.63571,-0.20075 -0.2342,-0.217479 -0.2342,-0.56879 0,-0.368041 0.2342,-0.602249 0.25094,-0.234208 0.63571,-0.234208 2.19152,0 2.19152,-1.321601 0,-0.58552 -0.50188,-0.920103 -0.50187,-0.351311 -1.37179,-0.351311 -0.65243,0 -1.08739,0.167291 -0.41823,0.150562 -0.58552,0.351312 -0.15056,0.18402 -0.36804,0.351311 -0.20075,0.150563 -0.48515,0.150563 -0.33458,0 -0.58551,-0.250937 -0.23421,-0.250937 -0.23421,-0.58552 0,-0.719353 1.05393,-1.288143 1.05394,-0.568791 2.39227,-0.568791 0.90337,0 1.58927,0.284396 0.70262,0.284395 1.08739,0.736082 0.38477,0.451686 0.56879,0.936831 0.20075,0.485145 0.20075,0.95356 0,0.685895 -0.35131,1.204498 -0.35131,0.501874 -1.17104,0.987019 1.89039,0.920102 1.89039,2.526099 0,1.605996 -1.18777,2.459182 -1.17104,0.836456 -3.12835,0.836456 -1.53908,0 -2.49264,-0.38477 -0.93683,-0.401499 -0.93683,-1.037206 0,-0.351311 0.23421,-0.585519 0.25094,-0.250937 0.60225,-0.250937 z"
         style="font-style:normal;font-variant:normal;font-weight:bold;font-stretch:normal;font-family:'Tlwg Typewriter';-inkscape-font-specification:'Tlwg Typewriter Bold';letter-spacing:0px;stroke-width:0.26458332"
         id="path111" />
      <path
         inkscape:connector-curvature="0"
         d="m 256.04701,-52.714431 q 1.77329,0 2.69339,1.371789 0.93683,1.35506 0.93683,3.295639 v 1.589268 q 0,1.254685 -0.38477,2.291891 -0.36804,1.020477 -1.22122,1.706371 -0.83646,0.669165 -2.02423,0.669165 -1.77328,0 -2.71012,-1.355059 -0.9201,-1.371789 -0.9201,-3.312368 v -1.589268 q 0,-1.254685 0.36804,-2.275162 0.38477,-1.037206 1.22123,-1.706371 0.85318,-0.685895 2.04095,-0.685895 z m -1.95731,4.550324 v 1.823476 q 0,1.304872 0.53534,2.091141 0.53533,0.786269 1.42197,0.786269 0.88665,0 1.42198,-0.786269 0.53533,-0.786269 0.53533,-2.091141 v -1.823476 q 0,-1.304872 -0.53533,-2.091141 -0.53533,-0.786269 -1.42198,-0.786269 -0.88664,0 -1.42197,0.786269 -0.53534,0.786269 -0.53534,2.091141 z"
         style="font-style:normal;font-variant:normal;font-weight:bold;font-stretch:normal;font-family:'Tlwg Typewriter';-inkscape-font-specification:'Tlwg Typewriter Bold';letter-spacing:0px;stroke-width:0.26458332"
         id="path113" />
    </g>
    <rect
       y="-758.69324"
       x="-81.832016"
       height="12"
       width="18"
       id="rect1150"
       style="opacity:1;fill:#ffffff;fill-opacity:1;fill-rule:nonzero;stroke:none;stroke-width:1.5;stroke-linecap:round;stroke-linejoin:round;stroke-miterlimit:4;stroke-dasharray:none;stroke-dashoffset:0;stroke-opacity:1;paint-order:markers stroke fill"
       transform="rotate(45)" />
    <g
       aria-label="35"
       transform="matrix(0.64371011,0.64371011,-0.77674719,0.77674719,297.00001,-722.99999)"
       style="font-style:normal;font-variant:normal;font-weight:bold;font-stretch:normal;font-size:16.7291317px;line-height:1000;font-family:'Tlwg Typewriter';-inkscape-font-specification:'Tlwg Typewriter Bold';letter-spacing:0px;word-spacing:0px;fill:#000000;fill-opacity:1;stroke:none;stroke-width:0.26458332"
       id="text1154">
      <path
         inkscape:connector-curvature="0"
         d="m 242.93789,-25.421488 q 0.20075,0 0.36804,0.100375 0.1673,0.08365 0.30113,0.20075 0.15056,0.100374 0.63571,0.200749 0.48514,0.08365 1.23795,0.08365 1.28814,0 1.99077,-0.368041 0.70262,-0.368041 0.70262,-1.271414 0,-0.752811 -0.75281,-1.237956 -0.75281,-0.501874 -1.80675,-0.501874 -0.40149,0 -0.6357,-0.200749 -0.23421,-0.217479 -0.23421,-0.568791 0,-0.368041 0.23421,-0.602249 0.25093,-0.234207 0.6357,-0.234207 2.19152,0 2.19152,-1.321602 0,-0.585519 -0.50187,-0.920102 -0.50188,-0.351312 -1.37179,-0.351312 -0.65244,0 -1.0874,0.167292 -0.41822,0.150562 -0.58551,0.351311 -0.15057,0.184021 -0.36805,0.351312 -0.20075,0.150562 -0.48514,0.150562 -0.33458,0 -0.58552,-0.250937 -0.23421,-0.250937 -0.23421,-0.585519 0,-0.719353 1.05394,-1.288143 1.05393,-0.568791 2.39226,-0.568791 0.90338,0 1.58927,0.284395 0.70262,0.284396 1.08739,0.736082 0.38477,0.451687 0.56879,0.936831 0.20075,0.485145 0.20075,0.953561 0,0.685894 -0.35131,1.204497 -0.35131,0.501874 -1.17104,0.987019 1.8904,0.920102 1.8904,2.526099 0,1.605997 -1.18777,2.459182 -1.17104,0.836457 -3.12835,0.836457 -1.53908,0 -2.49264,-0.38477 -0.93683,-0.401499 -0.93683,-1.037206 0,-0.351312 0.2342,-0.58552 0.25094,-0.250937 0.60225,-0.250937 z"
         style="font-style:normal;font-variant:normal;font-weight:bold;font-stretch:normal;font-family:'Tlwg Typewriter';-inkscape-font-specification:'Tlwg Typewriter Bold';letter-spacing:0px;stroke-width:0.26458332"
         id="path116" />
      <path
         inkscape:connector-curvature="0"
         d="m 256.33139,-28.834231 q -0.68589,0 -1.52235,0.351312 -0.83645,0.351312 -0.95356,0.351312 -0.36804,0 -0.60225,-0.267666 -0.23421,-0.267666 -0.23421,-0.669165 v -4.751074 h 5.0522 q 1.10413,0 1.10413,0.836457 0,0.836456 -1.10413,0.836456 h -3.37928 v 1.92385 q 0.93683,-0.284395 1.65618,-0.284395 1.52235,0 2.5261,1.053936 1.00375,1.053935 1.00375,2.659931 0,1.773288 -1.12085,2.71012 -1.12085,0.920102 -3.07816,0.920102 -1.50562,0 -2.5261,-0.468416 -1.02048,-0.485144 -1.02048,-1.187768 0,-0.334583 0.25094,-0.56879 0.25093,-0.250937 0.58552,-0.250937 0.25093,0 0.43496,0.133833 0.20074,0.117104 0.35131,0.267666 0.15056,0.150562 0.6357,0.284395 0.50188,0.117104 1.27142,0.117104 1.30487,0 1.92385,-0.468416 0.61898,-0.485145 0.61898,-1.472163 0,-0.920103 -0.51861,-1.488893 -0.5186,-0.568791 -1.35506,-0.568791 z"
         style="font-style:normal;font-variant:normal;font-weight:bold;font-stretch:normal;font-family:'Tlwg Typewriter';-inkscape-font-specification:'Tlwg Typewriter Bold';letter-spacing:0px;stroke-width:0.26458332"
         id="path118" />
    </g>
    <rect
       style="opacity:1;fill:#ffffff;fill-opacity:1;fill-rule:nonzero;stroke:none;stroke-width:1.5;stroke-linecap:round;stroke-linejoin:round;stroke-miterlimit:4;stroke-dasharray:none;stroke-dashoffset:0;stroke-opacity:1;paint-order:markers stroke fill"
       id="rect1158"
       width="18"
       height="12"
       x="-81.831955"
       y="-863.43323"
       transform="rotate(45)" />
    <g
       aria-label="25"
       transform="matrix(0.64371011,0.64371011,-0.77674719,0.77674719,297.00001,-722.99999)"
       style="font-style:normal;font-variant:normal;font-weight:bold;font-stretch:normal;font-size:16.7291317px;line-height:1000;font-family:'Tlwg Typewriter';-inkscape-font-specification:'Tlwg Typewriter Bold';letter-spacing:0px;word-spacing:0px;fill:#000000;fill-opacity:1;stroke:none;stroke-width:0.26458332"
       id="text1162">
      <path
         inkscape:connector-curvature="0"
         d="m 249.41208,-126.19112 q 0,1.08739 -0.78627,1.9573 -0.76954,0.86992 -4.16555,3.79752 h 3.36256 q 0.0669,-0.90338 0.83645,-0.90338 0.83646,0 0.83646,1.10413 v 1.47216 h -7.59503 v -1.75656 q 2.71012,-2.2417 3.86443,-3.26218 1.15431,-1.02048 1.55581,-1.53908 0.41823,-0.5186 0.41823,-0.93683 0,-0.63571 -0.55206,-1.07067 -0.55206,-0.43495 -1.37179,-0.43495 -1.03721,0 -1.62273,0.68589 -0.15056,0.18402 -0.28439,0.53533 -0.11711,0.35132 -0.2844,0.53534 -0.16729,0.18402 -0.55206,0.18402 -0.33458,0 -0.58552,-0.23421 -0.25093,-0.25094 -0.25093,-0.56879 0,-0.35131 0.21747,-0.803 0.21748,-0.45169 0.63571,-0.90337 0.41823,-0.46842 1.13758,-0.78627 0.73608,-0.31786 1.62273,-0.31786 1.52235,0 2.54283,0.93684 1.02047,0.9201 1.02047,2.30862 z"
         style="font-style:normal;font-variant:normal;font-weight:bold;font-stretch:normal;font-family:'Tlwg Typewriter';-inkscape-font-specification:'Tlwg Typewriter Bold';letter-spacing:0px;stroke-width:0.26458332"
         id="path101" />
      <path
         inkscape:connector-curvature="0"
         d="m 256.33141,-124.18363 q -0.6859,0 -1.52235,0.35131 -0.83646,0.35132 -0.95356,0.35132 -0.36804,0 -0.60225,-0.26767 -0.23421,-0.26767 -0.23421,-0.66917 v -4.75107 h 5.0522 q 1.10412,0 1.10412,0.83646 0,0.83645 -1.10412,0.83645 h -3.37929 v 1.92385 q 0.93683,-0.28439 1.65619,-0.28439 1.52235,0 2.5261,1.05393 1.00374,1.05394 1.00374,2.65994 0,1.77328 -1.12085,2.71012 -1.12085,0.9201 -3.07816,0.9201 -1.50562,0 -2.5261,-0.46842 -1.02047,-0.48514 -1.02047,-1.18777 0,-0.33458 0.25093,-0.56879 0.25094,-0.25093 0.58552,-0.25093 0.25094,0 0.43496,0.13383 0.20075,0.1171 0.35131,0.26767 0.15056,0.15056 0.63571,0.28439 0.50187,0.1171 1.27141,0.1171 1.30488,0 1.92385,-0.46841 0.61898,-0.48515 0.61898,-1.47217 0,-0.9201 -0.5186,-1.48889 -0.51861,-0.56879 -1.35506,-0.56879 z"
         style="font-style:normal;font-variant:normal;font-weight:bold;font-stretch:normal;font-family:'Tlwg Typewriter';-inkscape-font-specification:'Tlwg Typewriter Bold';letter-spacing:0px;stroke-width:0.26458332"
         id="path103" />
    </g>
    <rect
       y="-883.89496"
       x="-81.832016"
       height="12"
       width="18"
       id="rect1174"
       style="opacity:1;fill:#ffffff;fill-opacity:1;fill-rule:nonzero;stroke:none;stroke-width:1.5;stroke-linecap:round;stroke-linejoin:round;stroke-miterlimit:4;stroke-dasharray:none;stroke-dashoffset:0;stroke-opacity:1;paint-order:markers stroke fill"
       transform="rotate(45)" />
    <g
       aria-label="20"
       transform="matrix(0.64371011,0.64371011,-0.77674719,0.77674719,297.00001,-722.99999)"
       style="font-style:normal;font-variant:normal;font-weight:bold;font-stretch:normal;font-size:16.7291317px;line-height:1000;font-family:'Tlwg Typewriter';-inkscape-font-specification:'Tlwg Typewriter Bold';letter-spacing:0px;word-spacing:0px;fill:#000000;fill-opacity:1;stroke:none;stroke-width:0.26458332"
       id="text1178">
      <path
         inkscape:connector-curvature="0"
         d="m 249.41207,-144.81836 q 0,1.08739 -0.78627,1.95731 -0.76954,0.86991 -4.16556,3.79751 h 3.36256 q 0.0669,-0.90337 0.83646,-0.90337 0.83645,0 0.83645,1.10412 v 1.47217 h -7.59502 v -1.75656 q 2.71012,-2.24171 3.86443,-3.26218 1.15431,-1.02048 1.55581,-1.53908 0.41822,-0.51861 0.41822,-0.93684 0,-0.6357 -0.55206,-1.07066 -0.55206,-0.43496 -1.37179,-0.43496 -1.0372,0 -1.62272,0.6859 -0.15056,0.18402 -0.2844,0.53533 -0.1171,0.35131 -0.28439,0.53533 -0.16729,0.18402 -0.55206,0.18402 -0.33459,0 -0.58552,-0.23421 -0.25094,-0.25093 -0.25094,-0.56879 0,-0.35131 0.21748,-0.803 0.21748,-0.45168 0.63571,-0.90337 0.41822,-0.46841 1.13758,-0.78627 0.73608,-0.31785 1.62272,-0.31785 1.52235,0 2.54283,0.93683 1.02048,0.9201 1.02048,2.30862 z"
         style="font-style:normal;font-variant:normal;font-weight:bold;font-stretch:normal;font-family:'Tlwg Typewriter';-inkscape-font-specification:'Tlwg Typewriter Bold';letter-spacing:0px;stroke-width:0.26458332"
         id="path96" />
      <path
         inkscape:connector-curvature="0"
         d="m 256.047,-148.06381 q 1.77329,0 2.69339,1.37179 0.93683,1.35506 0.93683,3.29564 v 1.58926 q 0,1.25469 -0.38477,2.2919 -0.36804,1.02047 -1.22123,1.70637 -0.83645,0.66916 -2.02422,0.66916 -1.77329,0 -2.71012,-1.35506 -0.9201,-1.37179 -0.9201,-3.31237 v -1.58926 q 0,-1.25469 0.36804,-2.27517 0.38477,-1.0372 1.22122,-1.70637 0.85319,-0.68589 2.04096,-0.68589 z m -1.95731,4.55032 v 1.82348 q 0,1.30487 0.53533,2.09114 0.53533,0.78627 1.42198,0.78627 0.88664,0 1.42197,-0.78627 0.53534,-0.78627 0.53534,-2.09114 v -1.82348 q 0,-1.30487 -0.53534,-2.09114 -0.53533,-0.78627 -1.42197,-0.78627 -0.88665,0 -1.42198,0.78627 -0.53533,0.78627 -0.53533,2.09114 z"
         style="font-style:normal;font-variant:normal;font-weight:bold;font-stretch:normal;font-family:'Tlwg Typewriter';-inkscape-font-specification:'Tlwg Typewriter Bold';letter-spacing:0px;stroke-width:0.26458332"
         id="path98" />
    </g>
    <use
       x="0"
       y="0"
       xlink:href="#path17"
       id="use850"
       transform="translate(-430.00001)"
       width="100%"
       height="100%" />
    <use
       x="0"
       y="0"
       xlink:href="#path354"
       id="use853"
       transform="rotate(-90,309.99992,-412.99989)"
       width="100%"
       height="100%" />
    <path
       sodipodi:open="true"
       d="m -605.08099,-131.67792 a 43.25,43.25 0 0 1 13.75907,13.75907"
       sodipodi:end="5.7246799"
       sodipodi:start="5.2708943"
       sodipodi:ry="43.25"
       sodipodi:rx="43.25"
       sodipodi:cy="-94.99984"
       sodipodi:cx="-628"
       sodipodi:type="arc"
       id="path855"
       style="opacity:1;fill:none;fill-opacity:1;fill-rule:nonzero;stroke:#000000;stroke-width:1.5;stroke-linecap:round;stroke-linejoin:round;stroke-miterlimit:4;stroke-dasharray:none;stroke-dashoffset:0;stroke-opacity:1;paint-order:markers stroke fill"
       transform="rotate(90)" />
    <path
       sodipodi:open="true"
       d="m -593.95269,-149.48687 a 64.25,64.25 0 0 1 20.43978,20.43978"
       sodipodi:end="5.7246799"
       sodipodi:start="5.2708943"
       sodipodi:ry="64.25"
       sodipodi:rx="64.25"
       sodipodi:cy="-94.999779"
       sodipodi:cx="-628"
       sodipodi:type="arc"
       style="opacity:1;fill:none;fill-opacity:1;fill-rule:nonzero;stroke:#000000;stroke-width:1.5;stroke-linecap:round;stroke-linejoin:round;stroke-miterlimit:4;stroke-dasharray:none;stroke-dashoffset:0;stroke-opacity:1;paint-order:markers stroke fill"
       id="path857"
       transform="rotate(90)" />
    <path
       sodipodi:open="true"
       d="m -650.91901,-58.32176 a 43.25,43.25 0 0 1 -13.75907,-13.759072"
       sodipodi:end="2.5830873"
       sodipodi:start="2.1293017"
       sodipodi:ry="43.25"
       sodipodi:rx="43.25"
       sodipodi:cy="-94.99984"
       sodipodi:cx="-628"
       sodipodi:type="arc"
       id="path859"
       style="opacity:1;fill:none;fill-opacity:1;fill-rule:nonzero;stroke:#000000;stroke-width:1.5;stroke-linecap:round;stroke-linejoin:round;stroke-miterlimit:4;stroke-dasharray:none;stroke-dashoffset:0;stroke-opacity:1;paint-order:markers stroke fill"
       transform="rotate(90)" />
    <path
       sodipodi:open="true"
       d="m -662.04731,-40.512689 a 64.25,64.25 0 0 1 -20.43978,-20.439777"
       sodipodi:end="2.5830873"
       sodipodi:start="2.1293017"
       sodipodi:ry="64.25"
       sodipodi:rx="64.25"
       sodipodi:cy="-94.999779"
       sodipodi:cx="-628"
       sodipodi:type="arc"
       style="opacity:1;fill:none;fill-opacity:1;fill-rule:nonzero;stroke:#000000;stroke-width:1.5;stroke-linecap:round;stroke-linejoin:round;stroke-miterlimit:4;stroke-dasharray:none;stroke-dashoffset:0;stroke-opacity:1;paint-order:markers stroke fill"
       id="path861"
       transform="rotate(90)" />
    <path
       style="opacity:1;fill:none;fill-opacity:1;fill-rule:nonzero;stroke:#000000;stroke-width:1.5;stroke-linecap:round;stroke-linejoin:round;stroke-miterlimit:4;stroke-dasharray:none;stroke-dashoffset:0;stroke-opacity:1;paint-order:markers stroke fill"
       id="path863"
       sodipodi:type="arc"
       sodipodi:cx="-628"
       sodipodi:cy="-94.99984"
       sodipodi:rx="43.25"
       sodipodi:ry="43.25"
       sodipodi:start="3.700098"
       sodipodi:end="4.1538836"
       d="m -664.67808,-117.91885 a 43.25,43.25 0 0 1 13.75907,-13.75907"
       sodipodi:open="true"
       transform="rotate(90)" />
    <path
       id="path865"
       style="opacity:1;fill:none;fill-opacity:1;fill-rule:nonzero;stroke:#000000;stroke-width:1.5;stroke-linecap:round;stroke-linejoin:round;stroke-miterlimit:4;stroke-dasharray:none;stroke-dashoffset:0;stroke-opacity:1;paint-order:markers stroke fill"
       sodipodi:type="arc"
       sodipodi:cx="-628"
       sodipodi:cy="-94.999779"
       sodipodi:rx="64.25"
       sodipodi:ry="64.25"
       sodipodi:start="3.700098"
       sodipodi:end="4.1538836"
       d="m -682.48709,-129.04709 a 64.25,64.25 0 0 1 20.43978,-20.43978"
       sodipodi:open="true"
       transform="rotate(90)" />
    <path
       style="opacity:1;fill:none;fill-opacity:1;fill-rule:nonzero;stroke:#000000;stroke-width:1.5;stroke-linecap:round;stroke-linejoin:round;stroke-miterlimit:4;stroke-dasharray:none;stroke-dashoffset:0;stroke-opacity:1;paint-order:markers stroke fill"
       id="path867"
       sodipodi:type="arc"
       sodipodi:cx="-628"
       sodipodi:cy="-94.99984"
       sodipodi:rx="43.25"
       sodipodi:ry="43.25"
       sodipodi:start="0.55850536"
       sodipodi:end="1.012291"
       d="m -591.32192,-72.080832 a 43.25,43.25 0 0 1 -13.75907,13.759073"
       sodipodi:open="true"
       transform="rotate(90)" />
    <path
       id="path869"
       style="opacity:1;fill:none;fill-opacity:1;fill-rule:nonzero;stroke:#000000;stroke-width:1.5;stroke-linecap:round;stroke-linejoin:round;stroke-miterlimit:4;stroke-dasharray:none;stroke-dashoffset:0;stroke-opacity:1;paint-order:markers stroke fill"
       sodipodi:type="arc"
       sodipodi:cx="-628"
       sodipodi:cy="-94.999779"
       sodipodi:rx="64.25"
       sodipodi:ry="64.25"
       sodipodi:start="0.55850536"
       sodipodi:end="1.012291"
       d="m -573.51291,-60.952466 a 64.25,64.25 0 0 1 -20.43978,20.439779"
       sodipodi:open="true"
       transform="rotate(90)" />
    <use
       x="0"
       y="0"
       xlink:href="#text1083"
       id="use928"
       transform="translate(-429.99999)"
       width="100%"
       height="100%" />
    <rect
       y="328.7489"
       x="-520.23804"
       height="12"
       width="18"
       id="rect1053"
       style="opacity:1;fill:#ffffff;fill-opacity:1;fill-rule:nonzero;stroke:none;stroke-width:1.5;stroke-linecap:round;stroke-linejoin:round;stroke-miterlimit:4;stroke-dasharray:none;stroke-dashoffset:0;stroke-opacity:1;paint-order:markers stroke fill"
       transform="rotate(135)" />
    <g
       aria-label="30"
       transform="matrix(0.64371011,-0.64371011,0.77674719,0.77674719,-47.215726,-474.14223)"
       style="font-style:normal;font-variant:normal;font-weight:bold;font-stretch:normal;font-size:16.7291317px;line-height:1000;font-family:'Tlwg Typewriter';-inkscape-font-specification:'Tlwg Typewriter Bold';letter-spacing:0px;word-spacing:0px;fill:#000000;fill-opacity:1;stroke:none;stroke-width:0.26458332"
       id="text1057">
      <path
         inkscape:connector-curvature="0"
         d="m 222.74263,33.719666 q 0.20075,0 0.36804,0.100374 0.16729,0.08365 0.30112,0.20075 0.15056,0.100375 0.63571,0.20075 0.48514,0.08365 1.23796,0.08365 1.28814,0 1.99076,-0.368041 0.70263,-0.368041 0.70263,-1.271414 0,-0.752811 -0.75282,-1.237955 -0.75281,-0.501874 -1.80674,-0.501874 -0.4015,0 -0.63571,-0.20075 -0.23421,-0.217479 -0.23421,-0.56879 0,-0.368041 0.23421,-0.602249 0.25094,-0.234208 0.63571,-0.234208 2.19151,0 2.19151,-1.321601 0,-0.58552 -0.50187,-0.920103 -0.50187,-0.351311 -1.37179,-0.351311 -0.65243,0 -1.08739,0.167291 -0.41823,0.150562 -0.58552,0.351312 -0.15056,0.18402 -0.36804,0.351311 -0.20075,0.150563 -0.48515,0.150563 -0.33458,0 -0.58552,-0.250937 -0.2342,-0.250937 -0.2342,-0.58552 0,-0.719353 1.05393,-1.288143 1.05394,-0.568791 2.39227,-0.568791 0.90337,0 1.58926,0.284396 0.70263,0.284395 1.0874,0.736081 0.38477,0.451687 0.56879,0.936832 0.20075,0.485145 0.20075,0.95356 0,0.685895 -0.35131,1.204498 -0.35132,0.501874 -1.17104,0.987019 1.89039,0.920102 1.89039,2.526098 0,1.605997 -1.18777,2.459183 -1.17104,0.836456 -3.12835,0.836456 -1.53908,0 -2.49264,-0.38477 -0.93683,-0.401499 -0.93683,-1.037206 0,-0.351312 0.23421,-0.585519 0.25094,-0.250937 0.60225,-0.250937 z"
         style="font-style:normal;font-variant:normal;font-weight:bold;font-stretch:normal;font-family:'Tlwg Typewriter';-inkscape-font-specification:'Tlwg Typewriter Bold';letter-spacing:0px;stroke-width:0.26458332"
         id="path126" />
      <path
         inkscape:connector-curvature="0"
         d="m 235.85173,25.053975 q 1.77329,0 2.69339,1.371789 0.93683,1.35506 0.93683,3.295639 v 1.589268 q 0,1.254685 -0.38477,2.291891 -0.36804,1.020477 -1.22122,1.706371 -0.83646,0.669165 -2.02423,0.669165 -1.77329,0 -2.71012,-1.355059 -0.9201,-1.371789 -0.9201,-3.312368 v -1.589268 q 0,-1.254685 0.36804,-2.275162 0.38477,-1.037206 1.22123,-1.706371 0.85318,-0.685895 2.04095,-0.685895 z m -1.95731,4.550324 v 1.823476 q 0,1.304872 0.53533,2.091141 0.53534,0.786269 1.42198,0.786269 0.88665,0 1.42198,-0.786269 0.53533,-0.786269 0.53533,-2.091141 v -1.823476 q 0,-1.304872 -0.53533,-2.091141 -0.53533,-0.786269 -1.42198,-0.786269 -0.88664,0 -1.42198,0.786269 -0.53533,0.786269 -0.53533,2.091141 z"
         style="font-style:normal;font-variant:normal;font-weight:bold;font-stretch:normal;font-family:'Tlwg Typewriter';-inkscape-font-specification:'Tlwg Typewriter Bold';letter-spacing:0px;stroke-width:0.26458332"
         id="path128" />
    </g>
    <rect
       style="opacity:1;fill:#ffffff;fill-opacity:1;fill-rule:nonzero;stroke:none;stroke-width:1.5;stroke-linecap:round;stroke-linejoin:round;stroke-miterlimit:4;stroke-dasharray:none;stroke-dashoffset:0;stroke-opacity:1;paint-order:markers stroke fill"
       id="rect1061"
       width="18"
       height="12"
       x="-520.23804"
       y="308.28714"
       transform="rotate(135)" />
    <g
       aria-label="35"
       transform="matrix(0.64371011,-0.64371011,0.77674719,0.77674719,-18.524589,-444.54542)"
       style="font-style:normal;font-variant:normal;font-weight:bold;font-stretch:normal;font-size:16.7291317px;line-height:1000;font-family:'Tlwg Typewriter';-inkscape-font-specification:'Tlwg Typewriter Bold';letter-spacing:0px;word-spacing:0px;fill:#000000;fill-opacity:1;stroke:none;stroke-width:0.26458332"
       id="text1065">
      <path
         inkscape:connector-curvature="0"
         d="m 222.74264,15.092424 q 0.20075,0 0.36804,0.100375 0.16729,0.08365 0.30113,0.20075 0.15056,0.100375 0.6357,0.200749 0.48515,0.08365 1.23796,0.08365 1.28814,0 1.99077,-0.368041 0.70262,-0.368041 0.70262,-1.271414 0,-0.752811 -0.75281,-1.237956 -0.75281,-0.501874 -1.80675,-0.501874 -0.4015,0 -0.6357,-0.200749 -0.23421,-0.217479 -0.23421,-0.568791 0,-0.36804 0.23421,-0.602248 0.25093,-0.234208 0.6357,-0.234208 2.19152,0 2.19152,-1.3216016 0,-0.5855196 -0.50187,-0.9201022 -0.50188,-0.3513118 -1.37179,-0.3513118 -0.65244,0 -1.0874,0.1672913 -0.41823,0.1505622 -0.58552,0.3513118 -0.15056,0.1840205 -0.36804,0.3513118 -0.20075,0.1505622 -0.48514,0.1505622 -0.33458,0 -0.58552,-0.250937 -0.23421,-0.250937 -0.23421,-0.5855196 0,-0.7193527 1.05394,-1.2881432 1.05393,-0.5687905 2.39226,-0.5687905 0.90337,0 1.58927,0.2843953 0.70262,0.2843952 1.08739,0.7360818 0.38477,0.4516865 0.56879,0.9368314 0.20075,0.4851448 0.20075,0.9535605 0,0.6858948 -0.35131,1.2044978 -0.35131,0.501874 -1.17104,0.987018 1.89039,0.920103 1.89039,2.526099 0,1.605997 -1.18776,2.459183 -1.17104,0.836456 -3.12835,0.836456 -1.53908,0 -2.49264,-0.38477 -0.93683,-0.401499 -0.93683,-1.037206 0,-0.351312 0.2342,-0.58552 0.25094,-0.250937 0.60225,-0.250937 z"
         style="font-style:normal;font-variant:normal;font-weight:bold;font-stretch:normal;font-family:'Tlwg Typewriter';-inkscape-font-specification:'Tlwg Typewriter Bold';letter-spacing:0px;stroke-width:0.26458332"
         id="path121" />
      <path
         inkscape:connector-curvature="0"
         d="m 236.13614,11.679682 q -0.68589,0 -1.52235,0.351311 -0.83646,0.351312 -0.95356,0.351312 -0.36804,0 -0.60225,-0.267666 -0.23421,-0.267666 -0.23421,-0.669165 V 6.6944004 h 5.0522 q 1.10412,0 1.10412,0.8364565 0,0.8364566 -1.10412,0.8364566 h -3.37928 v 1.9238505 q 0.93683,-0.284396 1.65618,-0.284396 1.52235,0 2.5261,1.053936 1.00375,1.053935 1.00375,2.659932 0,1.773288 -1.12085,2.710119 -1.12086,0.920102 -3.07816,0.920102 -1.50563,0 -2.5261,-0.468415 -1.02048,-0.485145 -1.02048,-1.187769 0,-0.334582 0.25094,-0.56879 0.25093,-0.250937 0.58552,-0.250937 0.25093,0 0.43495,0.133833 0.20075,0.117104 0.35132,0.267666 0.15056,0.150562 0.6357,0.284395 0.50188,0.117104 1.27142,0.117104 1.30487,0 1.92385,-0.468416 0.61897,-0.485144 0.61897,-1.472163 0,-0.920102 -0.5186,-1.488893 -0.5186,-0.56879 -1.35506,-0.56879 z"
         style="font-style:normal;font-variant:normal;font-weight:bold;font-stretch:normal;font-family:'Tlwg Typewriter';-inkscape-font-specification:'Tlwg Typewriter Bold';letter-spacing:0px;stroke-width:0.26458332"
         id="path123" />
    </g>
    <rect
       y="413.02716"
       x="-520.23804"
       height="12"
       width="18"
       id="rect1069"
       style="opacity:1;fill:#ffffff;fill-opacity:1;fill-rule:nonzero;stroke:none;stroke-width:1.5;stroke-linecap:round;stroke-linejoin:round;stroke-miterlimit:4;stroke-dasharray:none;stroke-dashoffset:0;stroke-opacity:1;paint-order:markers stroke fill"
       transform="rotate(135)" />
    <g
       aria-label="25"
       transform="matrix(0.64371011,-0.64371011,0.77674719,0.77674719,-166.75132,-593.39839)"
       style="font-style:normal;font-variant:normal;font-weight:bold;font-stretch:normal;font-size:16.7291317px;line-height:1000;font-family:'Tlwg Typewriter';-inkscape-font-specification:'Tlwg Typewriter Bold';letter-spacing:0px;word-spacing:0px;fill:#000000;fill-opacity:1;stroke:none;stroke-width:0.26458332"
       id="text1073">
      <path
         inkscape:connector-curvature="0"
         d="m 229.2168,105.02158 q 0,1.08739 -0.78627,1.9573 -0.76954,0.86992 -4.16555,3.79752 h 3.36255 q 0.0669,-0.90338 0.83646,-0.90338 0.83646,0 0.83646,1.10413 v 1.47216 h -7.59503 v -1.75656 q 2.71012,-2.2417 3.86443,-3.26218 1.15431,-1.02048 1.55581,-1.53908 0.41823,-0.5186 0.41823,-0.93683 0,-0.63571 -0.55206,-1.07067 -0.55206,-0.43495 -1.37179,-0.43495 -1.03721,0 -1.62273,0.68589 -0.15056,0.18402 -0.28439,0.53533 -0.11711,0.35132 -0.2844,0.53534 -0.16729,0.18402 -0.55206,0.18402 -0.33458,0 -0.58552,-0.23421 -0.25094,-0.25094 -0.25094,-0.56879 0,-0.35131 0.21748,-0.803 0.21748,-0.45169 0.63571,-0.90337 0.41823,-0.46842 1.13758,-0.78627 0.73608,-0.31786 1.62273,-0.31786 1.52235,0 2.54282,0.93684 1.02048,0.9201 1.02048,2.30862 z"
         style="font-style:normal;font-variant:normal;font-weight:bold;font-stretch:normal;font-family:'Tlwg Typewriter';-inkscape-font-specification:'Tlwg Typewriter Bold';letter-spacing:0px;stroke-width:0.26458332"
         id="path131" />
      <path
         inkscape:connector-curvature="0"
         d="m 236.13613,107.02907 q -0.6859,0 -1.52235,0.35131 -0.83646,0.35132 -0.95357,0.35132 -0.36804,0 -0.60224,-0.26767 -0.23421,-0.26767 -0.23421,-0.66917 v -4.75107 h 5.0522 q 1.10412,0 1.10412,0.83646 0,0.83645 -1.10412,0.83645 h -3.37929 v 1.92385 q 0.93683,-0.28439 1.65619,-0.28439 1.52235,0 2.52609,1.05393 1.00375,1.05394 1.00375,2.65994 0,1.77328 -1.12085,2.71012 -1.12085,0.9201 -3.07816,0.9201 -1.50562,0 -2.5261,-0.46842 -1.02048,-0.48514 -1.02048,-1.18777 0,-0.33458 0.25094,-0.56879 0.25094,-0.25093 0.58552,-0.25093 0.25094,0 0.43496,0.13383 0.20075,0.1171 0.35131,0.26766 0.15056,0.15057 0.63571,0.2844 0.50187,0.1171 1.27141,0.1171 1.30487,0 1.92385,-0.46841 0.61898,-0.48515 0.61898,-1.47217 0,-0.9201 -0.5186,-1.48889 -0.51861,-0.56879 -1.35506,-0.56879 z"
         style="font-style:normal;font-variant:normal;font-weight:bold;font-stretch:normal;font-family:'Tlwg Typewriter';-inkscape-font-specification:'Tlwg Typewriter Bold';letter-spacing:0px;stroke-width:0.26458332"
         id="path133" />
    </g>
    <rect
       style="opacity:1;fill:#ffffff;fill-opacity:1;fill-rule:nonzero;stroke:none;stroke-width:1.5;stroke-linecap:round;stroke-linejoin:round;stroke-miterlimit:4;stroke-dasharray:none;stroke-dashoffset:0;stroke-opacity:1;paint-order:markers stroke fill"
       id="rect1077"
       width="18"
       height="12"
       x="-520.23804"
       y="433.48895"
       transform="rotate(135)" />
    <g
       aria-label="20"
       transform="matrix(0.64371011,-0.64371011,0.77674719,0.77674719,-195.44254,-622.99519)"
       style="font-style:normal;font-variant:normal;font-weight:bold;font-stretch:normal;font-size:16.7291317px;line-height:1000;font-family:'Tlwg Typewriter';-inkscape-font-specification:'Tlwg Typewriter Bold';letter-spacing:0px;word-spacing:0px;fill:#000000;fill-opacity:1;stroke:none;stroke-width:0.26458332"
       id="text1081">
      <path
         inkscape:connector-curvature="0"
         d="m 229.21682,123.64883 q 0,1.0874 -0.78627,1.95731 -0.76954,0.86992 -4.16556,3.79752 h 3.36256 q 0.0669,-0.90338 0.83646,-0.90338 0.83645,0 0.83645,1.10413 v 1.47216 h -7.59502 v -1.75656 q 2.71012,-2.2417 3.86443,-3.26218 1.15431,-1.02048 1.5558,-1.53908 0.41823,-0.5186 0.41823,-0.93683 0,-0.63571 -0.55206,-1.07067 -0.55206,-0.43495 -1.37179,-0.43495 -1.0372,0 -1.62272,0.68589 -0.15057,0.18402 -0.2844,0.53533 -0.1171,0.35131 -0.28439,0.53533 -0.16729,0.18403 -0.55206,0.18403 -0.33459,0 -0.58552,-0.23421 -0.25094,-0.25094 -0.25094,-0.56879 0,-0.35132 0.21748,-0.803 0.21748,-0.45169 0.6357,-0.90337 0.41823,-0.46842 1.13759,-0.78627 0.73608,-0.31786 1.62272,-0.31786 1.52235,0 2.54283,0.93683 1.02048,0.92011 1.02048,2.30862 z"
         style="font-style:normal;font-variant:normal;font-weight:bold;font-stretch:normal;font-family:'Tlwg Typewriter';-inkscape-font-specification:'Tlwg Typewriter Bold';letter-spacing:0px;stroke-width:0.26458332"
         id="path136" />
      <path
         inkscape:connector-curvature="0"
         d="m 235.85175,120.40338 q 1.77328,0 2.69339,1.37179 0.93683,1.35506 0.93683,3.29564 v 1.58927 q 0,1.25468 -0.38477,2.29189 -0.36804,1.02048 -1.22123,1.70637 -0.83646,0.66917 -2.02422,0.66917 -1.77329,0 -2.71012,-1.35506 -0.92011,-1.37179 -0.92011,-3.31237 v -1.58927 q 0,-1.25468 0.36805,-2.27516 0.38477,-1.03721 1.22122,-1.70637 0.85319,-0.6859 2.04096,-0.6859 z m -1.95731,4.55033 v 1.82347 q 0,1.30487 0.53533,2.09114 0.53533,0.78627 1.42198,0.78627 0.88664,0 1.42197,-0.78627 0.53533,-0.78627 0.53533,-2.09114 v -1.82347 q 0,-1.30488 -0.53533,-2.09115 -0.53533,-0.78626 -1.42197,-0.78626 -0.88665,0 -1.42198,0.78626 -0.53533,0.78627 -0.53533,2.09115 z"
         style="font-style:normal;font-variant:normal;font-weight:bold;font-stretch:normal;font-family:'Tlwg Typewriter';-inkscape-font-specification:'Tlwg Typewriter Bold';letter-spacing:0px;stroke-width:0.26458332"
         id="path138" />
    </g>
  </g>
</svg>
