<?xml version="1.0" encoding="UTF-8" standalone="no"?>
<!-- Created with Inkscape (http://www.inkscape.org/) -->

<svg
   xmlns:dc="http://purl.org/dc/elements/1.1/"
   xmlns:cc="http://creativecommons.org/ns#"
   xmlns:rdf="http://www.w3.org/1999/02/22-rdf-syntax-ns#"
   xmlns:svg="http://www.w3.org/2000/svg"
   xmlns="http://www.w3.org/2000/svg"
   xmlns:xlink="http://www.w3.org/1999/xlink"
   xmlns:sodipodi="http://sodipodi.sourceforge.net/DTD/sodipodi-0.dtd"
   xmlns:inkscape="http://www.inkscape.org/namespaces/inkscape"
   width="200mm"
   height="620mm"
   viewBox="0 0 200 620"
   version="1.1"
   id="svg8"
   inkscape:version="0.92.2 (5c3e80d, 2017-08-06)"
   sodipodi:docname="right.svg">
  <defs
     id="defs2" />
  <sodipodi:namedview
     id="base"
     pagecolor="#ffffff"
     bordercolor="#666666"
     borderopacity="1.0"
     inkscape:pageopacity="0.0"
     inkscape:pageshadow="2"
     inkscape:zoom="0.30658401"
     inkscape:cx="-113.93329"
     inkscape:cy="94.130886"
     inkscape:document-units="mm"
     inkscape:current-layer="layer1"
     showgrid="true"
     inkscape:window-width="1366"
     inkscape:window-height="715"
     inkscape:window-x="0"
     inkscape:window-y="0"
     inkscape:window-maximized="1">
    <inkscape:grid
       type="xygrid"
       id="grid2196"
       units="mm"
       spacingx="0.99999999"
       spacingy="0.99999999"
       snapvisiblegridlinesonly="false" />
  </sodipodi:namedview>
  <metadata
     id="metadata5">
    <rdf:RDF>
      <cc:Work
         rdf:about="">
        <dc:format>image/svg+xml</dc:format>
        <dc:type
           rdf:resource="http://purl.org/dc/dcmitype/StillImage" />
        <dc:title></dc:title>
      </cc:Work>
    </rdf:RDF>
  </metadata>
  <g
     inkscape:label="Layer 1"
     inkscape:groupmode="layer"
     id="layer1"
     transform="translate(0,323)">
    <path
       style="fill:none;stroke:#000000;stroke-width:1.5;stroke-linecap:butt;stroke-linejoin:miter;stroke-miterlimit:4;stroke-dasharray:none;stroke-opacity:1"
       d="M 0,287 H 190"
       id="path3016"
       inkscape:connector-curvature="0" />
    <use
       x="0"
       y="0"
       xlink:href="#path3016"
       id="use3018"
       transform="translate(0,-100)"
       width="100%"
       height="100%" />
    <use
       x="0"
       y="0"
       xlink:href="#path3016"
       id="use3020"
       transform="translate(0,-200)"
       width="100%"
       height="100%" />
    <use
       x="0"
       y="0"
       xlink:href="#path3016"
       id="use3022"
       transform="translate(0,-300)"
       width="100%"
       height="100%" />
    <use
       x="0"
       y="0"
       xlink:href="#path3016"
       id="use3024"
       transform="translate(0,-400)"
       width="100%"
       height="100%" />
    <use
       x="0"
       y="0"
       xlink:href="#path3016"
       id="use3026"
       transform="translate(0,-500)"
       width="100%"
       height="100%" />
    <use
       x="0"
       y="0"
       xlink:href="#path3016"
       id="use3028"
       transform="translate(0,-600)"
       width="100%"
       height="100%" />
    <path
       style="fill:none;stroke:#000000;stroke-width:1.5;stroke-linecap:butt;stroke-linejoin:miter;stroke-miterlimit:4;stroke-dasharray:none;stroke-opacity:1"
       d="M 190.00004,-313.7499 V 287.75012"
       id="path3030"
       inkscape:connector-curvature="0" />
    <use
       x="0"
       y="0"
       xlink:href="#path3030"
       id="use3032"
       transform="translate(-100.00004)"
       width="100%"
       height="100%" />
    <circle
       style="opacity:1;fill:#ffffff;fill-opacity:1;fill-rule:nonzero;stroke:none;stroke-width:2;stroke-linecap:round;stroke-linejoin:round;stroke-miterlimit:4;stroke-dasharray:none;stroke-dashoffset:0;stroke-opacity:1;paint-order:markers stroke fill"
       id="path17"
       cx="105"
       cy="-228"
       r="95" />
    <use
       x="0"
       y="0"
       xlink:href="#path17"
       id="use3040"
       transform="translate(0,430)"
       width="100%"
       height="100%" />
    <path
       id="path354"
       style="fill:#000000;stroke:none;stroke-width:0.03527778"
       d="m 32.739626,-228.82491 h -8.30027 v 0.80978 0.80979 h 8.30027 8.30028 v -0.80979 -0.80978 z m 19.13113,0 h -9.00884 v 0.80978 0.80979 h 9.00884 9.00883 v -0.80979 -0.80978 z m 19.63725,0 h -8.80639 v 0.80978 0.80979 h 8.80639 8.80639 v -0.80979 -0.80978 z m 33.504784,64.37777 h -0.80978 v 8.30028 8.30027 h 0.80978 0.80978 v -8.30027 -8.30028 z m 0,-19.83969 h -0.80978 v 9.00884 9.00884 h 0.80978 0.80978 v -9.00884 -9.00884 z m 0.52636,-19.35382 c -0.16196,-0.0607 -0.50611,-0.081 -0.76929,-0.0405 l -0.46563,0.0607 -0.0607,8.76591 -0.0404,8.74566 h 0.80978 0.80978 v -8.70518 c 0,-7.36902 -0.0405,-8.72541 -0.28342,-8.82663 z m -0.52636,-67.09054 h -1.05272 l 0.14171,8.86713 c 0.081,4.8587 0.1822,8.90761 0.24294,9.00883 0.0405,0.081 0.34416,0.14172 0.66807,0.14172 h 0.56685 l 0.12146,-2.06495 c 0.0607,-1.15394 0.16196,-5.20286 0.24294,-9.00884 l 0.12146,-6.94389 z m -0.0203,-19.83969 h -1.45761 l 0.12147,5.93166 c 0.081,3.23914 0.14171,7.3083 0.14171,9.00884 v 3.07717 h 1.09321 1.09321 l 0.12147,-2.06494 c 0.0607,-1.15394 0.16195,-5.20286 0.24293,-9.00884 l 0.12148,-6.94389 z m 0.0203,-17.81523 h -1.84226 l 0.12147,7.75367 c 0.081,4.25136 0.16196,7.8549 0.22269,7.99661 0.0405,0.16196 0.52636,0.24294 1.47785,0.24294 h 1.39688 l 0.12147,-2.2674 c 0.0607,-1.25516 0.16196,-4.8587 0.22269,-7.9966 l 0.10122,-5.72922 z m 13.82705,77.94164 c -0.16196,-1.05273 -0.93125,-3.1784 -1.53859,-4.35259 -0.85027,-1.61957 -3.88696,-4.65624 -5.50652,-5.50653 -2.14593,-1.11345 -3.62379,-1.4981 -6.17461,-1.61955 -2.81399,-0.12148 -4.41331,0.20243 -6.781934,1.35637 -2.97595,1.45761 -5.08139,3.5833 -6.49851,6.5795 -0.99198,2.06494 -1.29565,3.5428 -1.31589,5.97214 0,2.49009 0.32391,3.90721 1.41711,6.1746 1.76128,3.68452 5.12188,6.41753 9.231544,7.4905 1.59931,0.40488 5.08138,0.40488 6.6807,0 2.79376,-0.72881 5.8102,-2.6318 7.4905,-4.71699 1.15394,-1.43737 2.40911,-3.98818 2.814,-5.70898 0.28342,-1.21467 0.38464,-4.41331 0.1822,-5.66847 z m -2.18642,5.36481 c -0.56685,2.20666 -1.45761,3.725 -3.21888,5.48628 -2.51033,2.51033 -4.93968,3.5428 -8.42175,3.5428 -3.34035,0 -6.174604,-1.15394 -8.502734,-3.46182 -2.32812,-2.34838 -3.44157,-5.0814 -3.44157,-8.52297 0,-3.50231 0.99198,-5.87093 3.52256,-8.4015 2.46983,-2.46983 4.980164,-3.52256 8.381254,-3.52256 3.42133,0 5.9924,1.07296 8.44199,3.5428 1.72079,1.72079 2.65204,3.27963 3.21889,5.38506 0.38464,1.45761 0.40489,4.45381 0.0203,5.95191 z m 6.55925,-5.44579 c -0.74905,-5.54702 -4.37283,-10.79037 -9.37324,-13.58412 -5.04091,-2.81399 -11.55966,-2.97595 -16.823254,-0.42514 -9.79838,4.77774 -13.36142,16.70178 -7.77392,26.07502 1.11345,1.88275 3.725,4.59553 5.62799,5.85069 9.454234,6.19484 22.086844,2.53057 26.864564,-7.81441 1.3159,-2.83424 1.92324,-6.94389 1.47786,-10.10204 z m -2.40911,6.66046 c -1.15394,4.53479 -4.39307,8.50273 -8.60394,10.52719 -2.73302,1.33614 -3.98819,1.59931 -7.18683,1.61956 -3.29987,0 -4.4943,-0.28342 -7.490504,-1.74103 -1.82201,-0.91101 -2.34837,-1.29566 -3.96793,-2.89498 -3.5428,-3.5428 -5.14213,-7.59172 -4.87895,-12.47066 0.14172,-2.61155 0.50612,-4.00843 1.66006,-6.37704 2.0447,-4.25135 5.89117,-7.38928 10.527184,-8.62419 2.14593,-0.56685 5.85068,-0.62758 7.89539,-0.10123 6.49851,1.66006 11.41794,7.02487 12.43017,13.58412 0.26318,1.6803 0.10122,4.61576 -0.38465,6.47826 z m 19.69798,-5.08139 c -3.76549,0.081 -7.77392,0.1822 -8.90762,0.24294 l -2.08519,0.12146 v 0.56685 c 0,0.32391 0.0607,0.62758 0.16196,0.66808 0.081,0.0607 4.0894,0.16195 8.90761,0.24293 l 8.74566,0.14171 v -1.05272 -1.05271 z m 19.94091,-0.40489 c -3.70476,0.081 -7.77392,0.1822 -9.00884,0.24294 l -2.28764,0.12147 v 0.97173 c 0,0.54661 0.0607,1.03248 0.16196,1.07296 0.081,0.0607 4.1299,0.16196 9.00884,0.24294 l 8.84688,0.14171 v -1.45761 -1.45761 z m 18.92868,-0.38465 c -3.21888,0.0607 -6.86291,0.16196 -8.09783,0.22269 l -2.28764,0.12147 v 1.39688 c 0,0.95149 0.081,1.43736 0.26319,1.49809 0.12146,0.0405 3.76549,0.12147 8.09783,0.20245 l 7.83465,0.12147 v -1.84226 -1.82201 z m 10.52719,-2.73301 c -0.83003,-12.22773 -3.38085,-22.14758 -8.23955,-32.29011 -8.11808,-16.92447 -21.8439,-30.89323 -38.56592,-39.25424 -25.30573,-12.67311 -55.449914,-11.90381 -80.087574,2.06494 -2.89497,1.63982 -8.44199,5.40531 -11.23574,7.65246 -3.46183,2.77351 -10.24376,9.5352 -12.87556,12.83506 -6.47827,8.13832 -11.11427,16.51958 -14.3534,25.93331 -4.27161,12.47067 -5.56727,26.17624 -3.72501,39.43644 3.21889,23.03833 15.81101,43.7283 34.90165,57.3529 18.44283,13.17922 41.09651,18.32135 63.871674,14.51537 3.58329,-0.60735 9.19104,-2.04472 12.93629,-3.32012 9.41372,-3.23913 17.79498,-7.87514 25.9333,-14.3534 3.32012,-2.6318 10.0818,-9.43398 12.83507,-12.87556 2.24714,-2.814 6.05313,-8.38126 7.65245,-11.23574 6.33656,-11.19525 10.00082,-23.5242 10.89159,-36.54147 0.1822,-2.71277 0.22268,-7.77392 0.0607,-9.91984 z m -2.95571,10.87134 c -0.0607,0.0405 -1.72079,-0.10123 -3.72501,-0.32392 -15.79077,-1.84226 -30.65029,-2.81399 -45.40859,-2.9962 l -10.02107,-0.12147 v -2.99619 -3.01645 h 7.69294 c 9.81863,0 17.41034,-0.32391 29.05097,-1.21467 6.80219,-0.52636 19.02991,-1.74103 21.7022,-2.14593 l 0.74905,-0.12145 0.081,1.4981 c 0.12147,1.86249 0,11.29646 -0.12147,11.43818 z m -1.59932,-17.26863 c -6.9034,1.96372 -16.51958,3.48207 -29.31416,4.57527 -7.97636,0.66808 -13.66509,0.99199 -26.64187,1.4981 l -2.0447,0.081 -0.26318,-1.05271 c -0.14171,-0.56686 -0.30367,-1.1337 -0.34416,-1.25517 -0.0607,-0.14172 1.1337,-0.26317 3.78574,-0.34416 19.57651,-0.68831 42.33142,-3.80598 53.85059,-7.40951 0.70856,-0.22269 1.33614,-0.38466 1.37663,-0.34416 0.081,0.10123 0.60734,2.93546 0.62758,3.50231 0.0203,0.3644 -0.16196,0.48587 -1.03247,0.74905 z m 0.74905,24.19227 c -0.16196,0.93125 -0.32392,1.74103 -0.3644,1.78153 -0.0405,0.0405 -1.47786,-0.34416 -3.2189,-0.83003 -9.15055,-2.6318 -23.26102,-4.8587 -38.62666,-6.09362 -5.00041,-0.38465 -13.8068,-0.91101 -15.77053,-0.91101 -1.2754,0 -1.45761,-0.0405 -1.35638,-0.32391 0.081,-0.1822 0.22269,-0.74905 0.3644,-1.25517 l 0.22269,-0.911 4.6765,0.12147 c 13.17922,0.38464 28.74731,1.59932 39.09228,3.09742 6.7617,0.97174 15.28466,2.85449 15.28466,3.40109 0,0.12146 -0.14171,0.99198 -0.30366,1.92323 z m -3.7655,-32.10789 c -13.32093,5.64822 -33.86918,9.35298 -52.71688,9.47445 l -3.64403,0.0203 -0.38465,-0.66807 c -2.75326,-4.87894 -5.46603,-7.71319 -9.57568,-10.02107 l -1.74104,-0.97173 0.12147,-6.09363 c 0.30367,-14.98098 2.57106,-30.0227 6.33656,-42.1897 1.4576,-4.65625 3.74524,-10.54742 4.12989,-10.54742 0.081,0 1.35638,0.3644 2.85449,0.78954 14.77854,4.33234 26.78358,11.74186 37.49296,23.09906 7.81441,8.25979 14.21169,19.0704 17.83547,30.08345 0.9515,2.89497 1.72079,5.5875 1.66006,5.85068 -0.0405,0.12147 -1.09321,0.64783 -2.36862,1.17419 z m 1.01223,43.56633 c -2.2269,7.30829 -6.7212,16.27664 -11.51917,22.97759 -3.84646,5.40531 -10.264,12.167 -15.38588,16.27665 -10.42595,8.34076 -22.41075,13.92826 -35.32679,16.49933 -2.55082,0.50612 -4.83846,0.83002 -9.08982,1.31589 l -0.58709,0.0607 0.12147,-9.83887 c 0.16195,-12.26821 0.48587,-19.35381 1.37663,-30.18466 0.78954,-9.73765 2.34837,-21.6617 2.814,-21.6617 0.081,0 0.85027,-0.44538 1.6803,-1.01223 3.03668,-1.96373 6.23533,-5.48629 7.83465,-8.58371 l 0.70856,-1.37663 4.91943,0.12147 c 20.02189,0.50611 38.26226,3.88696 51.60344,9.51495 l 2.24715,0.9515 -0.38465,1.45761 c -0.22269,0.80978 -0.66807,2.36861 -1.01223,3.48207 z m -57.98047,-20.5685 c -2.12569,10.12229 -11.15477,17.08643 -21.43902,16.56007 -5.385064,-0.28343 -10.061554,-2.38886 -13.806804,-6.25558 -3.68452,-3.76549 -5.628,-8.19906 -5.89118,-13.4424 -0.74904,-14.29267 12.79458,-25.02229 26.581144,-21.01387 9.15055,2.63179 15.38588,11.29647 14.9405,20.77094 -0.0405,1.07296 -0.22269,2.5913 -0.38464,3.38084 z m -5.87094,-82.90156 c -3.42133,11.27623 -6.51875,34.17286 -7.10584,52.65616 -0.0607,2.12568 -0.14171,3.9477 -0.1822,4.0894 -0.0607,0.16197 -0.40489,0.14171 -1.29566,-0.10122 l -1.21467,-0.32392 0.081,-2.14592 c 0.0607,-1.17417 0.20244,-4.49429 0.32391,-7.38927 0.62758,-15.8515 2.0447,-30.71103 3.9072,-40.79283 0.60734,-3.23913 1.84226,-8.28004 2.12568,-8.56346 0.16196,-0.16196 2.40911,0.081 3.52256,0.38465 0.44538,0.14171 0.44538,0.22269 -0.16196,2.18641 z m -7.0856,108.93609 c -1.25516,15.12271 -1.92323,30.26565 -1.92323,43.89024 0,6.13411 -0.0607,7.83466 -0.24294,7.83466 -0.14171,0 -0.60734,0.0607 -1.01223,0.12147 l -0.76929,0.14172 v -7.06537 c 0,-13.64484 0.85027,-33.12013 2.02446,-47.14962 0.5466,-6.31631 0.42513,-5.87093 1.55883,-6.25558 0.52636,-0.1822 0.99198,-0.32391 1.03248,-0.32391 0.0607,0 0.0405,0.66807 -0.0405,1.47785 -0.081,0.78954 -0.3644,4.10965 -0.62758,7.32854 z m -1.51834,-107.3975 c -1.96373,18.15939 -2.83424,32.45207 -2.83424,46.56254 v 7.79416 h -3.01644 -2.9962 l -0.12147,-10.2235 c -0.12147,-9.9401 -0.22269,-12.45043 -0.85028,-22.16783 -0.38464,-5.83044 -1.376624,-16.66129 -2.024454,-22.35001 -0.28342,-2.38886 -0.48587,-4.37283 -0.44538,-4.39308 0.1822,-0.1822 7.369034,-0.32391 9.919844,-0.1822 l 2.9962,0.14171 -0.10122,0.5466 c -0.0607,0.28343 -0.28343,2.20666 -0.52636,4.27161 z m -2.32813,108.00484 c -0.62758,10.52718 -1.09321,29.31415 -1.11345,44.29514 v 7.02488 h -2.49008 -2.49009 l -0.0405,-12.79458 c -0.0405,-12.69336 -0.26318,-23.44323 -0.64782,-32.04717 -0.18221,-3.90721 -0.74905,-13.23996 -0.87052,-14.37366 -0.0203,-0.26317 0.0607,-0.38464 0.26317,-0.32391 0.80979,0.1822 5.70898,0.24294 6.7617,0.0607 l 1.19443,-0.18221 -0.14172,1.74103 c -0.0607,0.9515 -0.26318,3.92745 -0.42513,6.59974 z m -7.22732,51.32002 c -0.14171,0 -0.60733,-0.0607 -1.01222,-0.12147 l -0.769304,-0.14172 v -6.90339 c 0,-15.22394 -1.15394,-38.30275 -2.61155,-52.08932 -0.081,-0.80978 -0.081,-1.47785 -0.0202,-1.47785 0.081,0 0.5466,0.14171 1.05271,0.32391 1.09321,0.36441 0.99199,0 1.47786,5.54702 0.749054,8.66468 1.376634,19.55626 1.720794,29.86076 0.30367,8.92786 0.32391,9.57568 0.3644,17.77474 0.0405,5.66848 -0.0203,7.22732 -0.20245,7.22732 z m -2.064944,-104.27984 c -0.48587,0.12146 -1.01223,0.26318 -1.17419,0.32392 -0.26318,0.10121 -0.32391,-0.42515 -0.44538,-3.48207 -0.76929,-20.42679 -3.74525,-42.35167 -7.28805,-53.93157 l -0.48587,-1.57908 0.52636,-0.10122 c 1.94348,-0.38465 3.34036,-0.54661 3.48207,-0.40489 0.30367,0.30366 1.78152,6.70095 2.42935,10.40571 1.51834,8.82664 2.79375,22.04635 3.44158,35.42802 0.12147,2.51033 0.24293,5.06114 0.263184,5.66848 0.0405,0.60735 0.081,2.53058 0.10122,4.27162 l 0.0405,3.17838 z m -1.78152,103.97617 c -5.628,-0.64783 -8.88738,-1.21468 -12.81483,-2.22691 -12.95652,-3.32012 -24.73887,-9.67691 -34.96239,-18.84771 -11.51916,-10.34497 -20.20409,-24.67814 -24.23276,-39.9628 -1.07296,-4.10965 -2.12569,-10.16278 -2.28764,-13.32093 l -0.0607,-1.07297 6.27582,0.0203 c 18.78698,0.0203 41.58238,1.66006 53.91133,3.86671 l 1.27541,0.2227 1.2754,1.96372 c 1.61957,2.44959 4.1299,4.95992 6.47827,6.51876 0.99198,0.64782 1.88275,1.19443 1.96373,1.19443 0.34415,0 1.53859,8.30027 2.28764,15.99322 1.25516,12.53139 1.86249,24.59716 1.90299,38.12054 l 0.0404,7.65246 z m -2.69254,-102.33635 c -3.11766,1.51833 -6.98437,4.95991 -8.96834,7.9966 -0.56685,0.89077 -1.07296,1.6803 -1.09321,1.76127 -0.081,0.1822 -5.64824,1.07297 -10.48669,1.6803 -7.47025,0.91101 -16.78276,1.63982 -26.62163,2.1257 -6.21509,0.30365 -24.25301,0.62757 -24.41497,0.46561 -0.081,-0.10121 -0.0203,-1.33614 0.14171,-2.79374 3.70477,-32.99868 26.98603,-60.53131 58.99272,-69.76283 1.4981,-0.42514 2.79375,-0.78955 2.85449,-0.78955 0.24293,0 2.2269,5.04091 3.44157,8.70518 4.33234,13.09824 6.86292,29.77978 7.02487,46.40057 l 0.0405,3.76549 z M 83.229616,-235.04 c -0.3644,1.09321 0.0405,0.97174 -5.44579,1.45761 -7.99661,0.68832 -17.77475,1.29566 -28.84853,1.74104 -7.20707,0.28342 -25.93331,0.52636 -26.05477,0.32391 -0.0405,-0.081 -0.0203,-0.54661 0.0607,-1.05272 l 0.12147,-0.911 h 7.73342 c 14.17121,0 30.81225,-0.78954 47.4938,-2.22691 2.61154,-0.24293 4.87894,-0.46562 5.02065,-0.5061 0.32391,-0.12148 0.30367,0.0405 -0.081,1.17417 z m -0.12146,15.22393 c -0.5871,-0.12147 -11.2155,-1.01223 -17.06619,-1.41712 -11.55965,-0.78954 -25.95355,-1.3159 -36.25804,-1.3159 h -6.70096 l -0.14171,-0.74905 c -0.0607,-0.42514 -0.12147,-0.89076 -0.12147,-1.05272 0,-0.52635 20.95314,-0.12147 36.54147,0.68832 8.60395,0.44538 23.30151,1.57908 23.5242,1.80176 0.10123,0.10123 0.64783,1.63981 0.64783,1.90299 0.0203,0.16196 -0.14172,0.2227 -0.42513,0.14172 z m -0.91101,-7.28805 c 0.0607,1.45761 0.16195,2.79375 0.24293,2.9962 0.14171,0.32391 0.081,0.3644 -0.52636,0.26318 -0.93125,-0.16196 -8.9481,-0.66807 -14.55585,-0.93126 -8.72542,-0.38464 -19.41456,-0.60733 -31.94596,-0.64782 l -12.61237,-0.0405 0.0607,-2.46984 0.0607,-2.4496 13.96876,-0.14171 c 18.34158,-0.16196 30.20491,-0.52636 40.16524,-1.25516 2.2674,-0.14171 4.41332,-0.28343 4.77773,-0.28343 h 0.64782 l -0.1822,1.17419 c -0.12147,0.62758 -0.16196,2.34837 -0.10122,3.78574 z"
       inkscape:connector-curvature="0" />
    <path
       style="opacity:1;fill:none;fill-opacity:1;fill-rule:nonzero;stroke:#000000;stroke-width:1.5;stroke-linecap:round;stroke-linejoin:round;stroke-miterlimit:4;stroke-dasharray:none;stroke-dashoffset:0;stroke-opacity:1;paint-order:markers stroke fill"
       id="path972"
       sodipodi:type="arc"
       sodipodi:cx="-227.99976"
       sodipodi:cy="-105.00001"
       sodipodi:rx="43.25"
       sodipodi:ry="43.25"
       sodipodi:start="5.2708943"
       sodipodi:end="5.7246799"
       d="m -205.08075,-141.67809 a 43.25,43.25 0 0 1 13.75907,13.75907"
       sodipodi:open="true"
       transform="rotate(90)" />
    <path
       id="circle974"
       style="opacity:1;fill:none;fill-opacity:1;fill-rule:nonzero;stroke:#000000;stroke-width:1.5;stroke-linecap:round;stroke-linejoin:round;stroke-miterlimit:4;stroke-dasharray:none;stroke-dashoffset:0;stroke-opacity:1;paint-order:markers stroke fill"
       sodipodi:type="arc"
       sodipodi:cx="-227.99976"
       sodipodi:cy="-104.99998"
       sodipodi:rx="64.25"
       sodipodi:ry="64.25"
       sodipodi:start="5.2708943"
       sodipodi:end="5.7246799"
       d="m -193.95245,-159.48707 a 64.25,64.25 0 0 1 20.43978,20.43978"
       sodipodi:open="true"
       transform="rotate(90)" />
    <path
       sodipodi:open="true"
       d="m -264.67784,-127.91902 a 43.25,43.25 0 0 1 13.75908,-13.75907"
       sodipodi:end="4.1538836"
       sodipodi:start="3.700098"
       sodipodi:ry="43.25"
       sodipodi:rx="43.25"
       sodipodi:cy="-105.00001"
       sodipodi:cx="-227.99976"
       sodipodi:type="arc"
       id="path1019"
       style="opacity:1;fill:none;fill-opacity:1;fill-rule:nonzero;stroke:#000000;stroke-width:1.5;stroke-linecap:round;stroke-linejoin:round;stroke-miterlimit:4;stroke-dasharray:none;stroke-dashoffset:0;stroke-opacity:1;paint-order:markers stroke fill"
       transform="rotate(90)" />
    <path
       sodipodi:open="true"
       d="m -282.48685,-139.04729 a 64.25,64.25 0 0 1 20.43978,-20.43978"
       sodipodi:end="4.1538836"
       sodipodi:start="3.700098"
       sodipodi:ry="64.25"
       sodipodi:rx="64.25"
       sodipodi:cy="-104.99998"
       sodipodi:cx="-227.99976"
       sodipodi:type="arc"
       style="opacity:1;fill:none;fill-opacity:1;fill-rule:nonzero;stroke:#000000;stroke-width:1.5;stroke-linecap:round;stroke-linejoin:round;stroke-miterlimit:4;stroke-dasharray:none;stroke-dashoffset:0;stroke-opacity:1;paint-order:markers stroke fill"
       id="path1021"
       transform="rotate(90)" />
    <path
       style="opacity:1;fill:none;fill-opacity:1;fill-rule:nonzero;stroke:#000000;stroke-width:1.5;stroke-linecap:round;stroke-linejoin:round;stroke-miterlimit:4;stroke-dasharray:none;stroke-dashoffset:0;stroke-opacity:1;paint-order:markers stroke fill"
       id="path1023"
       sodipodi:type="arc"
       sodipodi:cx="-227.99976"
       sodipodi:cy="-105.00001"
       sodipodi:rx="43.25"
       sodipodi:ry="43.25"
       sodipodi:start="2.1293017"
       sodipodi:end="2.5830873"
       d="M -250.91876,-68.321928 A 43.25,43.25 0 0 1 -264.67784,-82.081"
       sodipodi:open="true"
       transform="rotate(90)" />
    <path
       id="path1025"
       style="opacity:1;fill:none;fill-opacity:1;fill-rule:nonzero;stroke:#000000;stroke-width:1.5;stroke-linecap:round;stroke-linejoin:round;stroke-miterlimit:4;stroke-dasharray:none;stroke-dashoffset:0;stroke-opacity:1;paint-order:markers stroke fill"
       sodipodi:type="arc"
       sodipodi:cx="-227.99976"
       sodipodi:cy="-104.99998"
       sodipodi:rx="64.25"
       sodipodi:ry="64.25"
       sodipodi:start="2.1293017"
       sodipodi:end="2.5830873"
       d="m -262.04707,-50.512887 a 64.25,64.25 0 0 1 -20.43978,-20.439778"
       sodipodi:open="true"
       transform="rotate(90)" />
    <path
       sodipodi:open="true"
       d="m -191.32168,-82.080999 a 43.25,43.25 0 0 1 -13.75907,13.759072"
       sodipodi:end="1.012291"
       sodipodi:start="0.55850536"
       sodipodi:ry="43.25"
       sodipodi:rx="43.25"
       sodipodi:cy="-105.00001"
       sodipodi:cx="-227.99976"
       sodipodi:type="arc"
       id="path1027"
       style="opacity:1;fill:none;fill-opacity:1;fill-rule:nonzero;stroke:#000000;stroke-width:1.5;stroke-linecap:round;stroke-linejoin:round;stroke-miterlimit:4;stroke-dasharray:none;stroke-dashoffset:0;stroke-opacity:1;paint-order:markers stroke fill"
       transform="rotate(90)" />
    <path
       sodipodi:open="true"
       d="m -173.51267,-70.952664 a 64.25,64.25 0 0 1 -20.43977,20.439778"
       sodipodi:end="1.012291"
       sodipodi:start="0.55850536"
       sodipodi:ry="64.25"
       sodipodi:rx="64.25"
       sodipodi:cy="-104.99998"
       sodipodi:cx="-227.99976"
       sodipodi:type="arc"
       style="opacity:1;fill:none;fill-opacity:1;fill-rule:nonzero;stroke:#000000;stroke-width:1.5;stroke-linecap:round;stroke-linejoin:round;stroke-miterlimit:4;stroke-dasharray:none;stroke-dashoffset:0;stroke-opacity:1;paint-order:markers stroke fill"
       id="path1029"
       transform="rotate(90)" />
    <text
       xml:space="preserve"
       style="font-style:normal;font-variant:normal;font-weight:bold;font-stretch:normal;font-size:16.7291317px;line-height:1000;font-family:'Tlwg Typewriter';-inkscape-font-specification:'Tlwg Typewriter Bold';letter-spacing:0px;word-spacing:0px;fill:#000000;fill-opacity:1;stroke:none;stroke-width:0.26458332"
       x="105.44905"
       y="-202.34698"
       id="text1083"
       transform="scale(0.91034354,1.0984864)"><tspan
         sodipodi:role="line"
         id="tspan1081"
         x="105.44905"
         y="-202.34698"
         style="font-style:normal;font-variant:normal;font-weight:bold;font-stretch:normal;font-family:'Tlwg Typewriter';-inkscape-font-specification:'Tlwg Typewriter Bold';letter-spacing:0px;stroke-width:0.26458332">30</tspan></text>
    <g
       id="g1148"
       transform="rotate(45,164.18102,-299.65271)">
      <rect
         y="-171"
         x="164"
         height="12"
         width="18"
         id="rect1139"
         style="opacity:1;fill:#ffffff;fill-opacity:1;fill-rule:nonzero;stroke:none;stroke-width:1.5;stroke-linecap:round;stroke-linejoin:round;stroke-miterlimit:4;stroke-dasharray:none;stroke-dashoffset:0;stroke-opacity:1;paint-order:markers stroke fill" />
      <text
         xml:space="preserve"
         style="font-style:normal;font-variant:normal;font-weight:bold;font-stretch:normal;font-size:16.7291317px;line-height:1000;font-family:'Tlwg Typewriter';-inkscape-font-specification:'Tlwg Typewriter Bold';letter-spacing:0px;word-spacing:0px;fill:#000000;fill-opacity:1;stroke:none;stroke-width:0.26458332"
         x="180.14613"
         y="-144.99556"
         id="text1143"
         transform="scale(0.91034355,1.0984864)"><tspan
           sodipodi:role="line"
           id="tspan1141"
           x="180.14613"
           y="-144.99556"
           style="font-style:normal;font-variant:normal;font-weight:bold;font-stretch:normal;font-family:'Tlwg Typewriter';-inkscape-font-specification:'Tlwg Typewriter Bold';letter-spacing:0px;stroke-width:0.26458332">30</tspan></text>
    </g>
    <g
       transform="rotate(45,139.48147,-309.8836)"
       id="g1156">
      <rect
         style="opacity:1;fill:#ffffff;fill-opacity:1;fill-rule:nonzero;stroke:none;stroke-width:1.5;stroke-linecap:round;stroke-linejoin:round;stroke-miterlimit:4;stroke-dasharray:none;stroke-dashoffset:0;stroke-opacity:1;paint-order:markers stroke fill"
         id="rect1150"
         width="18"
         height="12"
         x="164"
         y="-171" />
      <text
         transform="scale(0.91034355,1.0984864)"
         id="text1154"
         y="-144.99556"
         x="180.14613"
         style="font-style:normal;font-variant:normal;font-weight:bold;font-stretch:normal;font-size:16.7291317px;line-height:1000;font-family:'Tlwg Typewriter';-inkscape-font-specification:'Tlwg Typewriter Bold';letter-spacing:0px;word-spacing:0px;fill:#000000;fill-opacity:1;stroke:none;stroke-width:0.26458332"
         xml:space="preserve"><tspan
           style="font-style:normal;font-variant:normal;font-weight:bold;font-stretch:normal;font-family:'Tlwg Typewriter';-inkscape-font-specification:'Tlwg Typewriter Bold';letter-spacing:0px;stroke-width:0.26458332"
           y="-144.99556"
           x="180.14613"
           id="tspan1152"
           sodipodi:role="line">35</tspan></text>
    </g>
    <g
       id="g1164"
       transform="rotate(45,265.91386,-257.51358)">
      <rect
         y="-171"
         x="164"
         height="12"
         width="18"
         id="rect1158"
         style="opacity:1;fill:#ffffff;fill-opacity:1;fill-rule:nonzero;stroke:none;stroke-width:1.5;stroke-linecap:round;stroke-linejoin:round;stroke-miterlimit:4;stroke-dasharray:none;stroke-dashoffset:0;stroke-opacity:1;paint-order:markers stroke fill" />
      <text
         xml:space="preserve"
         style="font-style:normal;font-variant:normal;font-weight:bold;font-stretch:normal;font-size:16.7291317px;line-height:1000;font-family:'Tlwg Typewriter';-inkscape-font-specification:'Tlwg Typewriter Bold';letter-spacing:0px;word-spacing:0px;fill:#000000;fill-opacity:1;stroke:none;stroke-width:0.26458332"
         x="180.14613"
         y="-144.99556"
         id="text1162"
         transform="scale(0.91034355,1.0984864)"><tspan
           sodipodi:role="line"
           id="tspan1160"
           x="180.14613"
           y="-144.99556"
           style="font-style:normal;font-variant:normal;font-weight:bold;font-stretch:normal;font-family:'Tlwg Typewriter';-inkscape-font-specification:'Tlwg Typewriter Bold';letter-spacing:0px;stroke-width:0.26458332">25</tspan></text>
    </g>
    <g
       transform="rotate(45,290.61341,-247.2827)"
       id="g1180">
      <rect
         style="opacity:1;fill:#ffffff;fill-opacity:1;fill-rule:nonzero;stroke:none;stroke-width:1.5;stroke-linecap:round;stroke-linejoin:round;stroke-miterlimit:4;stroke-dasharray:none;stroke-dashoffset:0;stroke-opacity:1;paint-order:markers stroke fill"
         id="rect1174"
         width="18"
         height="12"
         x="164"
         y="-171" />
      <text
         transform="scale(0.91034355,1.0984864)"
         id="text1178"
         y="-144.99556"
         x="180.14613"
         style="font-style:normal;font-variant:normal;font-weight:bold;font-stretch:normal;font-size:16.7291317px;line-height:1000;font-family:'Tlwg Typewriter';-inkscape-font-specification:'Tlwg Typewriter Bold';letter-spacing:0px;word-spacing:0px;fill:#000000;fill-opacity:1;stroke:none;stroke-width:0.26458332"
         xml:space="preserve"><tspan
           style="font-style:normal;font-variant:normal;font-weight:bold;font-stretch:normal;font-family:'Tlwg Typewriter';-inkscape-font-specification:'Tlwg Typewriter Bold';letter-spacing:0px;stroke-width:0.26458332"
           y="-144.99556"
           x="180.14613"
           id="tspan1176"
           sodipodi:role="line">20</tspan></text>
    </g>
    <use
       x="0"
       y="0"
       xlink:href="#path354"
       id="use3194"
       transform="rotate(90,-109.99988,-12.999886)"
       width="100%"
       height="100%" />
  </g>
</svg>
