<?xml version="1.0" encoding="UTF-8" standalone="no"?>
<!-- Created with Inkscape (http://www.inkscape.org/) -->

<svg
   xmlns:dc="http://purl.org/dc/elements/1.1/"
   xmlns:cc="http://creativecommons.org/ns#"
   xmlns:rdf="http://www.w3.org/1999/02/22-rdf-syntax-ns#"
   xmlns:svg="http://www.w3.org/2000/svg"
   xmlns="http://www.w3.org/2000/svg"
   xmlns:xlink="http://www.w3.org/1999/xlink"
   xmlns:sodipodi="http://sodipodi.sourceforge.net/DTD/sodipodi-0.dtd"
   xmlns:inkscape="http://www.inkscape.org/namespaces/inkscape"
   width="200mm"
   height="620mm"
   viewBox="0 0 200 620"
   version="1.1"
   id="svg8"
   inkscape:version="0.92.2 (5c3e80d, 2017-08-06)"
   sodipodi:docname="right.svg">
  <defs
     id="defs2" />
  <sodipodi:namedview
     id="base"
     pagecolor="#ffffff"
     bordercolor="#666666"
     borderopacity="1.0"
     inkscape:pageopacity="0.0"
     inkscape:pageshadow="2"
     inkscape:zoom="0.43357527"
     inkscape:cx="601.83075"
     inkscape:cy="2158.5423"
     inkscape:document-units="mm"
     inkscape:current-layer="layer1"
     showgrid="true"
     inkscape:window-width="1366"
     inkscape:window-height="715"
     inkscape:window-x="0"
     inkscape:window-y="0"
     inkscape:window-maximized="1">
    <inkscape:grid
       type="xygrid"
       id="grid2196"
       units="mm"
       spacingx="0.99999999"
       spacingy="0.99999999"
       snapvisiblegridlinesonly="false" />
  </sodipodi:namedview>
  <metadata
     id="metadata5">
    <rdf:RDF>
      <cc:Work
         rdf:about="">
        <dc:format>image/svg+xml</dc:format>
        <dc:type
           rdf:resource="http://purl.org/dc/dcmitype/StillImage" />
        <dc:title></dc:title>
      </cc:Work>
    </rdf:RDF>
  </metadata>
  <g
     inkscape:label="Layer 1"
     inkscape:groupmode="layer"
     id="layer1"
     transform="translate(0,323)">
    <path
       style="fill:none;stroke:#000000;stroke-width:1.5;stroke-linecap:butt;stroke-linejoin:miter;stroke-miterlimit:4;stroke-dasharray:none;stroke-opacity:1"
       d="M 0,287 H 190"
       id="path3016"
       inkscape:connector-curvature="0" />
    <use
       x="0"
       y="0"
       xlink:href="#path3016"
       id="use3018"
       transform="translate(0,-100)"
       width="100%"
       height="100%" />
    <use
       x="0"
       y="0"
       xlink:href="#path3016"
       id="use3020"
       transform="translate(0,-200)"
       width="100%"
       height="100%" />
    <use
       x="0"
       y="0"
       xlink:href="#path3016"
       id="use3022"
       transform="translate(0,-300)"
       width="100%"
       height="100%" />
    <use
       x="0"
       y="0"
       xlink:href="#path3016"
       id="use3024"
       transform="translate(0,-400)"
       width="100%"
       height="100%" />
    <use
       x="0"
       y="0"
       xlink:href="#path3016"
       id="use3026"
       transform="translate(0,-500)"
       width="100%"
       height="100%" />
    <use
       x="0"
       y="0"
       xlink:href="#path3016"
       id="use3028"
       transform="translate(0,-600)"
       width="100%"
       height="100%" />
    <path
       style="fill:none;stroke:#000000;stroke-width:1.5;stroke-linecap:butt;stroke-linejoin:miter;stroke-miterlimit:4;stroke-dasharray:none;stroke-opacity:1"
       d="M 190.00004,-313.7499 V 287.75012"
       id="path3030"
       inkscape:connector-curvature="0" />
    <use
       x="0"
       y="0"
       xlink:href="#path3030"
       id="use3032"
       transform="translate(-100.00004)"
       width="100%"
       height="100%" />
    <circle
       style="opacity:1;fill:#ffffff;fill-opacity:1;fill-rule:nonzero;stroke:none;stroke-width:2;stroke-linecap:round;stroke-linejoin:round;stroke-miterlimit:4;stroke-dasharray:none;stroke-dashoffset:0;stroke-opacity:1;paint-order:markers stroke fill"
       id="path17"
       cx="105"
       cy="-228"
       r="95" />
    <use
       x="0"
       y="0"
       xlink:href="#path17"
       id="use3040"
       transform="translate(0,430)"
       width="100%"
       height="100%" />
    <path
       id="path354"
       style="fill:#000000;stroke:none;stroke-width:0.03527778"
       d="m 104.17486,-155.73939 v 8.30027 h 0.80978 0.80979 v -8.30027 -8.30028 h -0.80979 -0.80978 z m 0,-19.13113 v 9.00884 h 0.80978 0.80979 v -9.00884 -9.00883 h -0.80979 -0.80978 z m 0,-19.63725 v 8.80639 h 0.80978 0.80979 v -8.80639 -8.80639 h -0.80979 -0.80978 z m 64.37777,-33.50478 v 0.80978 h 8.30028 8.30027 v -0.80978 -0.80978 h -8.30027 -8.30028 z m -19.83969,0 v 0.80978 h 9.00884 9.00884 v -0.80978 -0.80978 h -9.00884 -9.00884 z m -19.35382,-0.52636 c -0.0607,0.16196 -0.081,0.50611 -0.0405,0.76929 l 0.0607,0.46563 8.76591,0.0607 8.74566,0.0404 v -0.80978 -0.80978 h -8.70518 c -7.36902,0 -8.72541,0.0405 -8.82663,0.28342 z m -67.090541,0.52636 v 1.05272 l 8.867132,-0.14171 c 4.8587,-0.081 8.907608,-0.1822 9.00883,-0.24294 0.081,-0.0405 0.141711,-0.34416 0.141711,-0.66807 v -0.56685 l -2.064941,-0.12146 c -1.15394,-0.0607 -5.202862,-0.16196 -9.00884,-0.24294 l -6.943892,-0.12146 z m -19.839689,0.0203 v 1.45761 l 5.93166,-0.12147 c 3.23914,-0.081 7.3083,-0.14171 9.00884,-0.14171 h 3.07717 v -1.09321 -1.09321 l -2.06494,-0.12147 c -1.153941,-0.0607 -5.202859,-0.16195 -9.00884,-0.24293 l -6.94389,-0.12148 z m -17.81523,-0.0203 v 1.84226 l 7.75367,-0.12147 c 4.25136,-0.081 7.8549,-0.16196 7.99661,-0.22269 0.16196,-0.0405 0.24294,-0.52636 0.24294,-1.47785 v -1.39688 l -2.2674,-0.12147 c -1.25516,-0.0607 -4.8587,-0.16196 -7.9966,-0.22269 l -5.72922,-0.10122 z m 77.94164,-13.82705 c -1.05273,0.16196 -3.1784,0.93125 -4.352589,1.53859 -1.619571,0.85027 -4.656249,3.88696 -5.50653,5.50652 -1.113451,2.14593 -1.4981,3.62379 -1.619559,6.17461 -0.121471,2.81399 0.202438,4.41331 1.356378,6.78193 1.457611,2.97595 3.583292,5.08139 6.579492,6.49851 2.064948,0.99198 3.542808,1.29565 5.972148,1.31589 2.49009,0 3.90721,-0.32391 6.1746,-1.41711 3.68452,-1.76128 6.41753,-5.12188 7.4905,-9.23154 0.40488,-1.59931 0.40488,-5.08138 0,-6.6807 -0.72881,-2.79376 -2.6318,-5.8102 -4.71699,-7.4905 -1.43737,-1.15394 -3.98818,-2.40911 -5.70898,-2.814 -1.21467,-0.28342 -4.41331,-0.38464 -5.66847,-0.1822 z m 5.36481,2.18642 c 2.20666,0.56685 3.725,1.45761 5.48628,3.21888 2.51033,2.51033 3.5428,4.93968 3.5428,8.42175 0,3.34035 -1.15394,6.1746 -3.46182,8.50273 -2.34838,2.32812 -5.0814,3.44157 -8.52297,3.44157 -3.50231,0 -5.87093,-0.99198 -8.401508,-3.52256 -2.46983,-2.46983 -3.522551,-4.98016 -3.522551,-8.38125 0,-3.42133 1.072959,-5.9924 3.542799,-8.44199 1.72079,-1.72079 3.279622,-2.65204 5.38506,-3.21889 1.45761,-0.38464 4.45381,-0.40489 5.95191,-0.0203 z m -5.44579,-6.55925 c -5.54702,0.74905 -10.790369,4.37283 -13.58412,9.37324 -2.813989,5.04091 -2.975949,11.55966 -0.42514,16.82325 4.777732,9.79838 16.70178,13.36142 26.07502,7.77392 1.88275,-1.11345 4.59553,-3.725 5.85069,-5.62799 6.19484,-9.45423 2.53057,-22.08684 -7.81441,-26.86456 -2.83424,-1.3159 -6.94389,-1.92324 -10.10204,-1.47786 z m 6.66046,2.40911 c 4.53479,1.15394 8.50273,4.39307 10.52719,8.60394 1.33614,2.73302 1.59931,3.98819 1.61956,7.18683 0,3.29987 -0.28342,4.4943 -1.74103,7.4905 -0.91101,1.82201 -1.29566,2.34837 -2.89498,3.96793 -3.5428,3.5428 -7.59172,5.14213 -12.47066,4.87895 -2.61155,-0.14172 -4.00843,-0.50612 -6.377039,-1.66006 -4.251359,-2.0447 -7.38928,-5.89117 -8.624191,-10.52718 -0.566849,-2.14593 -0.627579,-5.85068 -0.10123,-7.89539 1.660059,-6.49851 7.02487,-11.41794 13.58412,-12.43017 1.6803,-0.26318 4.61576,-0.10122 6.47826,0.38465 z m -5.08139,-19.69798 c 0.081,3.76549 0.1822,7.77392 0.24294,8.90762 l 0.12146,2.08519 h 0.56685 c 0.32391,0 0.62758,-0.0607 0.66808,-0.16196 0.0607,-0.081 0.16195,-4.0894 0.24293,-8.90761 l 0.14171,-8.74566 h -1.05272 -1.05271 z m -0.40489,-19.94091 c 0.081,3.70476 0.1822,7.77392 0.24294,9.00884 l 0.12147,2.28764 h 0.97173 c 0.54661,0 1.03248,-0.0607 1.07296,-0.16196 0.0607,-0.081 0.16196,-4.1299 0.24294,-9.00884 l 0.14171,-8.84688 h -1.45761 -1.45761 z m -0.38465,-18.92868 c 0.0607,3.21888 0.16196,6.86291 0.22269,8.09783 l 0.12147,2.28764 h 1.39688 c 0.95149,0 1.43736,-0.081 1.49809,-0.26319 0.0405,-0.12146 0.12147,-3.76549 0.20245,-8.09783 l 0.12147,-7.83465 h -1.84226 -1.82201 z m -2.73301,-10.52719 c -12.227729,0.83003 -22.14758,3.38085 -32.29011,8.23955 -16.924469,8.11808 -30.89323,21.8439 -39.25424,38.56592 -12.67311,25.30573 -11.90381,55.44991 2.06494,80.08757 1.63982,2.89497 5.40531,8.44199 7.65246,11.23574 2.77351,3.46183 9.5352,10.24376 12.83506,12.87556 8.138321,6.47827 16.51958,11.11427 25.93331,14.3534 12.470662,4.27161 26.17624,5.56727 39.43644,3.72501 23.03833,-3.21889 43.7283,-15.81101 57.3529,-34.90165 13.17922,-18.44283 18.32135,-41.09651 14.51537,-63.87167 -0.60735,-3.58329 -2.04472,-9.19104 -3.32012,-12.93629 -3.23913,-9.41372 -7.87514,-17.79498 -14.3534,-25.9333 -2.6318,-3.32012 -9.43398,-10.0818 -12.87556,-12.83507 -2.814,-2.24714 -8.38126,-6.05313 -11.23574,-7.65245 -11.19525,-6.33656 -23.5242,-10.00082 -36.54147,-10.89159 -2.71277,-0.1822 -7.77392,-0.22268 -9.91984,-0.0607 z m 10.87134,2.95571 c 0.0405,0.0607 -0.10123,1.72079 -0.32392,3.72501 -1.84226,15.79077 -2.81399,30.65029 -2.9962,45.40859 l -0.12147,10.02107 h -2.99619 -3.01645 v -7.69294 c 0,-9.81863 -0.32391,-17.41034 -1.21467,-29.05097 -0.52636,-6.80219 -1.741029,-19.02991 -2.145929,-21.7022 l -0.121459,-0.74905 1.4981,-0.081 c 1.862498,-0.12147 11.296468,0 11.438188,0.12147 z m -17.268629,1.59932 c 1.963719,6.9034 3.48207,16.51958 4.57527,29.31416 0.668079,7.97636 0.99199,13.66509 1.498099,26.64187 l 0.081,2.0447 -1.052718,0.26318 c -0.566851,0.14171 -1.133692,0.30367 -1.255162,0.34416 -0.141719,0.0607 -0.263178,-1.1337 -0.344159,-3.78574 -0.688319,-19.57651 -3.805981,-42.33142 -7.409519,-53.85059 -0.222681,-0.70856 -0.384651,-1.33614 -0.344152,-1.37663 0.101222,-0.081 2.93546,-0.60734 3.502311,-0.62758 0.3644,-0.0203 0.48587,0.16196 0.749049,1.03247 z m 24.192269,-0.74905 c 0.93125,0.16196 1.74103,0.32392 1.78153,0.3644 0.0405,0.0405 -0.34416,1.47786 -0.83003,3.2189 -2.6318,9.15055 -4.8587,23.26102 -6.09362,38.62666 -0.38465,5.00041 -0.91101,13.8068 -0.91101,15.77053 0,1.2754 -0.0405,1.45761 -0.32391,1.35638 -0.1822,-0.081 -0.74905,-0.22269 -1.25517,-0.3644 l -0.911,-0.22269 0.12147,-4.6765 c 0.38464,-13.17922 1.59932,-28.74731 3.09742,-39.09228 0.97174,-6.7617 2.85449,-15.28466 3.40109,-15.28466 0.12146,0 0.99198,0.14171 1.92323,0.30366 z m -32.107898,3.7655 c 5.648229,13.32093 9.352989,33.86918 9.474459,52.71688 l 0.02029,3.64403 -0.668079,0.38465 c -4.87894,2.75326 -7.713181,5.46603 -10.021062,9.57568 l -0.971738,1.74104 -6.093621,-0.12147 c -14.980983,-0.30367 -30.022705,-2.57106 -42.189701,-6.33656 -4.65625,-1.4576 -10.54742,-3.74524 -10.54742,-4.12989 0,-0.081 0.3644,-1.35638 0.78954,-2.85449 4.33234,-14.77854 11.74186,-26.78358 23.099057,-37.49296 8.259789,-7.81441 19.0704,-14.21169 30.083448,-17.83547 2.894971,-0.9515 5.587503,-1.72079 5.850681,-1.66006 0.12147,0.0405 0.64783,1.09321 1.174192,2.36862 z m 43.566338,-1.01223 c 7.30829,2.2269 16.27664,6.7212 22.97759,11.51917 5.40531,3.84646 12.167,10.264 16.27665,15.38588 8.34076,10.42595 13.92826,22.41075 16.49933,35.32679 0.50612,2.55082 0.83002,4.83846 1.31589,9.08982 l 0.0607,0.58709 -9.83887,-0.12147 c -12.26821,-0.16195 -19.35381,-0.48587 -30.18466,-1.37663 -9.73765,-0.78954 -21.6617,-2.34837 -21.6617,-2.814 0,-0.081 -0.44538,-0.85027 -1.01223,-1.6803 -1.96373,-3.03668 -5.48629,-6.23533 -8.58371,-7.83465 l -1.37663,-0.70856 0.12147,-4.91943 c 0.50611,-20.02189 3.88696,-38.26226 9.51495,-51.60344 l 0.9515,-2.24715 1.45761,0.38465 c 0.80978,0.22269 2.36861,0.66807 3.48207,1.01223 z m -20.5685,57.98047 c 10.12229,2.12569 17.08643,11.15477 16.56007,21.43902 -0.28343,5.38506 -2.38886,10.06155 -6.25558,13.8068 -3.76549,3.68452 -8.19906,5.628 -13.4424,5.89118 -14.292669,0.74904 -25.022298,-12.79458 -21.013869,-26.58114 2.631789,-9.15055 11.29647,-15.38588 20.770939,-14.9405 1.07296,0.0405 2.5913,0.22269 3.38084,0.38464 z m -82.90156,5.87094 c 11.27623,3.42133 34.17286,6.51875 52.65616,7.10584 2.125681,0.0607 3.947692,0.14171 4.0894,0.1822 0.161962,0.0607 0.141711,0.40489 -0.101219,1.29566 l -0.323922,1.21467 -2.145919,-0.081 c -1.174178,-0.0607 -4.494289,-0.20244 -7.38927,-0.32391 -15.851499,-0.62758 -30.71103,-2.0447 -40.79283,-3.9072 -3.23913,-0.60734 -8.28004,-1.84226 -8.56346,-2.12568 -0.16196,-0.16196 0.081,-2.40911 0.38465,-3.52256 0.14171,-0.44538 0.22269,-0.44538 2.18641,0.16196 z m 108.93609,7.0856 c 15.12271,1.25516 30.26565,1.92323 43.89024,1.92323 6.13411,0 7.83466,0.0607 7.83466,0.24294 0,0.14171 0.0607,0.60734 0.12147,1.01223 l 0.14172,0.76929 h -7.06537 c -13.64484,0 -33.12013,-0.85027 -47.14962,-2.02446 -6.31631,-0.5466 -5.87093,-0.42513 -6.25558,-1.55883 -0.1822,-0.52636 -0.32391,-0.99198 -0.32391,-1.03248 0,-0.0607 0.66807,-0.0405 1.47785,0.0405 0.78954,0.081 4.10965,0.3644 7.32854,0.62758 z m -107.3975,1.51834 c 18.15939,1.96373 32.45207,2.83424 46.56254,2.83424 h 7.794159 v 3.01644 2.9962 l -10.223507,0.12147 c -9.940092,0.12147 -12.450422,0.22269 -22.167821,0.85028 -5.830441,0.38464 -16.661291,1.37662 -22.350011,2.02445 -2.38886,0.28342 -4.37283,0.48587 -4.39308,0.44538 -0.1822,-0.1822 -0.32391,-7.36903 -0.1822,-9.91984 l 0.14171,-2.9962 0.5466,0.10122 c 0.28343,0.0607 2.20666,0.28343 4.27161,0.52636 z m 108.00484,2.32813 c 10.52718,0.62758 29.31415,1.09321 44.29514,1.11345 h 7.02488 v 2.49008 2.49009 l -12.79458,0.0405 c -12.69336,0.0405 -23.44323,0.26318 -32.04717,0.64782 -3.90721,0.18221 -13.23996,0.74905 -14.37366,0.87052 -0.26317,0.0203 -0.38464,-0.0607 -0.32391,-0.26317 0.1822,-0.80979 0.24294,-5.70898 0.0607,-6.7617 l -0.18221,-1.19443 1.74103,0.14172 c 0.9515,0.0607 3.92745,0.26318 6.59974,0.42513 z m 51.32002,7.22732 c 0,0.14171 -0.0607,0.60733 -0.12147,1.01222 l -0.14172,0.7693 h -6.90339 c -15.22394,0 -38.30275,1.15394 -52.08932,2.61155 -0.80978,0.081 -1.47785,0.081 -1.47785,0.0202 0,-0.081 0.14171,-0.5466 0.32391,-1.05271 0.36441,-1.09321 0,-0.99199 5.54702,-1.47786 8.66468,-0.74905 19.55626,-1.37663 29.86076,-1.72079 8.92786,-0.30367 9.57568,-0.32391 17.77474,-0.3644 5.66848,-0.0405 7.22732,0.0203 7.22732,0.20245 z m -104.279839,2.06494 c 0.12146,0.48587 0.263178,1.01223 0.323911,1.17419 0.101219,0.26318 -0.425141,0.32391 -3.48207,0.44538 -20.426781,0.76929 -42.351662,3.74525 -53.931562,7.28805 l -1.57908,0.48587 -0.10122,-0.52636 c -0.38465,-1.94348 -0.54661,-3.34036 -0.40489,-3.48207 0.30366,-0.30367 6.70095,-1.78152 10.40571,-2.42935 8.82664,-1.51834 22.04635,-2.79375 35.42802,-3.44158 2.51033,-0.12147 5.061141,-0.24293 5.668481,-0.26318 0.607341,-0.0405 2.530571,-0.081 4.271611,-0.10122 l 3.178389,-0.0405 z m 103.976169,1.78152 c -0.64783,5.628 -1.21468,8.88738 -2.22691,12.81483 -3.32012,12.95652 -9.67691,24.73887 -18.84771,34.96239 -10.34497,11.51916 -24.67814,20.20409 -39.9628,24.23276 -4.10965,1.07296 -10.16278,2.12569 -13.32093,2.28764 l -1.07297,0.0607 0.0203,-6.27582 c 0.0203,-18.78698 1.66006,-41.58238 3.86671,-53.91133 l 0.2227,-1.27541 1.96372,-1.2754 c 2.44959,-1.61957 4.95992,-4.1299 6.51876,-6.47827 0.64782,-0.99198 1.19443,-1.88275 1.19443,-1.96373 0,-0.34415 8.30027,-1.53859 15.99322,-2.28764 12.53139,-1.25516 24.59716,-1.86249 38.12054,-1.90299 l 7.65246,-0.0404 z m -102.336358,2.69254 c 1.518338,3.11766 4.959919,6.98437 7.996608,8.96834 0.890762,0.56685 1.680292,1.07296 1.76127,1.09321 0.1822,0.081 1.07297,5.64824 1.6803,10.48669 0.911011,7.47025 1.639821,16.78276 2.125692,26.62163 0.303659,6.21509 0.627578,24.25301 0.465619,24.41497 -0.101219,0.081 -1.336141,0.0203 -2.793749,-0.14171 -32.998672,-3.70477 -60.531302,-26.98603 -69.762822,-58.99272 -0.42514,-1.4981 -0.78955,-2.79375 -0.78955,-2.85449 0,-0.24293 5.04091,-2.2269 8.70518,-3.44157 13.098239,-4.33234 29.779779,-6.86292 46.400571,-7.02487 l 3.765489,-0.0405 z m 13.422148,11.55965 c 1.093211,0.3644 0.971741,-0.0405 1.457611,5.44579 0.688319,7.99661 1.295659,17.77475 1.741039,28.84853 0.28342,7.20707 0.52636,25.93331 0.32391,26.05477 -0.081,0.0405 -0.54661,0.0203 -1.05272,-0.0607 l -0.910999,-0.12147 v -7.73342 c 0,-14.17121 -0.789541,-30.81225 -2.226911,-47.4938 -0.24293,-2.61154 -0.465619,-4.87894 -0.506108,-5.02065 -0.121471,-0.32391 0.0405,-0.30367 1.174178,0.081 z m 15.22393,0.12146 c -0.12147,0.5871 -1.01223,11.2155 -1.41712,17.06619 -0.78954,11.55965 -1.3159,25.95355 -1.3159,36.25804 v 6.70096 l -0.74905,0.14171 c -0.42514,0.0607 -0.89076,0.12147 -1.05272,0.12147 -0.52635,0 -0.12147,-20.95314 0.68832,-36.54147 0.44538,-8.60395 1.57908,-23.30151 1.80176,-23.5242 0.10123,-0.10123 1.63981,-0.64783 1.90299,-0.64783 0.16196,-0.0203 0.2227,0.14172 0.14172,0.42513 z m -7.28805,0.91101 c 1.45761,-0.0607 2.79375,-0.16195 2.9962,-0.24293 0.32391,-0.14171 0.3644,-0.081 0.26318,0.52636 -0.16196,0.93125 -0.66807,8.9481 -0.93126,14.55585 -0.38464,8.72542 -0.60733,19.41456 -0.64782,31.94596 l -0.0405,12.61237 -2.46984,-0.0607 -2.4496,-0.0607 -0.14171,-13.96876 c -0.16196,-18.34158 -0.52636,-30.20491 -1.25516,-40.16524 -0.14171,-2.2674 -0.28343,-4.41332 -0.28343,-4.77773 v -0.64782 l 1.17419,0.1822 c 0.62758,0.12147 2.34837,0.16196 3.78574,0.10122 z"
       inkscape:connector-curvature="0" />
    <path
       style="opacity:1;fill:none;fill-opacity:1;fill-rule:nonzero;stroke:#000000;stroke-width:1.5;stroke-linecap:round;stroke-linejoin:round;stroke-miterlimit:4;stroke-dasharray:none;stroke-dashoffset:0;stroke-opacity:1;paint-order:markers stroke fill"
       id="path972"
       sodipodi:type="arc"
       sodipodi:cx="105.00001"
       sodipodi:cy="-227.99977"
       sodipodi:rx="43.25"
       sodipodi:ry="43.25"
       sodipodi:start="5.2708943"
       sodipodi:end="5.7246799"
       d="m 127.91901,-264.67785 a 43.25,43.25 0 0 1 13.75908,13.75907"
       sodipodi:open="true" />
    <path
       id="circle974"
       style="opacity:1;fill:none;fill-opacity:1;fill-rule:nonzero;stroke:#000000;stroke-width:1.5;stroke-linecap:round;stroke-linejoin:round;stroke-miterlimit:4;stroke-dasharray:none;stroke-dashoffset:0;stroke-opacity:1;paint-order:markers stroke fill"
       sodipodi:type="arc"
       sodipodi:cx="105.00001"
       sodipodi:cy="-227.99974"
       sodipodi:rx="64.25"
       sodipodi:ry="64.25"
       sodipodi:start="5.2708943"
       sodipodi:end="5.7246799"
       d="m 139.04732,-282.48683 a 64.25,64.25 0 0 1 20.43978,20.43977"
       sodipodi:open="true" />
    <path
       sodipodi:open="true"
       d="m 68.321927,-250.91878 a 43.25,43.25 0 0 1 13.759072,-13.75907"
       sodipodi:end="4.1538836"
       sodipodi:start="3.700098"
       sodipodi:ry="43.25"
       sodipodi:rx="43.25"
       sodipodi:cy="-227.99977"
       sodipodi:cx="105.00001"
       sodipodi:type="arc"
       id="path1019"
       style="opacity:1;fill:none;fill-opacity:1;fill-rule:nonzero;stroke:#000000;stroke-width:1.5;stroke-linecap:round;stroke-linejoin:round;stroke-miterlimit:4;stroke-dasharray:none;stroke-dashoffset:0;stroke-opacity:1;paint-order:markers stroke fill" />
    <path
       sodipodi:open="true"
       d="m 50.512917,-262.04705 a 64.25,64.25 0 0 1 20.439777,-20.43978"
       sodipodi:end="4.1538836"
       sodipodi:start="3.700098"
       sodipodi:ry="64.25"
       sodipodi:rx="64.25"
       sodipodi:cy="-227.99974"
       sodipodi:cx="105.00001"
       sodipodi:type="arc"
       style="opacity:1;fill:none;fill-opacity:1;fill-rule:nonzero;stroke:#000000;stroke-width:1.5;stroke-linecap:round;stroke-linejoin:round;stroke-miterlimit:4;stroke-dasharray:none;stroke-dashoffset:0;stroke-opacity:1;paint-order:markers stroke fill"
       id="path1021" />
    <path
       style="opacity:1;fill:none;fill-opacity:1;fill-rule:nonzero;stroke:#000000;stroke-width:1.5;stroke-linecap:round;stroke-linejoin:round;stroke-miterlimit:4;stroke-dasharray:none;stroke-dashoffset:0;stroke-opacity:1;paint-order:markers stroke fill"
       id="path1023"
       sodipodi:type="arc"
       sodipodi:cx="105.00001"
       sodipodi:cy="-227.99977"
       sodipodi:rx="43.25"
       sodipodi:ry="43.25"
       sodipodi:start="2.1293017"
       sodipodi:end="2.5830873"
       d="M 82.080999,-191.32169 A 43.25,43.25 0 0 1 68.321927,-205.08076"
       sodipodi:open="true" />
    <path
       id="path1025"
       style="opacity:1;fill:none;fill-opacity:1;fill-rule:nonzero;stroke:#000000;stroke-width:1.5;stroke-linecap:round;stroke-linejoin:round;stroke-miterlimit:4;stroke-dasharray:none;stroke-dashoffset:0;stroke-opacity:1;paint-order:markers stroke fill"
       sodipodi:type="arc"
       sodipodi:cx="105.00001"
       sodipodi:cy="-227.99974"
       sodipodi:rx="64.25"
       sodipodi:ry="64.25"
       sodipodi:start="2.1293017"
       sodipodi:end="2.5830873"
       d="M 70.952694,-173.51265 A 64.25,64.25 0 0 1 50.512917,-193.95243"
       sodipodi:open="true" />
    <path
       sodipodi:open="true"
       d="m 141.67809,-205.08076 a 43.25,43.25 0 0 1 -13.75908,13.75907"
       sodipodi:end="1.012291"
       sodipodi:start="0.55850536"
       sodipodi:ry="43.25"
       sodipodi:rx="43.25"
       sodipodi:cy="-227.99977"
       sodipodi:cx="105.00001"
       sodipodi:type="arc"
       id="path1027"
       style="opacity:1;fill:none;fill-opacity:1;fill-rule:nonzero;stroke:#000000;stroke-width:1.5;stroke-linecap:round;stroke-linejoin:round;stroke-miterlimit:4;stroke-dasharray:none;stroke-dashoffset:0;stroke-opacity:1;paint-order:markers stroke fill" />
    <path
       sodipodi:open="true"
       d="m 159.4871,-193.95243 a 64.25,64.25 0 0 1 -20.43978,20.43978"
       sodipodi:end="1.012291"
       sodipodi:start="0.55850536"
       sodipodi:ry="64.25"
       sodipodi:rx="64.25"
       sodipodi:cy="-227.99974"
       sodipodi:cx="105.00001"
       sodipodi:type="arc"
       style="opacity:1;fill:none;fill-opacity:1;fill-rule:nonzero;stroke:#000000;stroke-width:1.5;stroke-linecap:round;stroke-linejoin:round;stroke-miterlimit:4;stroke-dasharray:none;stroke-dashoffset:0;stroke-opacity:1;paint-order:markers stroke fill"
       id="path1029" />
    <text
       xml:space="preserve"
       style="font-style:normal;font-variant:normal;font-weight:bold;font-stretch:normal;font-size:16.7291317px;line-height:1000;font-family:'Tlwg Typewriter';-inkscape-font-specification:'Tlwg Typewriter Bold';letter-spacing:0px;word-spacing:0px;fill:#000000;fill-opacity:1;stroke:none;stroke-width:0.26458332"
       x="105.44905"
       y="-202.34698"
       id="text1083"
       transform="scale(0.91034354,1.0984864)"><tspan
         sodipodi:role="line"
         id="tspan1081"
         x="105.44905"
         y="-202.34698"
         style="font-style:normal;font-variant:normal;font-weight:bold;font-stretch:normal;font-family:'Tlwg Typewriter';-inkscape-font-specification:'Tlwg Typewriter Bold';letter-spacing:0px;stroke-width:0.26458332">30</tspan></text>
    <g
       id="g1148"
       transform="rotate(-45,113.81898,-135.48618)">
      <rect
         y="-171"
         x="164"
         height="12"
         width="18"
         id="rect1139"
         style="opacity:1;fill:#ffffff;fill-opacity:1;fill-rule:nonzero;stroke:none;stroke-width:1.5;stroke-linecap:round;stroke-linejoin:round;stroke-miterlimit:4;stroke-dasharray:none;stroke-dashoffset:0;stroke-opacity:1;paint-order:markers stroke fill" />
      <text
         xml:space="preserve"
         style="font-style:normal;font-variant:normal;font-weight:bold;font-stretch:normal;font-size:16.7291317px;line-height:1000;font-family:'Tlwg Typewriter';-inkscape-font-specification:'Tlwg Typewriter Bold';letter-spacing:0px;word-spacing:0px;fill:#000000;fill-opacity:1;stroke:none;stroke-width:0.26458332"
         x="180.14613"
         y="-144.99556"
         id="text1143"
         transform="scale(0.91034355,1.0984864)"><tspan
           sodipodi:role="line"
           id="tspan1141"
           x="180.14613"
           y="-144.99556"
           style="font-style:normal;font-variant:normal;font-weight:bold;font-stretch:normal;font-family:'Tlwg Typewriter';-inkscape-font-specification:'Tlwg Typewriter Bold';letter-spacing:0px;stroke-width:0.26458332">30</tspan></text>
    </g>
    <g
       transform="rotate(-45,138.51853,-145.71707)"
       id="g1156">
      <rect
         style="opacity:1;fill:#ffffff;fill-opacity:1;fill-rule:nonzero;stroke:none;stroke-width:1.5;stroke-linecap:round;stroke-linejoin:round;stroke-miterlimit:4;stroke-dasharray:none;stroke-dashoffset:0;stroke-opacity:1;paint-order:markers stroke fill"
         id="rect1150"
         width="18"
         height="12"
         x="164"
         y="-171" />
      <text
         transform="scale(0.91034355,1.0984864)"
         id="text1154"
         y="-144.99556"
         x="180.14613"
         style="font-style:normal;font-variant:normal;font-weight:bold;font-stretch:normal;font-size:16.7291317px;line-height:1000;font-family:'Tlwg Typewriter';-inkscape-font-specification:'Tlwg Typewriter Bold';letter-spacing:0px;word-spacing:0px;fill:#000000;fill-opacity:1;stroke:none;stroke-width:0.26458332"
         xml:space="preserve"><tspan
           style="font-style:normal;font-variant:normal;font-weight:bold;font-stretch:normal;font-family:'Tlwg Typewriter';-inkscape-font-specification:'Tlwg Typewriter Bold';letter-spacing:0px;stroke-width:0.26458332"
           y="-144.99556"
           x="180.14613"
           id="tspan1152"
           sodipodi:role="line">35</tspan></text>
    </g>
    <g
       id="g1164"
       transform="rotate(-45,12.086144,-93.347066)">
      <rect
         y="-171"
         x="164"
         height="12"
         width="18"
         id="rect1158"
         style="opacity:1;fill:#ffffff;fill-opacity:1;fill-rule:nonzero;stroke:none;stroke-width:1.5;stroke-linecap:round;stroke-linejoin:round;stroke-miterlimit:4;stroke-dasharray:none;stroke-dashoffset:0;stroke-opacity:1;paint-order:markers stroke fill" />
      <text
         xml:space="preserve"
         style="font-style:normal;font-variant:normal;font-weight:bold;font-stretch:normal;font-size:16.7291317px;line-height:1000;font-family:'Tlwg Typewriter';-inkscape-font-specification:'Tlwg Typewriter Bold';letter-spacing:0px;word-spacing:0px;fill:#000000;fill-opacity:1;stroke:none;stroke-width:0.26458332"
         x="180.14613"
         y="-144.99556"
         id="text1162"
         transform="scale(0.91034355,1.0984864)"><tspan
           sodipodi:role="line"
           id="tspan1160"
           x="180.14613"
           y="-144.99556"
           style="font-style:normal;font-variant:normal;font-weight:bold;font-stretch:normal;font-family:'Tlwg Typewriter';-inkscape-font-specification:'Tlwg Typewriter Bold';letter-spacing:0px;stroke-width:0.26458332">25</tspan></text>
    </g>
    <g
       transform="rotate(-45,-12.613406,-83.116176)"
       id="g1180">
      <rect
         style="opacity:1;fill:#ffffff;fill-opacity:1;fill-rule:nonzero;stroke:none;stroke-width:1.5;stroke-linecap:round;stroke-linejoin:round;stroke-miterlimit:4;stroke-dasharray:none;stroke-dashoffset:0;stroke-opacity:1;paint-order:markers stroke fill"
         id="rect1174"
         width="18"
         height="12"
         x="164"
         y="-171" />
      <text
         transform="scale(0.91034355,1.0984864)"
         id="text1178"
         y="-144.99556"
         x="180.14613"
         style="font-style:normal;font-variant:normal;font-weight:bold;font-stretch:normal;font-size:16.7291317px;line-height:1000;font-family:'Tlwg Typewriter';-inkscape-font-specification:'Tlwg Typewriter Bold';letter-spacing:0px;word-spacing:0px;fill:#000000;fill-opacity:1;stroke:none;stroke-width:0.26458332"
         xml:space="preserve"><tspan
           style="font-style:normal;font-variant:normal;font-weight:bold;font-stretch:normal;font-family:'Tlwg Typewriter';-inkscape-font-specification:'Tlwg Typewriter Bold';letter-spacing:0px;stroke-width:0.26458332"
           y="-144.99556"
           x="180.14613"
           id="tspan1176"
           sodipodi:role="line">20</tspan></text>
    </g>
  </g>
</svg>
