<?xml version="1.0" encoding="UTF-8" standalone="no"?>
<!-- Created with Inkscape (http://www.inkscape.org/) -->

<svg
   xmlns:dc="http://purl.org/dc/elements/1.1/"
   xmlns:cc="http://creativecommons.org/ns#"
   xmlns:rdf="http://www.w3.org/1999/02/22-rdf-syntax-ns#"
   xmlns:svg="http://www.w3.org/2000/svg"
   xmlns="http://www.w3.org/2000/svg"
   xmlns:sodipodi="http://sodipodi.sourceforge.net/DTD/sodipodi-0.dtd"
   xmlns:inkscape="http://www.inkscape.org/namespaces/inkscape"
   width="620mm"
   height="220mm"
   viewBox="0 0 620 220"
   version="1.1"
   id="svg8"
   inkscape:version="0.92.2 (5c3e80d, 2017-08-06)"
   sodipodi:docname="top.svg">
  <defs
     id="defs2" />
  <sodipodi:namedview
     id="base"
     pagecolor="#ffffff"
     bordercolor="#666666"
     borderopacity="1.0"
     inkscape:pageopacity="0.0"
     inkscape:pageshadow="2"
     inkscape:zoom="0.35"
     inkscape:cx="1127.8281"
     inkscape:cy="416.61598"
     inkscape:document-units="mm"
     inkscape:current-layer="layer1"
     showgrid="true"
     inkscape:window-width="1366"
     inkscape:window-height="715"
     inkscape:window-x="0"
     inkscape:window-y="0"
     inkscape:window-maximized="1">
    <inkscape:grid
       type="xygrid"
       id="grid29"
       units="mm"
       spacingx="1"
       spacingy="1" />
  </sodipodi:namedview>
  <metadata
     id="metadata5">
    <rdf:RDF>
      <cc:Work
         rdf:about="">
        <dc:format>image/svg+xml</dc:format>
        <dc:type
           rdf:resource="http://purl.org/dc/dcmitype/StillImage" />
        <dc:title></dc:title>
      </cc:Work>
    </rdf:RDF>
  </metadata>
  <g
     inkscape:label="Layer 1"
     inkscape:groupmode="layer"
     id="layer1"
     transform="translate(0,-77)">
    <path
       d="m 248.40003,211.43576 c 0.16475,0.33761 0.3683,0.76976 0.16157,1.13206 -0.29704,0.29281 -0.77787,0.26459 -1.16099,0.2212 -0.52917,-0.11113 -0.95179,-0.53376 -1.11619,-1.04105 0.7105,0.14958 1.46897,-0.0406 2.11561,-0.31221 m -10.52512,-0.30727 c 0.85619,0.5274 1.93181,0.38876 2.85679,0.14182 0.0854,0.39476 -0.36936,0.63112 -0.70485,0.60042 -0.0572,-0.11712 -0.13441,-0.35983 -0.31327,-0.26811 -1.02552,0.37219 -2.16111,0.62619 -3.24167,0.38241 -0.10689,-0.0102 -0.12065,-0.067 -0.0303,-0.13299 0.39158,-0.34819 0.89217,-0.57679 1.38606,-0.75248 l 0.0342,0.0208 z m 0.88053,-9.85484 c 2.15335,0.81068 4.59175,0.84596 6.7691,0.0949 0.40675,0.65475 0.76623,1.3409 1.04598,2.06445 0.85443,2.14771 1.46685,4.39349 1.81681,6.67702 0.012,0.31715 0.0825,0.7747 -0.26106,0.94333 -0.59584,0.22613 -1.29575,0.42298 -1.92334,0.19297 -0.53728,-0.22543 -0.72672,-0.81386 -0.90593,-1.3148 -0.82056,-2.0888 -2.01754,-4.00015 -3.1369,-5.93901 -0.0843,-0.0984 -0.16299,-0.39511 -0.32985,-0.27658 -0.0459,0.2353 0.12982,0.46743 0.18803,0.6925 0.13723,0.24412 -0.0921,0.50235 -0.11783,0.75671 -0.45191,1.7018 -0.81809,3.44275 -0.89006,5.20805 -0.031,0.15029 0.0875,0.41205 -0.13828,0.42792 -0.83009,0.26212 -1.78718,0.45226 -2.6095,0.0843 -0.13512,-0.0459 -0.24165,-0.12982 -0.20461,-0.28611 -0.10866,-2.79188 0.42968,-5.55166 0.6036,-8.32872 0.0141,-0.34043 0.008,-0.68086 0.0222,-1.02129 l 0.0381,0.013 z m 7.34448,-2.13325 c 0.31997,0.44697 0.84349,0.74189 1.38571,0.81245 -0.26599,0.2734 -0.43462,0.76482 -0.1718,1.09114 0.13899,0.1524 0.45508,0.30515 0.58843,0.0639 0.11289,-0.19262 -0.096,-0.38841 -0.28363,-0.37501 -0.0952,-0.0896 -0.002,-0.26564 0.0388,-0.37006 0.0543,-0.12065 0.19649,-0.30551 0.32737,-0.16157 0.28258,0.18133 0.41099,0.58102 0.2032,0.86748 -0.0995,0.14217 -0.12629,0.37394 -0.28328,0.45543 -0.57255,0.0794 -1.16769,0.002 -1.73566,-0.0942 -0.31786,-0.63817 -0.5648,-1.43263 -0.20214,-2.11243 0.0339,-0.0459 0.0864,-0.18979 0.13299,-0.17709 m 0.19579,-3.33834 c 0.23249,0.0529 0.46779,0.11501 0.69956,0.15699 -0.70238,0.6671 -0.98037,1.65311 -1.14829,2.58162 -0.0501,0.12842 0.11853,0.2593 -0.0452,0.34396 -0.14323,0.2406 -0.13511,0.0949 -0.11183,-0.11571 0.0751,-1.00824 0.26846,-2.01295 0.58314,-2.97039 z m -15.95331,-3.3468 c 0.60501,0.006 1.26364,0.0402 1.77941,0.38876 0.22577,0.16122 -0.0325,0.44803 -0.2219,0.49389 -0.62371,0.17321 -1.31375,0.0762 -1.89477,-0.18415 -0.24941,-0.0692 -0.35243,-0.4759 -0.0741,-0.58314 0.12594,-0.0699 0.26423,-0.11854 0.41134,-0.11536 m 3.36197,-1.1497 c 0.32879,0.95567 -0.20214,1.99037 -0.89429,2.64089 -0.0903,0.14887 -0.26035,0.0854 -0.39229,0.0536 0.7313,-0.41451 0.99377,-1.29716 1.03716,-2.09021 0.0529,-0.20179 0.20991,-0.37782 0.23037,-0.5969 l 0.008,-0.0392 z m -3.24027,-0.19721 c 0.62795,0.01 1.24213,0.2787 1.72791,0.67099 0.15734,0.13441 0.26564,0.44238 0.0236,0.55209 -0.15945,0.1524 -0.33937,-0.06 -0.51893,-0.0681 -0.57609,-0.1471 -1.20227,-0.23247 -1.78329,-0.0977 -0.20497,-0.11571 -0.62618,-0.4124 -0.34855,-0.65582 0.22719,-0.25682 0.55492,-0.39687 0.89923,-0.40146 m 3.56376,-0.18062 c 1.33209,0.34749 2.73438,0.30339 4.09928,0.20849 0.44274,-0.0342 0.88477,-0.0949 1.32186,-0.14922 -0.15452,0.61524 0.0353,1.31127 0.52141,1.72685 -0.0734,1.10313 -0.30974,2.1918 -0.37148,3.29882 -0.0744,0.76306 0.03,1.54552 -0.11359,2.29729 -0.0843,0.0723 -0.25189,-0.0557 -0.35243,-0.0646 -0.32138,-0.133 -0.64311,-0.29351 -0.93063,-0.47943 -0.17039,-1.49471 -0.38558,-3.02648 -0.14675,-4.52649 0.0409,-0.10971 0.0882,-0.38311 -0.11289,-0.3175 -0.18486,0.12524 -0.16686,0.43286 -0.4311,0.44627 -1.37689,0.50659 -2.83774,0.83855 -4.31235,0.71614 0.6731,-0.71508 1.1684,-1.74837 0.89888,-2.74673 -0.0392,-0.15205 -0.10054,-0.29598 -0.16687,-0.43745 0.0321,0.01 0.0646,0.0187 0.0967,0.0275 m 11.16683,-0.0349 c 1.7907,0.84808 3.38808,2.13995 4.49545,3.78601 0.14711,0.26635 0.37677,0.54857 0.3877,0.86149 -0.43074,1.27741 -0.94403,2.55129 -1.72438,3.66113 -0.14358,0.1344 -0.24059,0.41627 -0.4766,0.37006 -0.68298,0.0504 -1.36737,-0.35207 -1.64253,-0.98319 0.16651,-0.83221 0.39123,-1.74661 1.03434,-2.34315 0.1838,-0.21026 0.5013,-0.19721 0.68968,-0.38912 -0.19226,-0.18662 -0.49389,-0.1979 -0.7373,-0.28645 -0.81033,-0.20109 -1.72438,-0.30939 -2.34351,-0.9211 -0.10124,-0.12136 -0.27587,0.0173 -0.17074,0.14075 0.25259,0.4251 0.70485,0.69215 1.13489,0.88124 -0.27023,0.81139 -0.43568,1.66053 -0.56057,2.49943 -0.94156,0.26564 -1.91346,0.51788 -2.89913,0.5454 -0.31467,0.0261 -0.4064,-0.34326 -0.3937,-0.58914 -0.0543,-1.3201 0.11219,-2.63702 0.23072,-3.949 0.0427,-0.25223 0.0363,-0.55139 0.18168,-0.76623 1.01565,-0.25118 1.98085,-0.87559 2.51319,-1.79211 0.12841,-0.22931 0.2092,-0.48225 0.24836,-0.74224 z m -1.19909,-0.57961 c 0.2727,0.11853 0.59972,0.20602 0.81033,0.41275 -0.0755,0.56339 -0.47343,1.03258 -0.87665,1.40688 -0.49954,0.42756 -1.10102,0.71543 -1.73426,0.86889 -0.38735,0.23036 -0.36971,0.75882 -0.44062,1.15076 -0.13053,1.38501 -0.32138,2.77742 -0.24024,4.16983 0.0201,0.39723 0.26811,0.81245 0.69109,0.86678 0.63006,0.0727 1.25801,-0.10054 1.87713,-0.20038 0.393,-0.0716 0.8061,-0.19826 1.17863,-0.27975 -0.0392,0.72566 -0.0469,1.46332 0.13159,2.17064 -2.20627,0.78387 -4.72758,0.68933 -6.86647,-0.24201 -0.13405,-0.76341 -0.23283,-1.53846 -0.32737,-2.3061 0.44838,0.2099 0.92392,0.51646 1.44074,0.43779 0.38911,-0.17145 0.32914,-0.68051 0.34537,-1.02976 -0.002,-1.17122 0.0339,-2.34385 0.20144,-3.50484 0.0392,-0.55245 0.19931,-1.11055 0.13158,-1.66406 -0.25047,-0.27375 -0.52917,-0.56903 -0.55915,-0.96555 -0.0243,-0.17498 -0.009,-0.35419 0.0236,-0.5267 0.2473,0.14112 0.50553,0.26282 0.70591,0.47167 0.73871,0.57503 1.89053,0.79586 2.67723,0.1972 0.46249,-0.34748 0.67768,-0.90558 0.83008,-1.43369 z m -13.5703,-0.57679 c 0.60395,0.0194 1.25236,0.19015 1.69509,0.61842 0.23813,0.24448 0.0956,0.64594 -0.1277,0.85266 -0.66428,-0.37112 -1.50918,-0.64205 -2.23449,-0.28187 -0.15523,0.11042 -0.22896,-0.1658 -0.29987,-0.26846 -0.16862,-0.33443 0.067,-0.70485 0.39758,-0.81386 0.17922,-0.0751 0.37571,-0.0998 0.56939,-0.10689 m 10.23867,-0.10266 c -0.16228,0.036 -0.32809,0.0381 -0.49036,0.0127 -0.15699,0.16193 0.11959,0.33832 0.26211,0.37889 0.18662,0.0166 0.48824,0.0413 0.57326,-0.16581 0.005,-0.16122 -0.21025,-0.24342 -0.34501,-0.22578 m 1.65029,-1.16734 c 0.13406,-0.004 0.0293,0.13265 -0.0388,0.16157 -0.57679,0.38841 -1.29328,0.60184 -1.99037,0.50448 -0.35102,-0.0815 -0.78775,-0.24554 -0.99166,-0.50448 0.54751,0.15134 1.13453,0.27129 1.70215,0.17357 0.44133,-0.0984 0.87066,-0.26635 1.31869,-0.33514 m -0.24201,-0.67592 c -0.16546,0.0501 -0.0176,0.2547 -0.0441,0.33478 -0.79622,0.48543 -1.86232,0.65441 -2.7171,0.22331 0.0293,-0.121 -0.0695,-0.29527 -0.18944,-0.17074 -0.19614,0.12594 -0.32244,0.37183 -0.21696,0.59972 0.0811,0.14464 0.16933,0.39864 0.37006,0.36971 0.0617,-0.037 0.0607,-0.14111 0.139,-0.0451 0.68756,0.45861 1.61607,0.58279 2.3689,0.20955 0.25788,-0.10513 0.46849,-0.31785 0.71861,-0.42122 0.0945,0.0843 -0.001,0.37607 0.20673,0.30798 0.27411,-0.26846 0.25259,-0.8001 -0.0688,-1.03082 -0.17569,-0.12806 -0.34079,-0.35242 -0.56692,-0.37712 m 2.38266,-0.63852 c -0.16933,0.0476 -0.0268,0.22895 0.0677,0.27234 0.11254,0.0773 0.16405,0.36865 0.3422,0.23954 0.0452,-0.2286 -0.18168,-0.50201 -0.40993,-0.51188 m -12.82205,-0.17146 c 0.34184,-0.0282 0.45861,0.41063 0.34854,0.67063 -0.13476,0.43533 -0.37183,0.94086 -0.10901,1.37583 0.32068,0.52494 0.92957,0.78282 1.23367,1.32786 0.31115,0.43921 0.33125,1.05339 -0.0187,1.47073 -0.0646,0.13688 -0.34643,0.25259 -0.22437,0.42369 0.0702,0.10618 0.25682,-0.11818 0.19191,0.0617 -0.0871,0.65017 -0.45931,1.34867 -1.14511,1.51024 -0.36513,0.0755 -0.76342,0.0536 -1.11866,-0.0765 0.53975,0.0441 1.19874,0.10724 1.60267,-0.32385 0.20567,-0.2099 0.24236,-0.58526 0.0215,-0.79375 0.2995,-0.16123 0.38064,-0.5574 0.21166,-0.84421 -0.0716,-0.1524 -0.19579,-0.27551 -0.32208,-0.38452 0.29739,-0.32597 0.42192,-0.86713 0.12029,-1.23049 -0.32138,-0.41557 -0.86924,-0.55986 -1.33173,-0.72672 -0.47414,-0.63677 -0.59549,-1.65242 0.0413,-2.22003 0.13335,-0.11713 0.30798,-0.22614 0.49812,-0.2406 m 12.85452,-0.35137 c -0.17815,0.0557 -0.0219,0.23954 0.0889,0.27623 0.2226,0.13652 0.31679,0.39335 0.50059,0.56021 0.20108,0.0413 0.13653,-0.23636 0.0589,-0.32738 -0.13158,-0.23989 -0.35807,-0.49318 -0.6484,-0.50906 m -2.05775,-0.74224 c -0.19227,0.0159 -0.43498,0.0434 -0.55422,0.21096 -0.0378,0.21696 0.25012,0.17639 0.37994,0.22296 0.29316,0.0617 0.47096,0.34607 0.74366,0.43497 0.20285,-0.0349 0.0995,-0.31009 0.0776,-0.4452 -0.0702,-0.28787 -0.35278,-0.47308 -0.647,-0.42369 m -1.3529,-0.12912 c -0.22719,0.12841 -0.26458,0.44415 -0.4378,0.63077 -0.17074,0.30127 -0.50941,0.48366 -0.61947,0.81986 -0.0155,0.27904 0.2159,0.508 0.40005,0.68968 0.1344,0.13511 0.40322,0.0395 0.3563,-0.16652 -0.0483,-0.20284 -0.30021,-0.37359 -0.16333,-0.59831 0.23883,-0.40146 0.50658,-0.81915 0.57326,-1.28905 -0.005,-0.0529 -0.0543,-0.0988 -0.10901,-0.0868 z m -1.45097,-0.11147 c -0.30022,0.0741 -0.33938,0.47272 -0.31362,0.73201 0.002,0.1845 0.18626,0.45967 0.38629,0.30092 0.24095,-0.22719 0.2674,-0.64276 0.11924,-0.92781 -0.043,-0.0624 -0.11254,-0.11465 -0.19191,-0.10512 m 0.18803,-0.99942 c -0.20779,0.0413 -0.36795,0.22472 -0.45897,0.40604 0.10866,0.19615 0.30763,-0.0632 0.46779,-0.055 0.15804,0.0328 0.27481,0.006 0.21942,-0.16792 -0.0162,-0.10936 -0.11359,-0.20108 -0.22824,-0.18309 m 2.794,-0.0505 c -0.1584,-0.004 -0.34784,0.23283 -0.15946,0.33126 0.2667,0.0822 0.44521,0.30692 0.64453,0.47484 0.19085,0.0201 0.0674,-0.23001 0.008,-0.3175 -0.1136,-0.18415 -0.22966,-0.49989 -0.49319,-0.4886 m -4.04316,-0.12171 c 0.0938,0.11324 0.21519,0.20426 0.35383,0.25083 -0.11042,0.14816 -0.20814,0.38135 -0.30339,0.49177 -0.13193,-0.22402 -0.18767,-0.52 -0.0642,-0.75989 l 0.0138,0.0176 z m 3.91265,-0.84984 c 0.33126,0.22789 0.58032,0.62653 0.99801,0.69462 0.46884,-0.0134 0.97826,-0.18556 1.42099,0.0236 0.009,0.2727 -0.21555,0.51611 -0.34466,0.75 -0.20109,0.18556 -0.14076,0.3168 0.0801,0.42863 0.23706,0.17815 0.49177,0.42051 0.62935,0.64699 -0.20143,-0.21907 -0.46249,-0.44697 -0.76729,-0.47272 -0.17427,0.12841 0.11007,0.25894 0.2032,0.33902 0.25788,0.19861 0.47555,0.45226 0.62301,0.74366 -0.20497,-0.27764 -0.45403,-0.57609 -0.79869,-0.66358 -0.18486,0.0332 -0.0624,0.23566 0.0501,0.28258 0.29951,0.26105 0.60466,0.57397 0.74259,0.93909 -0.16368,0.14041 -0.28398,0.26846 -0.0427,0.40499 0.23601,0.18732 0.34643,0.55562 0.11924,0.79587 -0.18591,0.21554 -0.46919,0.45825 -0.77258,0.40922 -0.18838,-0.009 -0.19932,0.26811 -0.31856,0.37712 -0.36301,0.54292 -0.89993,0.92533 -1.41076,1.31551 -0.0861,0.13546 0.10231,0.25788 0.21449,0.1658 0.11113,-0.0201 0.387,-0.2473 0.37218,-0.13582 -0.20496,0.60854 -0.78669,1.09538 -1.45062,1.0474 -0.23495,0.003 -0.46743,-0.0554 -0.68615,-0.13547 0.26423,-0.008 0.55598,0.0473 0.80504,-0.0416 0.10548,-0.11994 -0.0526,-0.24094 -0.18027,-0.2039 -0.9712,0.0286 -1.97133,-0.32985 -2.58304,-1.10067 -0.82338,-1.00859 -0.99766,-2.41547 -0.75248,-3.6703 0.13159,-0.66463 0.37501,-1.34091 0.81739,-1.86161 0.52211,-0.14993 0.87383,-0.57608 1.20897,-0.97684 0.18838,-0.21025 0.42651,0.0621 0.6156,0.13159 0.39758,0.17392 0.8449,0.0162 1.17192,-0.23389 0.0116,-0.003 0.025,-0.0247 0.0356,3.5e-4 z m 0.25083,-2.03165 c 0.40816,0.0423 0.58737,0.52564 0.97825,0.62583 0.18803,0.0801 0.46708,-0.0505 0.60678,0.11042 0.39687,0.57679 0.83961,1.12077 1.397,1.54834 0.50624,0.49071 0.49107,1.28446 0.381,1.93146 -0.0579,0.27023 -0.14746,0.58737 -0.26952,0.80116 -0.13229,-0.53834 -0.50589,-0.98884 -0.93275,-1.32574 0.26564,-0.31045 0.62618,-0.70979 0.45756,-1.15076 -0.19156,-0.39229 -0.70556,-0.38206 -1.07845,-0.33867 -0.27834,0.0169 -0.55139,0.17392 -0.82514,0.12383 -0.35031,-0.23072 -0.49142,-0.75636 -0.93557,-0.84103 -0.42263,-0.048 -0.66992,0.53975 -1.10843,0.37465 -0.26952,-0.12312 -0.62653,-0.28575 -0.89782,-0.0727 -0.35066,0.31539 -0.57009,0.79305 -1.03822,0.96485 -0.23707,0.13159 -0.60502,0.11571 -0.70979,-0.17604 -0.17498,-0.43532 -0.10583,-0.94473 0.10654,-1.34655 0.0543,0.30833 0.34819,0.55492 0.66604,0.47766 0.61631,-0.14358 0.94545,-0.78493 1.52718,-0.99554 0.24024,-0.0699 0.41663,0.26706 0.66851,0.14006 0.39582,-0.19544 0.53728,-0.78176 1.00683,-0.85126 z m -0.0261,-0.35877 c -0.51752,0.0462 -0.768,0.57114 -1.10137,0.89041 -0.20814,-0.12912 -0.46461,-0.22649 -0.70944,-0.12277 -0.56938,0.20214 -0.88194,0.82973 -1.47496,0.97825 -0.25541,-0.0127 -0.26529,-0.35877 -0.26917,-0.55315 0.0222,-0.12841 -0.0949,-0.21661 -0.19862,-0.12277 -0.47307,0.24906 -0.58913,0.84737 -0.60536,1.3402 -0.0296,0.20532 0.121,0.43145 -0.0505,0.59232 -0.26952,0.42227 -0.12559,0.98107 0.1644,1.35784 -0.61102,1.50707 -0.50518,3.36656 0.48154,4.68877 0.0903,0.11712 0.18591,0.22754 0.28469,0.3369 -1.62913,0.21308 -3.31929,0.31997 -4.93466,-0.0289 -0.25364,-0.0787 -0.5461,-0.12665 -0.76341,-0.27058 -0.27939,-0.5087 -0.72284,-0.8837 -1.15323,-1.25977 -0.30197,-0.24729 -0.27022,-0.67909 -0.11465,-1.00118 0.19191,-0.42016 0.23672,-1.02623 -0.17321,-1.32891 -0.34819,-0.26106 -0.85125,-0.10831 -1.15112,0.15769 -0.65193,0.5207 -0.74824,1.48625 -0.43497,2.22215 0.0399,0.0945 0.0882,0.19473 0.13899,0.27975 -0.51858,-0.0222 -1.12395,0.0744 -1.43686,0.53163 -0.28399,0.39582 -0.11536,0.93522 0.18168,1.26013 -0.19191,0.17815 -0.33337,0.44414 -0.22931,0.70873 0.0854,0.20955 0.26247,0.35983 0.43639,0.49001 -0.32773,0.31362 -0.13864,0.82056 0.12277,1.10842 0.54504,0.56268 1.38218,0.79587 2.15053,0.71403 1.62348,0.52775 3.39725,0.29139 5.00063,-0.20426 0.24835,-0.0737 0.49212,-0.16334 0.74012,-0.23742 -0.18662,1.42416 -0.0603,2.8702 0.0709,4.29436 0.0878,1.08197 0.30233,2.15124 0.38982,3.23109 0.0123,2.21192 -0.30409,4.40973 -0.4064,6.6167 -0.0497,0.96838 -0.0621,1.93993 0.0134,2.90724 -0.55739,0.26882 -1.22379,0.387 -1.65665,0.85408 -0.22119,0.23883 -0.11924,0.6537 0.18204,0.77364 0.78281,0.38594 1.71591,0.22613 2.51918,-0.0152 0.34925,-0.11254 0.68404,-0.2667 1.00083,-0.4512 0.0808,0.29809 0.43851,0.26105 0.67734,0.21801 0.44873,-0.066 0.8382,-0.4833 0.77328,-0.95532 0.009,-0.21096 0.37077,-0.19861 0.23143,-0.51188 -0.0134,-1.70815 0.40922,-3.38667 0.92674,-4.99992 0.0642,-0.0762 0.0977,-0.53798 0.19015,-0.32314 0.96132,1.71238 1.94804,3.42053 2.59927,5.27932 0.13088,0.34642 0.39299,0.62829 0.65969,0.86148 0.14076,0.88971 0.81845,1.73143 1.74061,1.86831 0.41522,0.0589 0.8643,-0.0508 1.20756,-0.28716 0.38664,-0.28046 0.40322,-0.8322 0.22189,-1.23649 -0.0787,-0.23283 -0.20179,-0.44661 -0.30444,-0.66957 0.35066,-0.50482 0.19826,-1.16734 0.11641,-1.73178 -0.44132,-2.43417 -1.1116,-4.83976 -2.1336,-7.09366 -0.0737,-0.1591 -0.15663,-0.31186 -0.23248,-0.47025 0.57785,-0.0332 1.18745,0.055 1.74555,-0.10548 0.21025,-0.16898 0.28116,-0.46249 0.41098,-0.69109 0.23601,-0.41981 0.005,-0.94757 -0.32455,-1.21003 0.75177,-0.6731 1.1557,-1.64324 1.57903,-2.54036 0.25612,-0.60571 0.51223,-1.22696 0.69568,-1.84855 -0.0765,-0.49495 -0.38912,-0.92428 -0.66111,-1.33421 -1.38042,-1.89724 -3.37185,-3.3274 -5.57882,-4.10915 0.20955,-0.18274 0.40005,-0.39088 0.54927,-0.62971 0.58103,-0.12947 1.17969,-0.58879 1.19768,-1.23014 0.0212,-0.248 -0.115,-0.47519 -0.22966,-0.67098 0.3549,-0.45896 0.46743,-1.04775 0.63324,-1.59244 0.15628,-0.7606 0.15945,-1.66935 -0.39123,-2.27366 -0.51047,-0.4251 -0.98425,-0.90487 -1.34162,-1.46579 -0.12453,-0.23072 -0.37606,-0.35489 -0.6357,-0.31962 -0.4191,0.0533 -0.62089,-0.41204 -0.95427,-0.57326 -0.11535,-0.0646 -0.25011,-0.0984 -0.38241,-0.0917"
       style="fill:#3f3f3f;fill-opacity:1;fill-rule:nonzero;stroke:none;stroke-width:0.35277775"
       id="path36"
       inkscape:connector-curvature="0" />
  </g>
</svg>
